<svg width="385" height="788" viewBox="0 0 385 788" fill="none" xmlns="http://www.w3.org/2000/svg">
<path d="M383.069 231.85C383.069 137.882 314.842 59.5708 225.356 43.7932L192.105 1.79102L158.824 43.7932C69.3081 59.5706 1.11133 137.912 1.11133 231.85C1.11133 337.174 86.7815 422.844 192.105 422.844C297.399 422.844 383.069 337.174 383.069 231.85Z" fill="white"/>
<path d="M192.106 423.956C86.1784 423.956 0 337.778 0 231.85C0 186.489 16.1776 142.431 45.552 107.793C74.4976 73.6593 114.496 50.5796 158.216 42.7721L192.106 0L225.967 42.7726C269.68 50.5811 309.673 73.6567 338.619 107.781C368.001 142.421 384.182 186.483 384.182 231.85C384.182 337.777 298.017 423.956 192.106 423.956ZM192.106 3.58191L159.434 44.8153L159.018 44.8885C68.1654 60.9017 2.22408 139.53 2.22408 231.849C2.22408 336.551 87.4047 421.731 192.106 421.731C296.79 421.731 381.957 336.551 381.957 231.849C381.957 139.536 316.016 60.907 225.163 44.8885L224.747 44.815L192.106 3.58191Z" fill="#EF6C33"/>
<path d="M192.09 398.419C284.076 398.419 358.645 323.85 358.645 231.863C358.645 139.877 284.076 65.3076 192.09 65.3076C100.104 65.3076 25.5342 139.877 25.5342 231.863C25.5342 323.849 100.104 398.419 192.09 398.419Z" fill="#EF6C33"/>
<path d="M33.3574 263.07V699.004L193.573 786.515L353.789 699.004V263.07C353.789 179.359 282.058 111.497 193.574 111.497C105.089 111.497 33.3574 179.359 33.3574 263.07Z" fill="white"/>
<path d="M193.572 788L31.998 699.746V263.071C31.998 222.241 48.8045 183.854 79.3223 154.983C109.839 126.112 150.414 110.212 193.573 110.212C236.731 110.212 277.306 126.112 307.823 154.983C338.341 183.854 355.147 222.24 355.147 263.071V699.746L354.468 700.118L193.572 788ZM34.7155 698.263L193.572 785.031L352.429 698.263V263.071C352.429 180.202 281.167 112.783 193.573 112.783C105.979 112.783 34.7155 180.202 34.7155 263.071V698.263Z" fill="#EF6C33"/>
<path d="M153.308 250.874C152.832 250.874 152.356 250.717 151.962 250.39C151.055 249.649 150.927 248.311 151.672 247.408C152.347 246.584 168.392 227.222 180.7 225.11C187.762 223.913 191.717 226.597 193.278 228.067C197.838 228.137 211.75 228.725 215.908 233.231C216.914 234.325 217.39 235.625 217.283 236.996C216.682 244.857 198.633 244.339 190.926 243.772C189.758 243.681 188.88 242.666 188.967 241.498C189.058 240.334 189.981 239.473 191.24 239.539C202.294 240.371 212.876 238.972 213.054 236.673C213.062 236.582 213.075 236.416 212.789 236.11C210.395 233.513 199.395 232.32 192.351 232.299C191.671 232.299 191.034 231.972 190.636 231.421C190.553 231.314 188.014 228.15 181.417 229.293C170.657 231.136 155.101 249.914 154.944 250.1C154.526 250.609 153.921 250.874 153.308 250.874Z" fill="#EF6C33"/>
<path d="M172.385 268.278C171.938 268.278 171.486 268.137 171.105 267.847C170.169 267.139 169.987 265.809 170.695 264.877L182.552 249.247C182.954 248.717 183.58 248.406 184.242 248.406H210.14C212.695 248.406 215.147 247.47 217.044 245.768C231.821 232.52 236.542 225.28 236.112 223.644C235.979 223.528 235.693 223.313 235.026 223.309C235.022 223.309 235.014 223.309 235.006 223.309C230.595 223.309 221.247 231.587 216.385 236.814C215.59 237.672 214.248 237.725 213.387 236.922C212.529 236.122 212.484 234.78 213.279 233.923C214.695 232.403 227.319 219.067 235.014 219.067C235.026 219.067 235.039 219.067 235.051 219.067C236.766 219.08 238.236 219.709 239.309 220.89C239.831 221.461 240.431 222.472 240.352 224.021C240.116 228.572 233.229 236.951 219.876 248.924C217.197 251.326 213.743 252.647 210.14 252.647H185.294L174.075 267.437C173.656 267.988 173.023 268.278 172.385 268.278Z" fill="#EF6C33"/>
<path d="M171.379 282.189C170.874 282.189 170.381 282.011 169.996 281.676L138.603 254.61C138.147 254.217 137.878 253.65 137.866 253.049C137.853 252.444 138.098 251.869 138.537 251.459L146.907 243.61C147.702 242.856 148.944 242.836 149.756 243.565L178.271 268.675C179.025 269.333 179.211 270.431 178.722 271.301L173.231 281.104C172.92 281.659 172.373 282.048 171.748 282.156C171.624 282.177 171.503 282.189 171.379 282.189ZM143.159 252.937L170.799 276.768L174.183 270.725L148.402 248.021L143.159 252.937Z" fill="#EF6C33"/>
<path d="M174.113 184.237H161.208C160.036 184.237 159.088 183.288 159.088 182.117C159.088 180.945 160.036 179.996 161.208 179.996H174.113C175.286 179.996 176.234 180.945 176.234 182.117C176.234 183.288 175.286 184.237 174.113 184.237Z" fill="#EF6C33"/>
<path d="M164.802 200.17C163.999 200.17 163.228 199.71 162.872 198.928C162.388 197.863 162.86 196.604 163.924 196.12L175.674 190.773C176.747 190.297 177.997 190.761 178.482 191.825C178.966 192.889 178.494 194.148 177.43 194.633L165.68 199.98C165.394 200.108 165.096 200.17 164.802 200.17Z" fill="#EF6C33"/>
<path d="M176.552 173.647C176.258 173.647 175.96 173.585 175.674 173.457L163.924 168.114C162.86 167.629 162.388 166.37 162.872 165.306C163.361 164.237 164.62 163.778 165.68 164.254L177.43 169.596C178.494 170.081 178.966 171.34 178.482 172.404C178.126 173.187 177.355 173.647 176.552 173.647Z" fill="#EF6C33"/>
<path d="M246.194 184.237H233.289C232.117 184.237 231.169 183.288 231.169 182.117C231.169 180.945 232.117 179.996 233.289 179.996H246.194C247.367 179.996 248.315 180.945 248.315 182.117C248.315 183.288 247.367 184.237 246.194 184.237Z" fill="#EF6C33"/>
<path d="M242.599 200.169C242.305 200.169 242.006 200.107 241.721 199.979L229.971 194.632C228.906 194.147 228.434 192.888 228.919 191.824C229.408 190.759 230.667 190.296 231.727 190.772L243.477 196.119C244.541 196.603 245.013 197.862 244.529 198.927C244.172 199.709 243.402 200.169 242.599 200.169Z" fill="#EF6C33"/>
<path d="M230.849 173.647C230.045 173.647 229.275 173.187 228.919 172.404C228.434 171.34 228.907 170.081 229.971 169.596L241.721 164.254C242.793 163.778 244.044 164.237 244.529 165.306C245.013 166.37 244.541 167.629 243.477 168.114L231.727 173.457C231.441 173.585 231.143 173.647 230.849 173.647Z" fill="#EF6C33"/>
<path d="M214.007 202.095C213.307 202.095 212.619 201.747 212.214 201.11C211.588 200.116 211.882 198.807 212.872 198.182C217.921 194.993 220.936 189.547 220.936 183.612C220.936 174.111 213.203 166.379 203.703 166.379C194.202 166.379 186.47 174.111 186.47 183.612C186.47 189.522 189.472 194.972 194.5 198.19C195.486 198.82 195.776 200.132 195.142 201.118C194.517 202.108 193.2 202.39 192.214 201.76C185.96 197.763 182.229 190.975 182.229 183.612C182.229 171.771 191.862 162.138 203.702 162.138C215.543 162.138 225.177 171.771 225.177 183.612C225.177 191.009 221.424 197.796 215.141 201.768C214.79 201.988 214.396 202.095 214.007 202.095Z" fill="#EF6C33"/>
<path d="M214.007 202.095C213.307 202.095 212.619 201.747 212.214 201.11C211.588 200.116 211.882 198.807 212.872 198.182C217.921 194.993 220.936 189.547 220.936 183.612C220.936 174.111 213.203 166.379 203.703 166.379C194.202 166.379 186.47 174.111 186.47 183.612C186.47 189.522 189.472 194.972 194.5 198.19C195.486 198.82 195.776 200.132 195.142 201.118C194.517 202.108 193.2 202.39 192.214 201.76C185.96 197.763 182.229 190.975 182.229 183.612C182.229 171.771 191.862 162.138 203.702 162.138C215.543 162.138 225.177 171.771 225.177 183.612C225.177 191.009 221.424 197.796 215.141 201.768C214.79 201.988 214.396 202.095 214.007 202.095Z" fill="#EF6C33"/>
<path d="M203.703 223.309C196.828 223.309 191.236 217.717 191.236 210.842V199.975C191.236 198.803 192.185 197.854 193.357 197.854H214.007C215.179 197.854 216.127 198.803 216.127 199.975V210.842C216.127 217.717 210.553 223.309 203.703 223.309ZM195.477 202.095V210.842C195.477 215.377 199.167 219.067 203.702 219.067C208.217 219.067 211.886 215.377 211.886 210.842V202.095H195.477Z" fill="#EF6C33"/>
<path d="M214.007 211.207H193.357C192.185 211.207 191.236 210.258 191.236 209.086C191.236 207.914 192.185 206.966 193.357 206.966H214.007C215.179 206.966 216.127 207.914 216.127 209.086C216.127 210.258 215.179 211.207 214.007 211.207Z" fill="#EF6C33"/>
</svg>
