<svg width="385" height="698" viewBox="0 0 385 698" fill="none" xmlns="http://www.w3.org/2000/svg">
<path d="M192.107 697.084L158.215 654.312C114.495 646.504 74.4974 623.425 45.5515 589.292C16.1773 554.653 0 510.594 0 465.234C0 359.306 86.1781 273.128 192.106 273.128C298.017 273.128 384.182 359.306 384.182 465.234C384.182 510.602 368 554.664 338.619 589.303C309.673 623.427 269.68 646.503 225.966 654.312L192.107 697.084ZM192.106 275.352C87.4047 275.352 2.22409 360.533 2.22409 465.234C2.22409 557.553 68.1655 636.182 159.018 652.195L159.434 652.268L192.106 693.501L224.747 652.268L225.163 652.195C316.016 636.176 381.958 557.548 381.958 465.234C381.958 360.533 296.791 275.352 192.106 275.352Z" fill="#0C3B5E"/>
<path d="M192.09 298.665C284.076 298.665 358.645 373.234 358.645 465.221C358.645 557.207 284.076 631.776 192.09 631.776C100.104 631.776 25.5342 557.207 25.5342 465.221C25.5342 373.235 100.104 298.665 192.09 298.665Z" fill="#0C3B5E"/>
<path d="M58.0605 442.999V75.1054L192.506 1.25293L326.951 75.1054V442.999C326.951 513.646 266.758 570.916 192.506 570.916H192.506C118.253 570.915 58.0605 513.646 58.0605 442.999Z" fill="white"/>
<path d="M192.505 572C156.289 572 122.24 558.582 96.6318 534.217C71.0231 509.852 56.9199 477.457 56.9199 443V74.4794L57.4901 74.1658L192.505 0L193.075 0.313341L328.09 74.4794V442.999C328.09 477.457 313.987 509.852 288.378 534.217C262.77 558.582 228.721 572 192.505 572ZM59.2005 75.7315V443C59.2005 512.934 119 569.83 192.505 569.83C266.01 569.83 325.81 512.934 325.81 442.999V75.7315L192.505 2.50546L59.2005 75.7315Z" fill="#0C3B5E"/>
<path d="M146.948 471.45C146.267 471.45 145.602 471.102 145.226 470.472C143.869 468.191 142.852 465.735 142.198 463.172C141.925 462.1 142.574 461.013 143.646 460.739C144.726 460.449 145.805 461.114 146.079 462.186C146.638 464.373 147.507 466.474 148.669 468.422C149.236 469.373 148.923 470.605 147.972 471.168C147.652 471.36 147.296 471.45 146.948 471.45Z" fill="#0C3B5E"/>
<path d="M193.835 452.031C192.939 452.031 192.121 451.429 191.894 450.521C191.339 448.33 190.47 446.233 189.308 444.285C188.741 443.335 189.054 442.106 190.005 441.539C190.944 440.976 192.18 441.281 192.751 442.235C194.108 444.516 195.129 446.973 195.775 449.539C196.049 450.611 195.399 451.699 194.327 451.968C194.159 452.012 193.995 452.031 193.835 452.031Z" fill="#0C3B5E"/>
<path d="M191.03 471.45C190.678 471.45 190.326 471.36 190.005 471.168C189.054 470.605 188.741 469.373 189.308 468.422C190.47 466.47 191.339 464.373 191.894 462.186C192.16 461.114 193.236 460.449 194.327 460.739C195.399 461.009 196.049 462.1 195.775 463.172C195.129 465.731 194.112 468.184 192.751 470.472C192.375 471.102 191.71 471.45 191.03 471.45Z" fill="#0C3B5E"/>
<path d="M155.895 436.316C155.214 436.316 154.549 435.968 154.173 435.338C153.606 434.387 153.919 433.159 154.87 432.592C157.147 431.234 159.604 430.217 162.17 429.564C163.25 429.278 164.329 429.939 164.603 431.011C164.877 432.083 164.228 433.171 163.156 433.444C160.965 434.004 158.868 434.872 156.92 436.034C156.599 436.226 156.247 436.316 155.895 436.316Z" fill="#0C3B5E"/>
<path d="M182.083 436.315C181.73 436.315 181.378 436.225 181.057 436.033C179.109 434.872 177.012 434.003 174.822 433.443C173.75 433.17 173.1 432.082 173.374 431.01C173.644 429.938 174.728 429.277 175.808 429.563C178.374 430.216 180.831 431.233 183.108 432.591C184.058 433.158 184.371 434.386 183.804 435.337C183.428 435.967 182.763 436.315 182.083 436.315Z" fill="#0C3B5E"/>
<path d="M175.315 483.202C174.419 483.202 173.601 482.599 173.374 481.692C173.1 480.616 173.75 479.528 174.822 479.258C177.012 478.703 179.109 477.834 181.057 476.673C181.992 476.109 183.233 476.411 183.804 477.369C184.371 478.319 184.058 479.548 183.107 480.115C180.827 481.473 178.37 482.494 175.804 483.139C175.639 483.182 175.475 483.202 175.315 483.202Z" fill="#0C3B5E"/>
<path d="M162.663 483.202C162.503 483.202 162.338 483.182 162.174 483.139C159.607 482.494 157.151 481.473 154.87 480.115C153.919 479.548 153.606 478.32 154.174 477.369C154.741 476.41 155.973 476.109 156.92 476.673C158.868 477.834 160.965 478.703 163.156 479.259C164.227 479.529 164.877 480.616 164.603 481.692C164.376 482.6 163.559 483.202 162.663 483.202Z" fill="#0C3B5E"/>
<path d="M144.139 452.03C143.978 452.03 143.81 452.011 143.646 451.968C142.574 451.694 141.924 450.606 142.198 449.534C142.852 446.968 143.869 444.511 145.227 442.234C145.794 441.28 147.026 440.975 147.973 441.538C148.923 442.105 149.236 443.334 148.669 444.284C147.507 446.232 146.639 448.329 146.08 450.52C145.848 451.428 145.035 452.03 144.139 452.03Z" fill="#0C3B5E"/>
<path d="M168.987 474.412C166.671 474.412 164.414 473.977 162.278 473.12C162.266 473.116 161.899 472.964 161.887 472.96C157.587 471.113 154.219 467.741 152.384 463.465C152.376 463.442 152.22 463.058 152.212 463.039C151.363 460.927 150.929 458.669 150.929 456.353C150.929 454.037 151.363 451.78 152.22 449.644C152.228 449.624 152.384 449.241 152.392 449.221C154.219 444.961 157.587 441.593 161.871 439.754C162.876 439.312 164.066 439.781 164.5 440.802C164.938 441.819 164.468 442.997 163.451 443.431C160.165 444.843 157.474 447.535 156.069 450.813C155.271 452.793 154.935 454.549 154.935 456.353C154.935 458.156 155.271 459.913 155.936 461.567C157.474 465.167 160.165 467.862 163.451 469.274C167.41 470.866 170.9 470.738 174.202 469.403C175.857 468.699 177.085 467.929 178.176 466.978C179.784 465.589 181.072 463.832 181.909 461.884C182.703 459.912 183.039 458.156 183.039 456.352C183.039 454.549 182.703 452.792 182.038 451.13C181.068 448.868 179.78 447.112 178.184 445.735C177.085 444.776 175.857 444.005 174.523 443.43C173.517 443 172.864 441.772 173.275 440.758C173.689 439.745 174.648 439.178 175.673 439.577C175.696 439.585 176.084 439.745 176.111 439.753C177.817 440.489 179.401 441.482 180.806 442.707C182.855 444.467 184.51 446.728 185.586 449.232C185.594 449.248 185.751 449.627 185.754 449.643C186.611 451.779 187.045 454.036 187.045 456.352C187.045 458.668 186.611 460.925 185.754 463.061C185.747 463.077 185.594 463.453 185.586 463.472C184.514 465.968 182.855 468.23 180.798 470.006C179.401 471.222 177.817 472.216 176.103 472.951C176.099 472.955 175.728 473.108 175.724 473.108C173.568 473.977 171.311 474.412 168.987 474.412Z" fill="#0C3B5E"/>
<path d="M175.314 488.812H162.662C161.555 488.812 160.659 487.916 160.659 486.809V481.199C160.659 480.092 161.555 479.196 162.662 479.196C163.769 479.196 164.665 480.092 164.665 481.199V484.806H173.311V481.199C173.311 480.092 174.207 479.196 175.314 479.196C176.421 479.196 177.317 480.092 177.317 481.199V486.809C177.317 487.916 176.421 488.812 175.314 488.812Z" fill="#0C3B5E"/>
<path d="M175.314 433.507C174.207 433.507 173.311 432.611 173.311 431.504V427.897H164.665V431.504C164.665 432.611 163.769 433.507 162.662 433.507C161.555 433.507 160.659 432.611 160.659 431.504V425.894C160.659 424.786 161.555 423.891 162.662 423.891H175.314C176.421 423.891 177.317 424.786 177.317 425.894V431.504C177.317 432.611 176.421 433.507 175.314 433.507Z" fill="#0C3B5E"/>
<path d="M162.941 443.459C162.127 443.459 161.309 443.04 160.996 442.289C160.574 441.28 160.859 440.192 161.865 439.754C161.892 439.746 162.28 439.586 162.303 439.578C166.528 437.88 171.426 437.872 175.698 439.586C176.723 439.997 177.22 441.162 176.809 442.191C176.398 443.22 175.225 443.705 174.204 443.302C170.894 441.972 167.084 441.972 163.774 443.302C163.512 443.408 163.226 443.459 162.941 443.459Z" fill="#0C3B5E"/>
<path d="M144.138 464.682H138.532C137.425 464.682 136.529 463.786 136.529 462.679V450.027C136.529 448.92 137.425 448.024 138.532 448.024H144.138C145.245 448.024 146.141 448.92 146.141 450.027C146.141 451.135 145.245 452.03 144.138 452.03H140.535V460.676H144.138C145.245 460.676 146.141 461.572 146.141 462.679C146.141 463.786 145.245 464.682 144.138 464.682Z" fill="#0C3B5E"/>
<path d="M199.444 464.682H193.834C192.726 464.682 191.831 463.786 191.831 462.679C191.831 461.572 192.726 460.676 193.834 460.676H197.441V452.03H193.834C192.726 452.03 191.831 451.135 191.831 450.027C191.831 448.92 192.726 448.024 193.834 448.024H199.444C200.551 448.024 201.447 448.92 201.447 450.027V462.679C201.447 463.786 200.551 464.682 199.444 464.682Z" fill="#0C3B5E"/>
<path d="M146.946 445.263C146.434 445.263 145.921 445.067 145.53 444.676L141.563 440.705C140.781 439.923 140.781 438.655 141.563 437.873L150.507 428.926C151.258 428.175 152.588 428.175 153.339 428.926L157.31 432.896C158.092 433.679 158.092 434.946 157.31 435.729C156.527 436.511 155.26 436.511 154.478 435.729L151.923 433.174L145.812 439.289L148.363 441.843C149.145 442.626 149.145 443.893 148.363 444.676C147.971 445.067 147.459 445.263 146.946 445.263Z" fill="#0C3B5E"/>
<path d="M186.052 484.364C185.54 484.364 185.027 484.168 184.636 483.777L180.665 479.81C179.883 479.028 179.883 477.76 180.665 476.978C181.447 476.195 182.715 476.195 183.497 476.978L186.052 479.529L192.163 473.418L189.612 470.863C188.829 470.081 188.829 468.814 189.612 468.031C190.394 467.249 191.662 467.249 192.444 468.031L196.411 472.002C197.193 472.784 197.193 474.052 196.411 474.834L187.468 483.777C187.077 484.169 186.565 484.364 186.052 484.364Z" fill="#0C3B5E"/>
<path d="M191.03 445.263C190.518 445.263 190.005 445.067 189.614 444.676C188.831 443.894 188.831 442.626 189.614 441.844L192.164 439.289L186.054 433.174L183.499 435.729C182.717 436.511 181.449 436.511 180.667 435.729C179.884 434.947 179.884 433.679 180.667 432.897L184.638 428.926C185.013 428.55 185.522 428.339 186.054 428.339C186.586 428.339 187.095 428.55 187.47 428.926L196.413 437.873C197.196 438.655 197.196 439.923 196.413 440.705L192.447 444.676C192.055 445.067 191.542 445.263 191.03 445.263Z" fill="#0C3B5E"/>
<path d="M151.923 484.364C151.411 484.364 150.898 484.169 150.507 483.777L141.563 474.834C140.781 474.052 140.781 472.784 141.563 472.002L145.53 468.031C146.313 467.249 147.58 467.249 148.363 468.031C149.145 468.814 149.145 470.081 148.363 470.863L145.812 473.418L151.923 479.529L154.477 476.978C155.26 476.195 156.527 476.195 157.31 476.978C158.092 477.76 158.092 479.028 157.31 479.81L153.339 483.777C152.948 484.169 152.435 484.364 151.923 484.364Z" fill="#0C3B5E"/>
<path d="M207.894 440.501C207.213 440.501 206.548 440.153 206.176 439.527C205.171 437.849 204.416 436.03 203.931 434.128C203.657 433.057 204.303 431.965 205.375 431.691C206.462 431.409 207.538 432.067 207.812 433.135C208.203 434.668 208.809 436.124 209.611 437.47C210.182 438.42 209.869 439.649 208.923 440.216C208.598 440.411 208.246 440.501 207.894 440.501Z" fill="#0C3B5E"/>
<path d="M241.612 426.535C240.716 426.535 239.898 425.932 239.672 425.021C239.288 423.507 238.682 422.052 237.872 420.69C237.305 419.74 237.618 418.511 238.568 417.944C239.508 417.377 240.744 417.686 241.315 418.64C242.324 420.334 243.075 422.149 243.552 424.043C243.826 425.115 243.177 426.203 242.101 426.472C241.937 426.515 241.772 426.535 241.612 426.535Z" fill="#0C3B5E"/>
<path d="M239.593 440.501C239.241 440.501 238.889 440.411 238.568 440.219C237.618 439.652 237.305 438.424 237.872 437.473C238.682 436.112 239.288 434.656 239.672 433.142C239.938 432.067 241.013 431.401 242.101 431.691C243.177 431.961 243.826 433.049 243.552 434.12C243.075 436.014 242.324 437.829 241.315 439.523C240.939 440.153 240.274 440.501 239.593 440.501Z" fill="#0C3B5E"/>
<path d="M214.325 415.232C213.644 415.232 212.979 414.884 212.604 414.255C212.036 413.304 212.349 412.075 213.3 411.508C214.982 410.507 216.797 409.756 218.695 409.271C219.774 408.997 220.858 409.646 221.132 410.714C221.406 411.786 220.76 412.877 219.688 413.151C218.159 413.543 216.699 414.145 215.35 414.951C215.029 415.142 214.677 415.232 214.325 415.232Z" fill="#0C3B5E"/>
<path d="M233.157 415.232C232.805 415.232 232.453 415.142 232.132 414.951C230.779 414.145 229.32 413.538 227.798 413.151C226.726 412.877 226.076 411.79 226.35 410.718C226.62 409.646 227.692 408.989 228.784 409.27C230.681 409.751 232.496 410.507 234.182 411.508C235.133 412.075 235.446 413.304 234.879 414.254C234.503 414.884 233.838 415.232 233.157 415.232Z" fill="#0C3B5E"/>
<path d="M228.291 448.955C227.395 448.955 226.581 448.353 226.35 447.445C226.076 446.373 226.726 445.286 227.798 445.012C229.319 444.625 230.779 444.018 232.132 443.212C233.071 442.645 234.303 442.95 234.879 443.909C235.446 444.859 235.133 446.088 234.182 446.655C232.496 447.657 230.681 448.412 228.784 448.893C228.619 448.936 228.451 448.955 228.291 448.955Z" fill="#0C3B5E"/>
<path d="M219.192 448.955C219.027 448.955 218.863 448.936 218.695 448.893C216.797 448.408 214.982 447.656 213.3 446.655C212.349 446.088 212.036 444.859 212.604 443.909C213.171 442.95 214.403 442.645 215.35 443.212C216.7 444.018 218.159 444.621 219.688 445.012C220.76 445.286 221.406 446.377 221.132 447.449C220.901 448.353 220.087 448.955 219.192 448.955Z" fill="#0C3B5E"/>
<path d="M205.871 426.534C205.707 426.534 205.542 426.515 205.374 426.472C204.302 426.198 203.657 425.107 203.931 424.035C204.416 422.133 205.171 420.314 206.176 418.636C206.739 417.685 207.968 417.368 208.922 417.947C209.869 418.514 210.182 419.743 209.611 420.694C208.809 422.039 208.203 423.495 207.811 425.028C207.58 425.932 206.767 426.534 205.871 426.534Z" fill="#0C3B5E"/>
<path d="M223.742 442.633C222.005 442.633 220.311 442.308 218.707 441.663C215.19 440.157 212.663 437.63 211.285 434.422C210.519 432.516 210.194 430.822 210.194 429.082C210.194 427.349 210.519 425.654 211.164 424.047C212.662 420.534 215.19 418.006 218.401 416.629C219.407 416.187 220.592 416.657 221.03 417.678C221.469 418.695 220.999 419.872 219.982 420.306C217.752 421.265 215.925 423.092 214.97 425.322C214.431 426.663 214.2 427.861 214.2 429.081C214.2 430.31 214.431 431.499 214.881 432.622C215.925 435.071 217.752 436.898 219.982 437.856C222.677 438.94 225.04 438.842 227.282 437.946C228.397 437.473 229.23 436.949 229.981 436.295C231.073 435.356 231.949 434.159 232.52 432.837C233.056 431.499 233.287 430.31 233.287 429.082C233.287 427.861 233.056 426.664 232.606 425.533C231.949 424 231.077 422.807 229.989 421.872C229.23 421.214 228.397 420.69 227.509 420.311C226.515 419.888 225.901 418.699 226.292 417.693C226.683 416.68 227.661 416.113 228.686 416.465C228.745 416.489 229.066 416.618 229.12 416.645C230.353 417.169 231.542 417.912 232.61 418.84C234.147 420.162 235.391 421.86 236.197 423.742C236.968 425.655 237.293 427.349 237.293 429.082C237.293 430.823 236.968 432.516 236.323 434.116C235.392 436.299 234.148 437.993 232.606 439.327C231.542 440.251 230.353 440.994 229.073 441.538C227.176 442.308 225.483 442.633 223.742 442.633Z" fill="#0C3B5E"/>
<path d="M228.292 452.989H219.192C218.085 452.989 217.189 452.093 217.189 450.986V446.952C217.189 445.845 218.085 444.949 219.192 444.949C220.299 444.949 221.195 445.845 221.195 446.952V448.983H226.289V446.952C226.289 445.845 227.184 444.949 228.292 444.949C229.399 444.949 230.294 445.845 230.294 446.952V450.986C230.294 452.093 229.399 452.989 228.292 452.989Z" fill="#0C3B5E"/>
<path d="M228.292 413.214C227.184 413.214 226.289 412.318 226.289 411.211V409.181H221.195V411.211C221.195 412.318 220.299 413.214 219.192 413.214C218.085 413.214 217.189 412.318 217.189 411.211V407.178C217.189 406.071 218.085 405.175 219.192 405.175H228.292C229.399 405.175 230.294 406.071 230.294 407.178V411.211C230.294 412.318 229.399 413.214 228.292 413.214Z" fill="#0C3B5E"/>
<path d="M219.395 420.37C218.581 420.37 217.775 419.931 217.466 419.165C217.051 418.14 217.411 417.029 218.433 416.61C218.437 416.61 218.573 416.555 218.577 416.551C222.047 415.159 225.576 415.21 228.776 416.5C229.801 416.915 230.302 418.081 229.887 419.106C229.476 420.135 228.307 420.628 227.282 420.217C225.04 419.317 222.458 419.317 220.201 420.217C219.943 420.323 219.669 420.37 219.395 420.37Z" fill="#0C3B5E"/>
<path d="M205.871 435.634H201.837C200.73 435.634 199.834 434.738 199.834 433.631V424.531C199.834 423.424 200.73 422.528 201.837 422.528H205.871C206.978 422.528 207.874 423.424 207.874 424.531C207.874 425.639 206.978 426.534 205.871 426.534H203.84V431.628H205.871C206.978 431.628 207.874 432.524 207.874 433.631C207.874 434.738 206.978 435.634 205.871 435.634Z" fill="#0C3B5E"/>
<path d="M245.646 435.634H241.612C240.505 435.634 239.609 434.738 239.609 433.631C239.609 432.524 240.505 431.628 241.612 431.628H243.643V426.534H241.612C240.505 426.534 239.609 425.639 239.609 424.531C239.609 423.424 240.505 422.528 241.612 422.528H245.646C246.753 422.528 247.649 423.424 247.649 424.531V433.631C247.649 434.738 246.753 435.634 245.646 435.634Z" fill="#0C3B5E"/>
<path d="M207.893 421.668C207.381 421.668 206.869 421.473 206.477 421.082L203.621 418.226C202.839 417.443 202.839 416.176 203.621 415.393L210.053 408.958C210.804 408.207 212.134 408.207 212.885 408.958L215.741 411.814C216.524 412.596 216.524 413.864 215.741 414.646C214.959 415.429 213.691 415.429 212.909 414.646L211.469 413.207L207.87 416.809L209.31 418.249C210.092 419.032 210.092 420.299 209.31 421.081C208.918 421.473 208.406 421.668 207.893 421.668Z" fill="#0C3B5E"/>
<path d="M236.015 449.788C235.502 449.788 234.99 449.592 234.599 449.202L231.743 446.35C230.96 445.567 230.96 444.3 231.743 443.517C232.525 442.735 233.793 442.735 234.575 443.517L236.015 444.953L239.618 441.354L238.178 439.914C237.396 439.132 237.396 437.864 238.178 437.082C238.96 436.3 240.228 436.3 241.01 437.082L243.866 439.938C244.242 440.314 244.453 440.822 244.453 441.354C244.453 441.886 244.242 442.395 243.866 442.77L237.431 449.202C237.04 449.593 236.527 449.788 236.015 449.788Z" fill="#0C3B5E"/>
<path d="M239.594 421.668C239.082 421.668 238.569 421.473 238.178 421.082C237.396 420.299 237.396 419.032 238.178 418.249L239.618 416.81L236.015 413.207L234.575 414.646C233.793 415.429 232.525 415.429 231.743 414.646C230.96 413.864 230.96 412.596 231.743 411.814L234.599 408.958C235.381 408.175 236.649 408.175 237.431 408.958L243.867 415.394C244.649 416.176 244.649 417.443 243.867 418.226L241.011 421.082C240.619 421.473 240.106 421.668 239.594 421.668Z" fill="#0C3B5E"/>
<path d="M211.469 449.789C210.957 449.789 210.444 449.593 210.053 449.202L203.621 442.77C202.839 441.988 202.839 440.72 203.621 439.938L206.477 437.082C207.26 436.3 208.527 436.3 209.31 437.082C210.092 437.864 210.092 439.132 209.31 439.914L207.87 441.354L211.469 444.953L212.909 443.517C213.691 442.735 214.959 442.735 215.741 443.517C216.524 444.3 216.524 445.567 215.741 446.35L212.885 449.202C212.494 449.593 211.982 449.789 211.469 449.789Z" fill="#0C3B5E"/>
<path d="M207.894 493.784C207.213 493.784 206.548 493.436 206.176 492.81C205.171 491.132 204.416 489.313 203.931 487.411C203.657 486.339 204.303 485.248 205.375 484.974C206.462 484.696 207.538 485.35 207.812 486.418C208.203 487.951 208.809 489.407 209.611 490.752C210.182 491.703 209.869 492.932 208.923 493.499C208.598 493.694 208.246 493.784 207.894 493.784Z" fill="#0C3B5E"/>
<path d="M241.612 479.818C240.716 479.818 239.898 479.216 239.672 478.304C239.288 476.79 238.682 475.335 237.872 473.974C237.305 473.023 237.618 471.794 238.568 471.227C239.508 470.664 240.744 470.969 241.315 471.924C242.324 473.618 243.075 475.433 243.552 477.326C243.826 478.398 243.177 479.486 242.101 479.756C241.937 479.799 241.772 479.818 241.612 479.818Z" fill="#0C3B5E"/>
<path d="M239.593 493.785C239.241 493.785 238.889 493.694 238.568 493.503C237.618 492.936 237.305 491.707 237.872 490.757C238.682 489.395 239.288 487.94 239.672 486.426C239.938 485.35 241.013 484.693 242.101 484.974C243.177 485.244 243.826 486.332 243.552 487.404C243.075 489.297 242.324 491.112 241.315 492.806C240.939 493.436 240.274 493.785 239.593 493.785Z" fill="#0C3B5E"/>
<path d="M214.325 468.516C213.644 468.516 212.979 468.168 212.604 467.538C212.036 466.588 212.349 465.359 213.3 464.792C214.982 463.791 216.797 463.04 218.695 462.555C219.774 462.285 220.858 462.93 221.132 463.998C221.406 465.07 220.76 466.162 219.688 466.435C218.159 466.827 216.699 467.429 215.35 468.235C215.029 468.427 214.677 468.516 214.325 468.516Z" fill="#0C3B5E"/>
<path d="M233.157 468.516C232.805 468.516 232.453 468.426 232.132 468.235C230.779 467.429 229.32 466.822 227.798 466.435C226.726 466.161 226.076 465.074 226.35 464.002C226.62 462.93 227.692 462.265 228.784 462.554C230.681 463.035 232.496 463.79 234.182 464.792C235.133 465.359 235.446 466.588 234.879 467.538C234.503 468.168 233.838 468.516 233.157 468.516Z" fill="#0C3B5E"/>
<path d="M228.291 502.239C227.395 502.239 226.581 501.636 226.35 500.729C226.076 499.657 226.726 498.569 227.798 498.295C229.319 497.908 230.779 497.302 232.132 496.496C233.071 495.933 234.303 496.238 234.879 497.192C235.446 498.143 235.133 499.371 234.182 499.939C232.496 500.94 230.681 501.695 228.784 502.176C228.619 502.22 228.451 502.239 228.291 502.239Z" fill="#0C3B5E"/>
<path d="M219.192 502.239C219.027 502.239 218.863 502.219 218.695 502.176C216.797 501.691 214.982 500.94 213.3 499.939C212.349 499.371 212.036 498.143 212.604 497.192C213.171 496.238 214.403 495.933 215.35 496.496C216.7 497.302 218.159 497.904 219.688 498.295C220.76 498.569 221.406 499.661 221.132 500.733C220.901 501.637 220.087 502.239 219.192 502.239Z" fill="#0C3B5E"/>
<path d="M205.871 479.818C205.707 479.818 205.542 479.799 205.374 479.755C204.302 479.482 203.657 478.39 203.931 477.318C204.416 475.417 205.171 473.598 206.176 471.919C206.739 470.969 207.968 470.656 208.922 471.231C209.869 471.798 210.182 473.027 209.611 473.977C208.809 475.323 208.203 476.778 207.811 478.312C207.58 479.216 206.767 479.818 205.871 479.818Z" fill="#0C3B5E"/>
<path d="M223.742 495.916C222.005 495.916 220.311 495.591 218.707 494.946C215.19 493.44 212.663 490.913 211.285 487.705C210.519 485.799 210.194 484.105 210.194 482.365C210.194 480.632 210.519 478.937 211.164 477.33C212.666 473.817 215.194 471.289 218.401 469.912C219.407 469.466 220.592 469.94 221.03 470.961C221.469 471.978 220.999 473.155 219.982 473.589C217.752 474.548 215.925 476.375 214.967 478.605C214.431 479.947 214.2 481.144 214.2 482.364C214.2 483.593 214.431 484.782 214.881 485.905C215.925 488.354 217.752 490.181 219.982 491.139C222.677 492.219 225.04 492.129 227.282 491.229C228.397 490.756 229.23 490.232 229.981 489.578C231.073 488.639 231.949 487.442 232.52 486.12C233.056 484.782 233.287 483.593 233.287 482.364C233.287 481.144 233.056 479.947 232.606 478.816C231.949 477.283 231.077 476.089 229.989 475.154C229.238 474.501 228.405 473.977 227.501 473.593C226.496 473.159 225.893 471.947 226.308 470.937C226.719 469.928 227.716 469.368 228.761 469.775C228.78 469.783 228.953 469.858 228.972 469.866C230.365 470.46 231.55 471.207 232.611 472.123C234.148 473.445 235.392 475.143 236.198 477.025C236.969 478.938 237.293 480.632 237.293 482.365C237.293 484.106 236.969 485.799 236.323 487.399C235.392 489.582 234.148 491.276 232.607 492.61C231.542 493.534 230.353 494.277 229.074 494.821C227.176 495.591 225.483 495.916 223.742 495.916Z" fill="#0C3B5E"/>
<path d="M228.292 506.272H219.192C218.085 506.272 217.189 505.376 217.189 504.269V500.235C217.189 499.128 218.085 498.232 219.192 498.232C220.299 498.232 221.195 499.128 221.195 500.235V502.266H226.289V500.235C226.289 499.128 227.184 498.232 228.292 498.232C229.399 498.232 230.294 499.128 230.294 500.235V504.269C230.294 505.376 229.399 506.272 228.292 506.272Z" fill="#0C3B5E"/>
<path d="M228.292 466.497C227.184 466.497 226.289 465.602 226.289 464.494V462.464H221.195V464.494C221.195 465.602 220.299 466.497 219.192 466.497C218.085 466.497 217.189 465.602 217.189 464.494V460.461C217.189 459.354 218.085 458.458 219.192 458.458H228.292C229.399 458.458 230.294 459.354 230.294 460.461V464.494C230.294 465.602 229.399 466.497 228.292 466.497Z" fill="#0C3B5E"/>
<path d="M219.395 473.653C218.581 473.653 217.775 473.215 217.466 472.448C217.051 471.423 217.411 470.312 218.433 469.893C218.437 469.893 218.573 469.839 218.577 469.835C222.047 468.438 225.576 468.496 228.776 469.784C229.801 470.198 230.302 471.364 229.887 472.389C229.476 473.418 228.307 473.907 227.282 473.5C225.04 472.605 222.458 472.597 220.201 473.5C219.943 473.606 219.669 473.653 219.395 473.653Z" fill="#0C3B5E"/>
<path d="M205.871 488.918H201.837C200.73 488.918 199.834 488.022 199.834 486.915V477.816C199.834 476.708 200.73 475.812 201.837 475.812H205.871C206.978 475.812 207.874 476.708 207.874 477.816C207.874 478.923 206.978 479.819 205.871 479.819H203.84V484.912H205.871C206.978 484.912 207.874 485.808 207.874 486.915C207.874 488.022 206.978 488.918 205.871 488.918Z" fill="#0C3B5E"/>
<path d="M245.646 488.918H241.612C240.505 488.918 239.609 488.022 239.609 486.915C239.609 485.808 240.505 484.912 241.612 484.912H243.643V479.819H241.612C240.505 479.819 239.609 478.923 239.609 477.816C239.609 476.708 240.505 475.812 241.612 475.812H245.646C246.753 475.812 247.649 476.708 247.649 477.816V486.915C247.649 488.022 246.753 488.918 245.646 488.918Z" fill="#0C3B5E"/>
<path d="M207.893 474.952C207.381 474.952 206.869 474.756 206.477 474.365L203.621 471.509C202.839 470.727 202.839 469.459 203.621 468.677L210.053 462.245C210.835 461.463 212.103 461.463 212.885 462.245L215.741 465.097C216.524 465.879 216.524 467.147 215.741 467.929C214.959 468.712 213.691 468.712 212.909 467.929L211.469 466.494L207.87 470.093L209.31 471.533C210.092 472.315 210.092 473.582 209.31 474.365C208.918 474.756 208.406 474.952 207.893 474.952Z" fill="#0C3B5E"/>
<path d="M236.015 503.072C235.502 503.072 234.99 502.876 234.599 502.485L231.743 499.633C230.96 498.851 230.96 497.583 231.743 496.801C232.525 496.018 233.793 496.018 234.575 496.801L236.015 498.236L239.618 494.637L238.178 493.197C237.396 492.415 237.396 491.148 238.178 490.365C238.96 489.583 240.228 489.583 241.01 490.365L243.866 493.221C244.242 493.597 244.453 494.105 244.453 494.637C244.453 495.169 244.242 495.678 243.866 496.054L237.431 502.485C237.04 502.876 236.527 503.072 236.015 503.072Z" fill="#0C3B5E"/>
<path d="M239.594 474.952C239.082 474.952 238.569 474.756 238.178 474.365C237.396 473.582 237.396 472.315 238.178 471.533L239.618 470.093L236.015 466.494L234.575 467.929C233.793 468.712 232.525 468.712 231.743 467.929C230.96 467.147 230.96 465.879 231.743 465.097L234.599 462.245C235.381 461.463 236.649 461.463 237.431 462.245L243.867 468.677C244.242 469.052 244.453 469.561 244.453 470.093C244.453 470.625 244.242 471.134 243.867 471.509L241.011 474.365C240.619 474.756 240.106 474.952 239.594 474.952Z" fill="#0C3B5E"/>
<path d="M211.469 503.072C210.957 503.072 210.444 502.876 210.053 502.485L203.621 496.053C202.839 495.271 202.839 494.003 203.621 493.221L206.477 490.365C207.26 489.583 208.527 489.583 209.31 490.365C210.092 491.148 210.092 492.415 209.31 493.197L207.87 494.637L211.469 498.236L212.909 496.801C213.691 496.018 214.959 496.018 215.741 496.801C216.524 497.583 216.524 498.851 215.741 499.633L212.885 502.485C212.494 502.876 211.982 503.072 211.469 503.072Z" fill="#0C3B5E"/>
<path d="M196.717 412.135C196.114 412.135 195.52 411.865 195.125 411.345C194.452 410.468 194.624 409.209 195.504 408.54L200.261 404.909L196.682 400.211C196.009 399.335 196.181 398.075 197.061 397.406C197.93 396.737 199.193 396.897 199.866 397.785L204.662 404.076C204.983 404.499 205.128 405.031 205.053 405.555C204.983 406.083 204.705 406.56 204.283 406.881L197.929 411.724C197.57 412.002 197.143 412.135 196.717 412.135Z" fill="#0C3B5E"/>
<path d="M165.534 508.537C164.666 508.537 163.868 507.97 163.613 507.097L161.387 499.508C161.074 498.448 161.68 497.337 162.745 497.024L170.409 494.77C171.465 494.461 172.584 495.064 172.893 496.128C173.205 497.188 172.599 498.299 171.535 498.612L165.792 500.302L167.455 505.971C167.768 507.031 167.157 508.146 166.097 508.455C165.91 508.51 165.718 508.537 165.534 508.537Z" fill="#0C3B5E"/>
<path d="M192.057 509.144C183.04 509.144 174.12 506.863 166.269 502.552C165.299 502.02 164.942 500.8 165.474 499.833C166.006 498.859 167.235 498.511 168.193 499.039C176.863 503.8 187.132 505.705 196.795 504.931C197.925 504.876 198.864 505.662 198.951 506.765C199.04 507.869 198.219 508.835 197.116 508.921C195.445 509.054 193.775 509.144 192.057 509.144Z" fill="#0C3B5E"/>
<path d="M157.393 419.415C156.849 419.415 156.309 419.196 155.914 418.762C155.167 417.944 155.226 416.676 156.043 415.933C165.906 406.943 178.694 401.99 192.058 401.99C194.359 401.99 196.769 402.155 199.221 402.475C200.317 402.62 201.091 403.629 200.947 404.725C200.802 405.824 199.769 406.583 198.697 406.45C196.385 406.145 194.214 405.996 192.058 405.996C179.696 405.996 167.866 410.577 158.743 418.89C158.359 419.243 157.874 419.415 157.393 419.415Z" fill="#0C3B5E"/>
</svg>
