<svg width="58" height="57" viewBox="0 0 58 57" fill="none" xmlns="http://www.w3.org/2000/svg">
<circle cx="29.0004" cy="28.5995" r="19.5" transform="rotate(43.7212 29.0004 28.5995)" stroke="white"/>
<g clip-path="url(#clip0_18807_10266)">
<path d="M35.2805 21.5662C35.0855 21.5703 34.9308 21.7321 34.9358 21.9267L35.2052 34.0462L22.561 21.9542C22.4202 21.8195 22.1964 21.825 22.0623 21.9651C21.9281 22.1055 21.9327 22.3293 22.0735 22.464L34.7177 34.556L22.5992 34.8266C22.4051 34.8311 22.2504 34.9929 22.2545 35.187C22.2591 35.3816 22.4209 35.5363 22.615 35.5318L35.5851 35.2422L35.9386 35.2346L35.931 34.8828C35.931 34.8828 35.931 34.8828 35.9305 34.8811L35.641 21.9109C35.6356 21.7173 35.4742 21.563 35.2805 21.5662Z" fill="white" stroke="white"/>
</g>
<defs>
<clipPath id="clip0_18807_10266">
<rect width="19.2" height="19.2" fill="white" transform="translate(15.4277 28.9023) rotate(-46.2788)"/>
</clipPath>
</defs>
</svg>
