<svg width="28" height="37" viewBox="0 0 28 37" fill="none" xmlns="http://www.w3.org/2000/svg">
<path d="M14.9906 35.4301L14.9722 35.4334L14.8539 35.4917L14.8206 35.4984L14.7972 35.4917L14.6789 35.4334C14.6611 35.4278 14.6478 35.4306 14.6389 35.4417L14.6322 35.4584L14.6039 36.1717L14.6122 36.2051L14.6289 36.2267L14.8022 36.3501L14.8272 36.3567L14.8472 36.3501L15.0206 36.2267L15.0406 36.2001L15.0472 36.1717L15.0189 35.4601C15.0145 35.4423 15.005 35.4323 14.9906 35.4301ZM15.4322 35.2417L15.4106 35.2451L15.1022 35.4001L15.0856 35.4167L15.0806 35.4351L15.1106 36.1517L15.1189 36.1717L15.1322 36.1834L15.4672 36.3384C15.4883 36.3439 15.5045 36.3395 15.5156 36.3251L15.5222 36.3017L15.4656 35.2784C15.46 35.2584 15.4489 35.2462 15.4322 35.2417ZM14.2406 35.2451C14.2332 35.2406 14.2244 35.2392 14.2161 35.241C14.2077 35.2429 14.2003 35.2479 14.1956 35.2551L14.1856 35.2784L14.1289 36.3017C14.13 36.3217 14.1395 36.3351 14.1572 36.3417L14.1822 36.3384L14.5172 36.1834L14.5339 36.1701L14.5406 36.1517L14.5689 35.4351L14.5639 35.4151L14.5472 35.3984L14.2406 35.2451Z" fill="#EF6C33"/>
<path d="M15.668 30C16.0928 30.0005 16.5014 30.1631 16.8102 30.4547C17.1191 30.7464 17.305 31.1449 17.3299 31.569C17.3548 31.9931 17.2168 32.4106 16.9442 32.7364C16.6715 33.0621 16.2848 33.2715 15.863 33.3217L15.668 33.3333H12.3346C11.9098 33.3329 11.5012 33.1702 11.1924 32.8786C10.8835 32.587 10.6976 32.1884 10.6727 31.7643C10.6478 31.3403 10.7858 30.9227 11.0584 30.5969C11.3311 30.2712 11.7178 30.0618 12.1396 30.0117L12.3346 30H15.668ZM14.0013 0C21.3513 0 27.3346 5.905 27.3346 13.2217C27.3346 18.2317 24.798 21.8817 22.7013 24.045L22.228 24.5167L21.778 24.9367L21.358 25.3033L20.808 25.7533L20.2613 26.16C19.8596 26.4433 19.5896 26.8583 19.3446 27.29L19.003 27.8967C18.6063 28.58 18.1413 29.1667 17.1563 29.1667H10.8463C9.86297 29.1667 9.3963 28.5817 8.99963 27.8967L8.80297 27.55C8.5163 27.03 8.22297 26.5 7.7413 26.16L7.35464 25.875L7.02297 25.6167L6.64464 25.3033L6.22464 24.9367L5.77464 24.5167L5.29963 24.045C3.20464 21.8817 0.667969 18.2317 0.667969 13.2217C0.667969 5.905 6.6513 0 14.0013 0ZM16.8463 7.155C16.5593 6.86804 16.1775 6.69565 15.7724 6.67018C15.3674 6.64472 14.967 6.76791 14.6463 7.01667L14.4896 7.155L11.168 10.4767C10.8782 10.7665 10.7041 11.152 10.6783 11.5611C10.6525 11.9701 10.7769 12.3744 11.028 12.6983L11.168 12.8567L13.3113 15L11.1563 17.155C10.8574 17.4549 10.6838 17.8574 10.6709 18.2806C10.658 18.7039 10.8067 19.1162 11.0867 19.4338C11.3668 19.7514 11.7572 19.9505 12.1788 19.9907C12.6003 20.0308 13.0213 19.909 13.3563 19.65L13.513 19.5117L16.8346 16.19C17.1244 15.9002 17.2985 15.5146 17.3243 15.1056C17.3501 14.6966 17.2257 14.2922 16.9746 13.9683L16.8346 13.81L14.6913 11.6667L16.8463 9.51167C17.1588 9.19912 17.3343 8.77527 17.3343 8.33333C17.3343 7.89139 17.1588 7.46755 16.8463 7.155Z" fill="#EF6C33"/>
</svg>
