<svg width="65" height="65" viewBox="0 0 65 65" fill="none" xmlns="http://www.w3.org/2000/svg">
<rect x="0.666016" y="0.5" width="64" height="64" rx="32" fill="#FFDFD2"/>
<path d="M37.916 25.0759V23.5C37.916 23.1022 37.758 22.7206 37.4767 22.4393C37.1954 22.158 36.8138 22 36.416 22H28.916C28.5182 22 28.1367 22.158 27.8554 22.4393C27.5741 22.7206 27.416 23.1022 27.416 23.5V25.0759C26.5696 25.2496 25.8089 25.7099 25.2624 26.3793C24.7159 27.0486 24.4169 27.8859 24.416 28.75V39.25C24.416 40.2446 24.8111 41.1984 25.5144 41.9016C26.2176 42.6049 27.1715 43 28.166 43H37.166C38.1606 43 39.1144 42.6049 39.8177 41.9016C40.5209 41.1984 40.916 40.2446 40.916 39.25V28.75C40.9151 27.8859 40.6162 27.0486 40.0696 26.3793C39.5231 25.7099 38.7625 25.2496 37.916 25.0759ZM31.916 23.5H33.416V25H31.916V23.5ZM28.916 23.5H30.416V25H28.916V23.5ZM33.416 37.75V38.5C33.416 38.6989 33.337 38.8897 33.1963 39.0303C33.0557 39.171 32.8649 39.25 32.666 39.25C32.4671 39.25 32.2763 39.171 32.1357 39.0303C31.995 38.8897 31.916 38.6989 31.916 38.5V37.75H31.166C30.9671 37.75 30.7763 37.671 30.6357 37.5303C30.495 37.3897 30.416 37.1989 30.416 37C30.416 36.8011 30.495 36.6103 30.6357 36.4697C30.7763 36.329 30.9671 36.25 31.166 36.25H33.416C33.6149 36.25 33.8057 36.171 33.9463 36.0303C34.087 35.8897 34.166 35.6989 34.166 35.5C34.166 35.3011 34.087 35.1103 33.9463 34.9697C33.8057 34.829 33.6149 34.75 33.416 34.75H31.916C31.3193 34.75 30.747 34.5129 30.325 34.091C29.9031 33.669 29.666 33.0967 29.666 32.5C29.666 31.9033 29.9031 31.331 30.325 30.909C30.747 30.4871 31.3193 30.25 31.916 30.25V29.5C31.916 29.3011 31.995 29.1103 32.1357 28.9697C32.2763 28.829 32.4671 28.75 32.666 28.75C32.8649 28.75 33.0557 28.829 33.1963 28.9697C33.337 29.1103 33.416 29.3011 33.416 29.5V30.25H34.166C34.3649 30.25 34.5557 30.329 34.6963 30.4697C34.837 30.6103 34.916 30.8011 34.916 31C34.916 31.1989 34.837 31.3897 34.6963 31.5303C34.5557 31.671 34.3649 31.75 34.166 31.75H31.916C31.7171 31.75 31.5263 31.829 31.3857 31.9697C31.245 32.1103 31.166 32.3011 31.166 32.5C31.166 32.6989 31.245 32.8897 31.3857 33.0303C31.5263 33.171 31.7171 33.25 31.916 33.25H33.416C34.0128 33.25 34.585 33.4871 35.007 33.909C35.429 34.331 35.666 34.9033 35.666 35.5C35.666 36.0967 35.429 36.669 35.007 37.091C34.585 37.5129 34.0128 37.75 33.416 37.75ZM36.416 25H34.916V23.5H36.416V25Z" fill="black"/>
</svg>
