<svg width="65" height="65" viewBox="0 0 65 65" fill="none" xmlns="http://www.w3.org/2000/svg">
<rect x="0.333984" y="0.5" width="64" height="64" rx="32" fill="#FFDFD2"/>
<g clip-path="url(#clip0_48_11911)">
<path d="M36.2646 39.04C36.1648 38.795 35.9719 38.5996 35.7283 38.4965C35.4846 38.3934 35.21 38.3911 34.9646 38.49C33.2797 39.1649 31.3996 39.1649 29.7146 38.49C29.5932 38.4401 29.4631 38.4146 29.3317 38.415C29.2004 38.4154 29.0705 38.4416 28.9493 38.4922C28.8281 38.5428 28.7181 38.6168 28.6255 38.7099C28.5329 38.8031 28.4595 38.9135 28.4096 39.035C28.3597 39.1565 28.3343 39.2866 28.3346 39.4179C28.335 39.5492 28.3613 39.6792 28.4119 39.8004C28.4625 39.9216 28.5365 40.0316 28.6296 40.1242C28.7227 40.2168 28.8332 40.2901 28.9546 40.34C31.1224 41.2184 33.5469 41.2184 35.7146 40.34C35.9596 40.2401 36.1551 40.0473 36.2582 39.8036C36.3613 39.5599 36.3636 39.2854 36.2646 39.04ZM36.2746 26.21C37.2181 26.8525 37.9902 27.7159 38.5235 28.7251C39.0568 29.7343 39.3353 30.8586 39.3346 32C39.3324 32.294 39.3157 32.5877 39.2846 32.88C39.2689 33.0113 39.2791 33.1445 39.3148 33.2718C39.3505 33.3992 39.411 33.5183 39.4927 33.6223C39.5744 33.7263 39.6758 33.8131 39.7911 33.878C39.9064 33.9428 40.0333 33.9842 40.1646 34C40.296 34.0158 40.4291 34.0055 40.5565 33.9698C40.6838 33.9341 40.8029 33.8737 40.9069 33.792C41.0109 33.7102 41.0978 33.6088 41.1626 33.4935C41.2274 33.3783 41.2689 33.2513 41.2846 33.12C41.3275 32.7483 41.3442 32.374 41.3346 32C41.3353 30.5335 40.9776 29.0891 40.2926 27.7925C39.6077 26.4958 38.6163 25.3861 37.4046 24.56C37.2964 24.4839 37.1741 24.43 37.0448 24.4015C36.9156 24.373 36.7819 24.3705 36.6517 24.394C36.5215 24.4176 36.3972 24.4667 36.2861 24.5386C36.175 24.6106 36.0793 24.7038 36.0045 24.813C35.9297 24.9222 35.8773 25.0452 35.8504 25.1748C35.8235 25.3044 35.8226 25.438 35.8477 25.568C35.8729 25.6979 35.9235 25.8216 35.9968 25.9318C36.0701 26.042 36.1645 26.1366 36.2746 26.21ZM24.5146 33.99C24.7769 33.9575 25.0156 33.8225 25.1786 33.6145C25.3417 33.4065 25.4157 33.1424 25.3846 32.88C25.3703 32.5868 25.3703 32.2932 25.3846 32C25.3784 30.863 25.6492 29.7416 26.1737 28.7328C26.6981 27.724 27.4604 26.8581 28.3946 26.21C28.5048 26.1366 28.5992 26.042 28.6725 25.9318C28.7458 25.8216 28.7964 25.6979 28.8216 25.568C28.8467 25.438 28.8458 25.3044 28.8189 25.1748C28.792 25.0452 28.7396 24.9222 28.6648 24.813C28.59 24.7038 28.4943 24.6106 28.3832 24.5386C28.2721 24.4667 28.1478 24.4176 28.0176 24.394C27.8873 24.3705 27.7537 24.373 27.6245 24.4015C27.4952 24.43 27.3729 24.4839 27.2646 24.56C26.053 25.3861 25.0616 26.4958 24.3767 27.7925C23.6917 29.0891 23.334 30.5335 23.3346 32C23.3317 32.3745 23.3551 32.7488 23.4046 33.12C23.4372 33.3823 23.5722 33.621 23.7802 33.784C23.9882 33.947 24.2522 34.0211 24.5146 33.99ZM36.0046 30C36.0426 30.0012 36.0804 29.9937 36.115 29.9781C36.1497 29.9625 36.1803 29.9392 36.2046 29.91C36.227 29.8803 36.2429 29.8463 36.2515 29.8102C36.2601 29.7741 36.2612 29.7366 36.2546 29.7C36.0526 28.8013 35.5509 27.998 34.8321 27.422C34.1132 26.8461 33.2198 26.5317 32.2986 26.5305C31.3775 26.5294 30.4833 26.8415 29.763 27.4156C29.0426 27.9898 28.539 28.7918 28.3346 29.69C28.3179 29.7242 28.3091 29.7619 28.3091 29.8C28.3091 29.8381 28.3179 29.8758 28.3346 29.91C28.3839 29.9635 28.452 29.9958 28.5246 30H36.0046ZM29.8346 23C29.8346 23.663 30.098 24.2989 30.5669 24.7678C31.0357 25.2366 31.6716 25.5 32.3346 25.5C32.9977 25.5 33.6336 25.2366 34.1024 24.7678C34.5713 24.2989 34.8346 23.663 34.8346 23C34.8346 22.337 34.5713 21.7011 34.1024 21.2322C33.6336 20.7634 32.9977 20.5 32.3346 20.5C31.6716 20.5 31.0357 20.7634 30.5669 21.2322C30.098 21.7011 29.8346 22.337 29.8346 23ZM40.3346 41C39.4017 40.9926 38.4948 41.3068 37.7663 41.8895C37.0378 42.4723 36.5322 43.2882 36.3346 44.2C36.3273 44.2359 36.328 44.273 36.3365 44.3086C36.3451 44.3443 36.3615 44.3776 36.3844 44.4062C36.4073 44.4348 36.4362 44.4581 36.4691 44.4743C36.5019 44.4905 36.538 44.4993 36.5746 44.5H44.0346C44.1103 44.4963 44.1817 44.4642 44.2346 44.41C44.2495 44.3752 44.2572 44.3378 44.2572 44.3C44.2572 44.2622 44.2495 44.2248 44.2346 44.19C44.0388 43.2968 43.5472 42.4958 42.8393 41.9168C42.1315 41.3379 41.249 41.0148 40.3346 41ZM37.8646 37.5C37.8646 38.163 38.128 38.7989 38.5969 39.2678C39.0657 39.7366 39.7016 40 40.3646 40C41.0277 40 41.6636 39.7366 42.1324 39.2678C42.6013 38.7989 42.8646 38.163 42.8646 37.5C42.8646 36.837 42.6013 36.2011 42.1324 35.7322C41.6636 35.2634 41.0277 35 40.3646 35C39.7016 35 39.0657 35.2634 38.5969 35.7322C38.128 36.2011 37.8646 36.837 37.8646 37.5ZM24.3346 41C23.4017 40.9926 22.4948 41.3068 21.7663 41.8895C21.0378 42.4723 20.5322 43.2882 20.3346 44.2C20.32 44.2331 20.3125 44.2688 20.3125 44.305C20.3125 44.3412 20.32 44.3769 20.3346 44.41C20.3669 44.4569 20.4142 44.4914 20.4688 44.5078C20.5234 44.5242 20.5819 44.5214 20.6346 44.5H28.0846C28.1232 44.5011 28.1615 44.4933 28.1965 44.4772C28.2315 44.4611 28.2624 44.4371 28.2866 44.407C28.3108 44.377 28.3277 44.3418 28.3361 44.3042C28.3444 44.2665 28.3439 44.2274 28.3346 44.19C28.1334 43.281 27.6265 42.4684 26.8986 41.8879C26.1706 41.3074 25.2657 40.994 24.3346 41ZM21.9046 37.5C21.9046 38.163 22.168 38.7989 22.6369 39.2678C23.1057 39.7366 23.7416 40 24.4046 40C25.0677 40 25.7036 39.7366 26.1724 39.2678C26.6413 38.7989 26.9046 38.163 26.9046 37.5C26.9046 36.837 26.6413 36.2011 26.1724 35.7322C25.7036 35.2634 25.0677 35 24.4046 35C23.7416 35 23.1057 35.2634 22.6369 35.7322C22.168 36.2011 21.9046 36.837 21.9046 37.5Z" fill="black"/>
</g>
<defs>
<clipPath id="clip0_48_11911">
<rect width="24" height="24" fill="white" transform="translate(20.334 20.5)"/>
</clipPath>
</defs>
</svg>
