<svg width="40" height="32" viewBox="0 0 40 32" fill="none" xmlns="http://www.w3.org/2000/svg">
<path d="M9.7875 2.89489C10.2812 1.90739 9.88125 0.707393 8.89375 0.213643C7.90625 -0.280107 6.70625 0.119893 6.2125 1.10739L0.84375 11.8386C0.2875 12.9511 0 14.1761 0 15.4199V16.0011C0 20.4199 3.58125 24.0011 8 24.0011H13V23.9824C15.2 23.8136 17.0875 22.5574 18.1313 20.7511C18.6812 19.7949 18.3562 18.5699 17.4 18.0199C16.4438 17.4699 15.2188 17.7949 14.6687 18.7511C14.2312 19.5011 13.425 20.0011 12.5 20.0011C11.1187 20.0011 10 18.8824 10 17.5011C10 16.1199 11.1187 15.0011 12.5 15.0011C13.425 15.0011 14.2312 15.5011 14.6687 16.2511C15.2188 17.2074 16.4438 17.5324 17.4 16.9824C18.3562 16.4324 18.6812 15.2074 18.1313 14.2511C17.3313 12.8699 16.0312 11.8074 14.4812 11.3074L19.5312 9.93239C20.5938 9.64489 21.225 8.54489 20.9375 7.47614C20.65 6.40739 19.55 5.78239 18.4813 6.06989L12.1875 7.78864L17.2875 3.53864C18.1375 2.83239 18.25 1.56989 17.5438 0.719893C16.8375 -0.130107 15.5688 -0.242607 14.7188 0.463643L8.35 5.76989L9.7875 2.89489ZM30.2125 29.1074C29.7188 30.0949 30.1188 31.2949 31.1063 31.7886C32.0938 32.2824 33.2937 31.8824 33.7875 30.8949L39.1562 20.1636C39.7125 19.0511 40 17.8261 40 16.5886V16.0074C40 11.5886 36.4188 8.00739 32 8.00739H27V8.02614C24.8 8.19489 22.9125 9.45114 21.8687 11.2574C21.3125 12.2136 21.6438 13.4386 22.6 13.9886C23.5562 14.5386 24.7812 14.2136 25.3312 13.2574C25.7687 12.5074 26.575 12.0074 27.5 12.0074C28.8813 12.0074 30 13.1261 30 14.5074C30 15.8886 28.8813 17.0074 27.5 17.0074C26.575 17.0074 25.7687 16.5074 25.3312 15.7574C24.775 14.8011 23.5562 14.4761 22.6 15.0261C21.6438 15.5761 21.3188 16.8011 21.8687 17.7574C22.6687 19.1386 23.9688 20.2011 25.5187 20.7011L20.4688 22.0761C19.4 22.3636 18.775 23.4636 19.0625 24.5324C19.35 25.6011 20.45 26.2261 21.5187 25.9386L27.8125 24.2199L22.7125 28.4699C21.8625 29.1761 21.75 30.4386 22.4562 31.2886C23.1625 32.1386 24.425 32.2511 25.275 31.5449L31.6437 26.2386L30.2062 29.1136L30.2125 29.1074Z" fill="#EF6C33"/>
</svg>
