<svg width="64" height="65" viewBox="0 0 64 65" fill="none" xmlns="http://www.w3.org/2000/svg">
<rect y="0.5" width="64" height="64" rx="32" fill="#FFDFD2"/>
<path d="M31.5 22.5C30.0413 22.5 28.6424 23.0795 27.6109 24.1109C26.5795 25.1424 26 26.5413 26 28C26 29.4587 26.5795 30.8576 27.6109 31.8891C28.6424 32.9205 30.0413 33.5 31.5 33.5C32.9587 33.5 34.3576 32.9205 35.3891 31.8891C36.4205 30.8576 37 29.4587 37 28C37 26.5413 36.4205 25.1424 35.3891 24.1109C34.3576 23.0795 32.9587 22.5 31.5 22.5ZM38 33C37.2777 33 36.5625 33.1423 35.8952 33.4187C35.228 33.6951 34.6216 34.1002 34.1109 34.6109C33.6002 35.1216 33.1951 35.728 32.9187 36.3952C32.6423 37.0625 32.5 37.7777 32.5 38.5C32.5 39.2223 32.6423 39.9375 32.9187 40.6048C33.1951 41.2721 33.6002 41.8784 34.1109 42.3891C34.6216 42.8998 35.228 43.3049 35.8952 43.5813C36.5625 43.8577 37.2777 44 38 44C39.4587 44 40.8576 43.4205 41.8891 42.3891C42.9205 41.3576 43.5 39.9587 43.5 38.5C43.5 37.0413 42.9205 35.6424 41.8891 34.6109C40.8576 33.5795 39.4587 33 38 33ZM39 40.914L37 38.914V36.252H39V38.086L40.414 39.5L39 40.914Z" fill="black"/>
<path d="M32.255 34.5C31.4361 35.673 30.9979 37.0695 31 38.5C31 39.987 31.464 41.366 32.255 42.5H22V40.5C22 38.9087 22.6321 37.3826 23.7574 36.2574C24.8826 35.1321 26.4087 34.5 28 34.5H32.255Z" fill="black"/>
</svg>
