<svg width="80" height="80" viewBox="0 0 80 80" fill="none" xmlns="http://www.w3.org/2000/svg">
<rect width="80" height="80" rx="14.7368" fill="white"/>
<g clip-path="url(#clip0_18953_3458)">
<mask id="path-2-inside-1_18953_3458" fill="white">
<path d="M30.7127 26.4269V30.75H29.9579C27.9744 30.75 26.4258 32.3381 26.4258 34.2822H19.9991V32.0265C20.8249 31.7267 21.4315 30.9414 21.4275 29.9953C21.4221 28.8204 20.489 27.8555 19.2807 27.8554C18.0388 27.8552 17.1407 28.8204 17.1407 29.9953C17.1407 30.9199 17.739 31.731 18.5664 32.0292L18.5691 34.9993C18.5707 35.3915 18.8883 35.7091 19.2806 35.7107H26.4257V38.5691L24.2775 38.5679C23.3688 38.5733 23.2986 39.9938 24.2748 39.9976H26.4259V42.8559H21.323C21.0249 42.0283 20.2054 41.4274 19.2807 41.4274C18.1058 41.4274 17.1354 42.3925 17.1408 43.5674C17.1462 44.787 18.1058 45.713 19.2807 45.713C20.2038 45.713 21.0166 45.1111 21.316 44.2845H26.4259V47.1429L24.2854 47.1347C23.365 47.1401 23.3342 48.5685 24.2746 48.5723H26.4258V51.4237H19.2806C18.8856 51.4253 18.5669 51.7472 18.5691 52.1421V55.1136C17.7417 55.4105 17.1406 56.2146 17.1406 57.1392C17.1406 58.3588 18.1057 59.2861 19.2806 59.2861C20.4555 59.2861 21.4331 58.3532 21.4274 57.1392C21.422 56.2167 20.8304 55.4037 20.0046 55.1053L19.9992 52.8537H26.4259C26.4259 54.8257 28.0139 56.3859 29.9581 56.3859H30.7127V59.9976L28.4515 59.9868C28.1548 59.1591 27.3507 58.5694 26.4259 58.5694C25.251 58.5694 24.2901 59.5009 24.2846 60.7093C24.2792 61.9122 25.251 62.8562 26.4259 62.8562C27.349 62.8562 28.1409 62.2697 28.4389 61.4431L31.4242 61.4269C31.8208 61.4284 32.1427 61.1064 32.1412 60.7098V56.3867H34.9981V57.8585C34.9981 58.8117 36.428 58.8117 36.428 57.8585V56.3867H39.2794L39.2848 58.6703C38.4604 58.9688 37.8564 59.7873 37.8564 60.7098C37.8564 61.8848 38.8214 62.8459 39.9963 62.8567C41.2047 62.8675 42.1376 61.8848 42.1376 60.7098C42.1376 59.785 41.5409 58.9586 40.7133 58.6619L40.7079 56.3867H43.5662V57.8585C43.5446 58.8322 45.0163 58.8322 44.9947 57.8585V56.3867H47.8531V60.7098C47.8516 61.1064 48.1735 61.4284 48.5701 61.4269H51.5356C51.835 62.2536 52.6453 62.8567 53.5684 62.8567C54.7433 62.8567 55.7083 61.9084 55.7083 60.7098C55.7083 59.5151 54.7433 58.5699 53.5684 58.5699C52.6436 58.5699 51.8297 59.1708 51.5317 59.9984H49.2816V56.3867H50.0349C52.0348 56.3867 53.5685 54.7987 53.5685 52.8545H59.9952V55.1114C59.1676 55.4082 58.5667 56.2153 58.5667 57.14C58.5667 58.3149 59.5317 59.2985 60.7066 59.2869C61.9131 59.2761 62.8535 58.3149 62.8535 57.14C62.8535 56.2169 62.2543 55.4108 61.4276 55.1128L61.4249 52.1431C61.4273 51.7459 61.1051 51.4231 60.7079 51.4246H53.5697V48.5732H55.7208C56.6945 48.5948 56.6945 47.1231 55.7208 47.1447H53.5697V44.2863H58.6768C58.9747 45.113 59.7849 45.7267 60.7079 45.7149C61.942 45.6987 62.8548 44.7442 62.8548 43.5693C62.8548 42.3944 61.9183 41.4255 60.7079 41.4293C59.7608 41.432 58.9846 42.0274 58.6879 42.855L53.5697 42.8577V39.9993H55.7208C56.6945 40.0209 56.6945 38.5492 55.7208 38.5708H53.5698V35.7125H60.708C61.1025 35.714 61.4234 35.3955 61.425 35.0011V32.0338C62.2517 31.7345 62.8549 30.9202 62.8549 29.9971C62.8549 28.8222 61.9105 27.8572 60.708 27.8572C59.533 27.8572 58.568 28.8222 58.568 29.9971C58.568 30.9219 59.169 31.7371 59.9965 32.0352V34.284H53.5698C53.5698 32.3399 52.0585 30.7518 50.0363 30.7518H49.2816V26.4287C49.2816 21.2181 45.1281 17.1435 39.9964 17.1426C34.8648 17.1417 30.7127 21.2537 30.7127 26.4269ZM39.9963 18.5701C44.3613 18.5701 47.853 22.1408 47.853 26.4269V30.75H44.9946V26.4269C44.9946 23.5589 42.7538 21.4285 39.9963 21.4285C37.2389 21.4285 34.998 23.5589 34.998 26.4269V30.75H32.1411V26.4269C32.1411 22.1724 35.6314 18.5701 39.9963 18.5701ZM39.9963 22.857C41.9872 22.857 43.5661 24.5308 43.5661 26.4269V30.75H36.4279V26.4269C36.4279 24.5308 38.0055 22.857 39.9963 22.857ZM19.2807 29.2838C19.6836 29.2838 20.007 29.624 19.9991 29.9953C19.991 30.3785 19.6836 30.7137 19.2807 30.7137C18.8777 30.7137 18.5692 30.3706 18.5692 29.9953C18.5692 29.62 18.8777 29.2838 19.2807 29.2838ZM60.7064 29.2838C61.1094 29.2838 61.4235 29.6161 61.4235 29.9953C61.4235 30.3982 61.1094 30.7137 60.7064 30.7137C60.3035 30.7137 59.995 30.3785 59.995 29.9953C59.995 29.6161 60.3035 29.2838 60.7064 29.2838ZM29.9579 32.1785H50.0347C51.1458 32.1785 52.1398 33.1047 52.1398 34.2822C52.129 40.6828 52.1393 47.3452 52.1398 52.8526C52.1614 53.885 51.2121 54.9563 50.0347 54.9563H29.9579C28.7805 54.9563 27.8543 53.9687 27.8543 52.8526V34.2822C27.8543 33.1047 28.8279 32.1785 29.9579 32.1785ZM39.7703 33.6071L31.1967 36.4654C30.9076 36.564 30.7131 36.8351 30.7127 37.1406C30.7127 43.3797 32.9364 47.5045 35.178 50.0263C37.4197 52.5482 39.7229 53.5111 39.7229 53.5111C39.8984 53.584 40.0957 53.584 40.2711 53.5111C40.2711 53.5111 42.5745 52.5482 44.816 50.0263C47.0577 47.5045 49.2814 43.3797 49.2814 37.1406C49.2802 36.8337 49.0833 36.5619 48.7918 36.4654L40.2237 33.607C40.0385 33.5333 39.8591 33.5828 39.7703 33.6071ZM39.9963 35.0369L47.7679 37.6302C47.6364 43.196 45.7201 46.8553 43.7447 49.0777C41.8398 51.2207 40.2393 51.8754 39.9963 51.9821C39.7539 51.8755 38.1474 51.2208 36.2424 49.0777C34.267 46.8553 32.356 43.196 32.2248 37.6302L39.9963 35.0369ZM39.9963 37.1406C38.0325 37.1406 36.4279 38.7452 36.4279 40.709V40.7144C36.4293 41.7351 37.1145 42.5192 37.8565 43.1878V47.1426C37.8565 48.3843 38.8216 49.2826 39.9963 49.2826C41.171 49.2826 42.1377 48.3732 42.1377 47.1426V43.1878C42.851 42.4855 43.551 41.9798 43.5661 40.7144V40.709C43.5661 38.7451 41.9602 37.1406 39.9963 37.1406ZM39.9963 38.5691C41.1882 38.5691 42.1377 39.5172 42.1377 40.709C42.1367 41.4747 41.7294 42.1829 41.0663 42.5658C40.8455 42.6927 40.7088 42.9276 40.7078 43.1824V47.1429C40.7078 47.5174 40.4044 47.8543 39.9963 47.8543C39.5883 47.8543 39.2793 47.5174 39.2793 47.1429V43.1824C39.2795 42.9289 39.1449 42.6941 38.9264 42.5658C38.2633 42.1829 37.8574 41.4747 37.8565 40.709C37.8565 39.5172 38.8045 38.5691 39.9963 38.5691ZM19.2807 42.8559C19.6389 42.8613 19.9991 43.1645 19.9991 43.5674C19.9991 43.9704 19.6278 44.2906 19.2807 44.2845C18.9113 44.2791 18.5692 43.9704 18.5692 43.5674C18.5692 43.1645 18.928 42.8496 19.2807 42.8559ZM60.7064 42.8559C61.1094 42.8586 61.4235 43.1645 61.4235 43.5674C61.4235 43.9704 61.1094 44.2845 60.7064 44.2845C60.3351 44.2764 59.995 43.9704 59.995 43.5674C59.995 43.1645 60.3272 42.852 60.7064 42.8559ZM19.2807 56.4267C19.6501 56.4321 19.9991 56.7352 19.9991 57.1381C19.9991 57.541 19.6441 57.8735 19.2807 57.8565C18.9224 57.8403 18.5692 57.541 18.5692 57.1381C18.5692 56.7352 18.928 56.4211 19.2807 56.4267ZM60.7064 56.4267C61.1094 56.4267 61.4235 56.7589 61.4235 57.1381C61.4235 57.5213 61.1094 57.8565 60.7064 57.8565C60.3035 57.8565 59.9989 57.5173 59.995 57.1381C59.9923 56.7589 60.3035 56.4267 60.7064 56.4267ZM26.4258 59.9965C26.8287 60.0019 27.1428 60.3496 27.1428 60.7079C27.1428 61.0718 26.8288 61.425 26.4258 61.425C26.0229 61.425 25.7144 61.1108 25.7144 60.7079C25.7144 60.305 26.0564 59.9909 26.4258 59.9965ZM39.9963 59.9965C40.3993 59.9965 40.7078 60.305 40.7078 60.7079C40.7078 61.1108 40.3993 61.425 39.9963 61.425C39.5934 61.425 39.2793 61.1108 39.2793 60.7079C39.2793 60.305 39.5934 59.9965 39.9963 59.9965ZM53.5683 59.9965C53.9712 59.9965 54.2797 60.3287 54.2797 60.7079C54.2797 61.1108 53.9712 61.425 53.5683 61.425C53.1653 61.425 52.8505 61.0871 52.8512 60.7079C52.8519 60.3681 53.1653 59.9965 53.5683 59.9965Z"/>
</mask>
<path d="M30.7127 26.4269V30.75H29.9579C27.9744 30.75 26.4258 32.3381 26.4258 34.2822H19.9991V32.0265C20.8249 31.7267 21.4315 30.9414 21.4275 29.9953C21.4221 28.8204 20.489 27.8555 19.2807 27.8554C18.0388 27.8552 17.1407 28.8204 17.1407 29.9953C17.1407 30.9199 17.739 31.731 18.5664 32.0292L18.5691 34.9993C18.5707 35.3915 18.8883 35.7091 19.2806 35.7107H26.4257V38.5691L24.2775 38.5679C23.3688 38.5733 23.2986 39.9938 24.2748 39.9976H26.4259V42.8559H21.323C21.0249 42.0283 20.2054 41.4274 19.2807 41.4274C18.1058 41.4274 17.1354 42.3925 17.1408 43.5674C17.1462 44.787 18.1058 45.713 19.2807 45.713C20.2038 45.713 21.0166 45.1111 21.316 44.2845H26.4259V47.1429L24.2854 47.1347C23.365 47.1401 23.3342 48.5685 24.2746 48.5723H26.4258V51.4237H19.2806C18.8856 51.4253 18.5669 51.7472 18.5691 52.1421V55.1136C17.7417 55.4105 17.1406 56.2146 17.1406 57.1392C17.1406 58.3588 18.1057 59.2861 19.2806 59.2861C20.4555 59.2861 21.4331 58.3532 21.4274 57.1392C21.422 56.2167 20.8304 55.4037 20.0046 55.1053L19.9992 52.8537H26.4259C26.4259 54.8257 28.0139 56.3859 29.9581 56.3859H30.7127V59.9976L28.4515 59.9868C28.1548 59.1591 27.3507 58.5694 26.4259 58.5694C25.251 58.5694 24.2901 59.5009 24.2846 60.7093C24.2792 61.9122 25.251 62.8562 26.4259 62.8562C27.349 62.8562 28.1409 62.2697 28.4389 61.4431L31.4242 61.4269C31.8208 61.4284 32.1427 61.1064 32.1412 60.7098V56.3867H34.9981V57.8585C34.9981 58.8117 36.428 58.8117 36.428 57.8585V56.3867H39.2794L39.2848 58.6703C38.4604 58.9688 37.8564 59.7873 37.8564 60.7098C37.8564 61.8848 38.8214 62.8459 39.9963 62.8567C41.2047 62.8675 42.1376 61.8848 42.1376 60.7098C42.1376 59.785 41.5409 58.9586 40.7133 58.6619L40.7079 56.3867H43.5662V57.8585C43.5446 58.8322 45.0163 58.8322 44.9947 57.8585V56.3867H47.8531V60.7098C47.8516 61.1064 48.1735 61.4284 48.5701 61.4269H51.5356C51.835 62.2536 52.6453 62.8567 53.5684 62.8567C54.7433 62.8567 55.7083 61.9084 55.7083 60.7098C55.7083 59.5151 54.7433 58.5699 53.5684 58.5699C52.6436 58.5699 51.8297 59.1708 51.5317 59.9984H49.2816V56.3867H50.0349C52.0348 56.3867 53.5685 54.7987 53.5685 52.8545H59.9952V55.1114C59.1676 55.4082 58.5667 56.2153 58.5667 57.14C58.5667 58.3149 59.5317 59.2985 60.7066 59.2869C61.9131 59.2761 62.8535 58.3149 62.8535 57.14C62.8535 56.2169 62.2543 55.4108 61.4276 55.1128L61.4249 52.1431C61.4273 51.7459 61.1051 51.4231 60.7079 51.4246H53.5697V48.5732H55.7208C56.6945 48.5948 56.6945 47.1231 55.7208 47.1447H53.5697V44.2863H58.6768C58.9747 45.113 59.7849 45.7267 60.7079 45.7149C61.942 45.6987 62.8548 44.7442 62.8548 43.5693C62.8548 42.3944 61.9183 41.4255 60.7079 41.4293C59.7608 41.432 58.9846 42.0274 58.6879 42.855L53.5697 42.8577V39.9993H55.7208C56.6945 40.0209 56.6945 38.5492 55.7208 38.5708H53.5698V35.7125H60.708C61.1025 35.714 61.4234 35.3955 61.425 35.0011V32.0338C62.2517 31.7345 62.8549 30.9202 62.8549 29.9971C62.8549 28.8222 61.9105 27.8572 60.708 27.8572C59.533 27.8572 58.568 28.8222 58.568 29.9971C58.568 30.9219 59.169 31.7371 59.9965 32.0352V34.284H53.5698C53.5698 32.3399 52.0585 30.7518 50.0363 30.7518H49.2816V26.4287C49.2816 21.2181 45.1281 17.1435 39.9964 17.1426C34.8648 17.1417 30.7127 21.2537 30.7127 26.4269ZM39.9963 18.5701C44.3613 18.5701 47.853 22.1408 47.853 26.4269V30.75H44.9946V26.4269C44.9946 23.5589 42.7538 21.4285 39.9963 21.4285C37.2389 21.4285 34.998 23.5589 34.998 26.4269V30.75H32.1411V26.4269C32.1411 22.1724 35.6314 18.5701 39.9963 18.5701ZM39.9963 22.857C41.9872 22.857 43.5661 24.5308 43.5661 26.4269V30.75H36.4279V26.4269C36.4279 24.5308 38.0055 22.857 39.9963 22.857ZM19.2807 29.2838C19.6836 29.2838 20.007 29.624 19.9991 29.9953C19.991 30.3785 19.6836 30.7137 19.2807 30.7137C18.8777 30.7137 18.5692 30.3706 18.5692 29.9953C18.5692 29.62 18.8777 29.2838 19.2807 29.2838ZM60.7064 29.2838C61.1094 29.2838 61.4235 29.6161 61.4235 29.9953C61.4235 30.3982 61.1094 30.7137 60.7064 30.7137C60.3035 30.7137 59.995 30.3785 59.995 29.9953C59.995 29.6161 60.3035 29.2838 60.7064 29.2838ZM29.9579 32.1785H50.0347C51.1458 32.1785 52.1398 33.1047 52.1398 34.2822C52.129 40.6828 52.1393 47.3452 52.1398 52.8526C52.1614 53.885 51.2121 54.9563 50.0347 54.9563H29.9579C28.7805 54.9563 27.8543 53.9687 27.8543 52.8526V34.2822C27.8543 33.1047 28.8279 32.1785 29.9579 32.1785ZM39.7703 33.6071L31.1967 36.4654C30.9076 36.564 30.7131 36.8351 30.7127 37.1406C30.7127 43.3797 32.9364 47.5045 35.178 50.0263C37.4197 52.5482 39.7229 53.5111 39.7229 53.5111C39.8984 53.584 40.0957 53.584 40.2711 53.5111C40.2711 53.5111 42.5745 52.5482 44.816 50.0263C47.0577 47.5045 49.2814 43.3797 49.2814 37.1406C49.2802 36.8337 49.0833 36.5619 48.7918 36.4654L40.2237 33.607C40.0385 33.5333 39.8591 33.5828 39.7703 33.6071ZM39.9963 35.0369L47.7679 37.6302C47.6364 43.196 45.7201 46.8553 43.7447 49.0777C41.8398 51.2207 40.2393 51.8754 39.9963 51.9821C39.7539 51.8755 38.1474 51.2208 36.2424 49.0777C34.267 46.8553 32.356 43.196 32.2248 37.6302L39.9963 35.0369ZM39.9963 37.1406C38.0325 37.1406 36.4279 38.7452 36.4279 40.709V40.7144C36.4293 41.7351 37.1145 42.5192 37.8565 43.1878V47.1426C37.8565 48.3843 38.8216 49.2826 39.9963 49.2826C41.171 49.2826 42.1377 48.3732 42.1377 47.1426V43.1878C42.851 42.4855 43.551 41.9798 43.5661 40.7144V40.709C43.5661 38.7451 41.9602 37.1406 39.9963 37.1406ZM39.9963 38.5691C41.1882 38.5691 42.1377 39.5172 42.1377 40.709C42.1367 41.4747 41.7294 42.1829 41.0663 42.5658C40.8455 42.6927 40.7088 42.9276 40.7078 43.1824V47.1429C40.7078 47.5174 40.4044 47.8543 39.9963 47.8543C39.5883 47.8543 39.2793 47.5174 39.2793 47.1429V43.1824C39.2795 42.9289 39.1449 42.6941 38.9264 42.5658C38.2633 42.1829 37.8574 41.4747 37.8565 40.709C37.8565 39.5172 38.8045 38.5691 39.9963 38.5691ZM19.2807 42.8559C19.6389 42.8613 19.9991 43.1645 19.9991 43.5674C19.9991 43.9704 19.6278 44.2906 19.2807 44.2845C18.9113 44.2791 18.5692 43.9704 18.5692 43.5674C18.5692 43.1645 18.928 42.8496 19.2807 42.8559ZM60.7064 42.8559C61.1094 42.8586 61.4235 43.1645 61.4235 43.5674C61.4235 43.9704 61.1094 44.2845 60.7064 44.2845C60.3351 44.2764 59.995 43.9704 59.995 43.5674C59.995 43.1645 60.3272 42.852 60.7064 42.8559ZM19.2807 56.4267C19.6501 56.4321 19.9991 56.7352 19.9991 57.1381C19.9991 57.541 19.6441 57.8735 19.2807 57.8565C18.9224 57.8403 18.5692 57.541 18.5692 57.1381C18.5692 56.7352 18.928 56.4211 19.2807 56.4267ZM60.7064 56.4267C61.1094 56.4267 61.4235 56.7589 61.4235 57.1381C61.4235 57.5213 61.1094 57.8565 60.7064 57.8565C60.3035 57.8565 59.9989 57.5173 59.995 57.1381C59.9923 56.7589 60.3035 56.4267 60.7064 56.4267ZM26.4258 59.9965C26.8287 60.0019 27.1428 60.3496 27.1428 60.7079C27.1428 61.0718 26.8288 61.425 26.4258 61.425C26.0229 61.425 25.7144 61.1108 25.7144 60.7079C25.7144 60.305 26.0564 59.9909 26.4258 59.9965ZM39.9963 59.9965C40.3993 59.9965 40.7078 60.305 40.7078 60.7079C40.7078 61.1108 40.3993 61.425 39.9963 61.425C39.5934 61.425 39.2793 61.1108 39.2793 60.7079C39.2793 60.305 39.5934 59.9965 39.9963 59.9965ZM53.5683 59.9965C53.9712 59.9965 54.2797 60.3287 54.2797 60.7079C54.2797 61.1108 53.9712 61.425 53.5683 61.425C53.1653 61.425 52.8505 61.0871 52.8512 60.7079C52.8519 60.3681 53.1653 59.9965 53.5683 59.9965Z" fill="#EF6C33" stroke="#FDF0ED" stroke-width="0.457143" mask="url(#path-2-inside-1_18953_3458)"/>
</g>
<defs>
<clipPath id="clip0_18953_3458">
<rect width="45.7143" height="45.7143" fill="white" transform="translate(17.1406 17.1426)"/>
</clipPath>
</defs>
</svg>
