<svg width="32" height="32" viewBox="0 0 32 32" fill="none" xmlns="http://www.w3.org/2000/svg">
<rect width="32" height="32" rx="16" fill="#FCE8E3"/>
<rect x="0.5" y="0.5" width="31" height="31" rx="15.5" stroke="#EE6C4D" stroke-opacity="0.23"/>
<g clip-path="url(#clip0_18807_10160)">
<path d="M24.9788 16.2103C25.4065 15.3642 25.2294 14.3599 24.5381 13.7111L23.5348 12.7694C23.3034 12.5522 23.1619 12.3072 23.0895 11.9981L22.7756 10.6584C22.5594 9.73537 21.7782 9.07981 20.8316 9.02717L19.4578 8.95075C19.1408 8.93311 18.8749 8.83631 18.6208 8.64615L17.5193 7.82159C16.7604 7.25351 15.7405 7.25344 14.9815 7.82159L13.88 8.64611C13.6259 8.83631 13.3599 8.93311 13.043 8.95075L11.6692 9.02717C10.7227 9.07981 9.9414 9.73537 9.72518 10.6584L9.41129 11.9981C9.33892 12.3072 9.19742 12.5522 8.96603 12.7694L7.96269 13.7111C7.27143 14.3599 7.09435 15.3642 7.52202 16.2103L8.14278 17.4383C8.28597 17.7216 8.33511 18.0002 8.29743 18.3154L8.13411 19.6816C8.02162 20.6229 8.53153 21.5061 9.40298 21.8794L10.6678 22.4211C10.9596 22.546 11.1764 22.7279 11.3501 22.9935L12.1033 24.1451C12.6221 24.9385 13.5804 25.2874 14.488 25.0131L15.8051 24.615C16.1089 24.5232 16.3919 24.5232 16.6957 24.615L18.0128 25.0131C18.2193 25.0755 18.4283 25.1057 18.6343 25.1056C19.3335 25.1056 19.9967 24.758 20.3975 24.1451L21.1506 22.9935C21.3244 22.7279 21.5411 22.546 21.8329 22.4211L23.0978 21.8794C23.9692 21.5061 24.4791 20.6229 24.3666 19.6816L24.2033 18.3153C24.1656 18.0002 24.2148 17.7215 24.358 17.4382L24.9788 16.2103ZM23.8421 17.1775C23.6478 17.5618 23.5782 17.9565 23.6293 18.384L23.7927 19.7503C23.8757 20.4453 23.5136 21.0724 22.8702 21.348L21.6054 21.8897C21.2095 22.0592 20.9025 22.3168 20.6668 22.6772L19.9137 23.8288C19.5306 24.4145 18.85 24.6622 18.1801 24.4597L16.863 24.0617C16.6569 23.9994 16.4537 23.9682 16.2504 23.9682C16.0472 23.9682 15.8439 23.9994 15.6378 24.0617L14.3207 24.4597C13.6508 24.6622 12.9702 24.4145 12.5871 23.8288L11.834 22.6772C11.5983 22.3168 11.2912 22.0592 10.8954 21.8897L9.63058 21.348C8.98713 21.0724 8.62508 20.4453 8.70815 19.7503L8.87147 18.384C8.9226 17.9565 8.853 17.5618 8.65872 17.1775L8.03796 15.9495C7.72223 15.3248 7.84793 14.6117 8.35831 14.1326L9.36165 13.191C9.6756 12.8963 9.87596 12.5492 9.97417 12.13L10.2881 10.7903C10.4477 10.1088 11.0024 9.64327 11.7013 9.60442L13.0751 9.528C13.5051 9.50408 13.8816 9.367 14.2264 9.10897L15.3279 8.28442C15.8883 7.86499 16.6125 7.86495 17.1728 8.28442L18.2744 9.10897C18.6191 9.367 18.9957 9.50408 19.4256 9.528L20.7995 9.60442C21.4984 9.6433 22.0531 10.1088 22.2127 10.7903L22.5266 12.13C22.6248 12.5493 22.8252 12.8963 23.1392 13.191L24.1425 14.1326C24.6528 14.6116 24.7785 15.3248 24.4628 15.9495L23.8421 17.1775ZM16.2504 10.3407C12.992 10.3407 10.3411 12.9917 10.3411 16.2501C10.3411 19.5086 12.992 22.1595 16.2504 22.1595C19.5089 22.1595 22.1598 19.5086 22.1598 16.2501C22.1598 12.9917 19.5089 10.3407 16.2504 10.3407ZM16.2504 21.5814C13.3108 21.5814 10.9192 19.1898 10.9192 16.2501C10.9192 13.3105 13.3108 10.9189 16.2504 10.9189C19.1901 10.9189 21.5817 13.3105 21.5817 16.2501C21.5817 19.1898 19.1901 21.5814 16.2504 21.5814ZM18.7108 13.5716C18.7094 13.5716 18.7079 13.5716 18.7065 13.5716C18.4177 13.5727 18.1468 13.6862 17.9438 13.8913L15.5468 16.3122L14.5568 15.3222C14.3523 15.1178 14.0805 15.0052 13.7913 15.0052C13.502 15.0052 13.2302 15.1178 13.0257 15.3223C12.6037 15.7444 12.6037 16.4312 13.0257 16.8532L14.784 18.6115C14.995 18.8225 15.2723 18.9281 15.5495 18.9281C15.8267 18.9281 16.104 18.8226 16.315 18.6115C16.9817 17.9449 17.6543 17.2626 18.3048 16.6028C18.6956 16.2064 19.0865 15.8099 19.4784 15.4144C19.8976 14.9914 19.8954 14.3058 19.4734 13.8863C19.2693 13.6832 18.9987 13.5716 18.7108 13.5716ZM19.0677 15.0074C18.6755 15.4033 18.2843 15.8001 17.893 16.1969C17.2433 16.856 16.5714 17.5375 15.9062 18.2027C15.7095 18.3994 15.3894 18.3994 15.1928 18.2027L13.4346 16.4444C13.2379 16.2477 13.2379 15.9277 13.4346 15.731C13.5298 15.6357 13.6565 15.5832 13.7913 15.5832C13.926 15.5832 14.0527 15.6357 14.148 15.731L15.3434 16.9264C15.3976 16.9806 15.4711 17.011 15.5478 17.011H15.5485C15.6254 17.0109 15.6991 16.98 15.7532 16.9254L18.3547 14.298C18.4488 14.2028 18.5746 14.1501 18.7088 14.1496H18.7108C18.8448 14.1496 18.9708 14.2016 19.0658 14.2961C19.2621 14.4914 19.2629 14.8104 19.0677 15.0074Z" fill="#EF6C33"/>
</g>
<defs>
<clipPath id="clip0_18807_10160">
<rect width="18.5" height="18.5" fill="white" transform="translate(7 7)"/>
</clipPath>
</defs>
</svg>
