<svg width="80" height="80" viewBox="0 0 80 80" fill="none" xmlns="http://www.w3.org/2000/svg">
<rect width="80" height="80" rx="14.7368" fill="#EF6C33"/>
<path d="M21.1426 26.2859V45.1431C21.1426 45.4002 21.2283 45.6574 21.314 45.8288C21.5711 46.3431 26.8854 57.6574 39.314 62.9717H39.3997H39.4854C39.6569 62.9717 39.7426 63.0574 39.914 63.0574C40.0854 63.0574 40.1712 63.0574 40.3426 62.9717H40.4283H40.514C52.9426 57.6574 58.3426 46.3431 58.514 45.8288C58.5997 45.5717 58.6854 45.4002 58.6854 45.1431V26.2859C58.6854 25.5145 58.1711 24.8288 57.3997 24.6574C50.8854 23.0288 40.8569 16.4288 40.7712 16.3431C40.6854 16.2574 40.5997 16.2574 40.4283 16.1717C40.3426 16.1717 40.3426 16.1717 40.2569 16.0859C40.1711 16.0859 40.1711 16.0859 40.0854 16.0859C39.9997 16.0859 39.914 16.0859 39.8283 16.0859H39.7426C39.6569 16.0859 39.5711 16.0859 39.5711 16.0859H39.4854C39.3997 16.0859 39.314 16.1717 39.2283 16.1717C39.1426 16.2574 39.0569 16.2574 38.8854 16.3431C38.714 16.4288 28.7711 23.0288 22.2569 24.6574C21.6569 24.8288 21.1426 25.5145 21.1426 26.2859ZM24.5711 27.5717C30.314 25.7717 37.4283 21.4002 39.9997 19.7717C42.5711 21.4002 49.6854 25.7717 55.4283 27.5717V44.7145C54.4854 46.5145 49.6854 55.0859 39.9997 59.5431C30.314 55.0859 25.514 46.5145 24.5711 44.7145V27.5717Z" fill="white"/>
<path d="M37.0851 45.4859C37.428 45.8288 37.8565 46.0002 38.2851 46.0002C38.7137 46.0002 39.1422 45.8288 39.4851 45.4859L47.9708 37.0002C48.6565 36.3145 48.6565 35.2859 47.9708 34.6002C47.2851 33.9145 46.2565 33.9145 45.5708 34.6002L38.2851 41.8859L34.428 38.0288C33.7422 37.3431 32.7137 37.3431 32.028 38.0288C31.3422 38.7145 31.3422 39.7431 32.028 40.4288L37.0851 45.4859Z" fill="white"/>
</svg>
