<svg width="80" height="80" viewBox="0 0 80 80" fill="none" xmlns="http://www.w3.org/2000/svg">
<rect width="80" height="80" rx="14.7368" fill="#FDF0ED"/>
<path d="M36.4978 46.9166C36.1211 46.8878 35.7707 46.7126 35.5216 46.4285L29.6644 40.5713C29.5339 40.2981 29.4914 39.9911 29.5426 39.6927C29.5938 39.3942 29.7362 39.119 29.9504 38.9049C30.1645 38.6908 30.4397 38.5483 30.7382 38.4971C31.0366 38.4459 31.3436 38.4885 31.6168 38.619L36.4392 43.4413L53.093 26.9047C53.3663 26.7742 53.6732 26.7316 53.9717 26.7828C54.2701 26.834 54.5454 26.9765 54.7595 27.1906C54.9736 27.4047 55.1161 27.6799 55.1673 27.9784C55.2185 28.2768 55.1759 28.5838 55.0454 28.8571L37.474 46.4285C37.2249 46.7126 36.8745 46.8878 36.4978 46.9166Z" fill="#EF6C33"/>
<path d="M39.4277 58.1432C36.2872 58.1382 33.2055 57.2915 30.5032 55.6915C27.8009 54.0914 25.5768 51.7963 24.0624 49.0451C22.9129 46.9944 22.2015 44.7273 21.9734 42.3875C21.6161 38.9554 22.2772 35.494 23.8743 32.4352C25.4714 29.3763 27.9338 26.8555 30.9543 25.187C33.0051 24.0374 35.2721 23.3261 37.612 23.098C39.9434 22.8493 42.301 23.0751 44.5429 23.7618C44.7429 23.8017 44.9324 23.8831 45.0992 24.0005C45.266 24.118 45.4064 24.269 45.5114 24.4439C45.6164 24.6188 45.6837 24.8137 45.709 25.0161C45.7343 25.2185 45.717 25.424 45.6583 25.6193C45.5995 25.8147 45.5006 25.9956 45.3679 26.1505C45.2351 26.3054 45.0715 26.4308 44.8875 26.5188C44.7034 26.6068 44.503 26.6553 44.2991 26.6613C44.0952 26.6673 43.8923 26.6307 43.7034 26.5537C41.807 25.9824 39.8155 25.7965 37.8462 26.007C35.8994 26.2047 34.013 26.7959 32.3015 27.7446C30.652 28.6546 29.1936 29.8744 28.0062 31.337C26.7838 32.827 25.8709 34.5459 25.3211 36.3931C24.7713 38.2403 24.5956 40.1787 24.8043 42.0946C25.0021 44.0415 25.5932 45.9279 26.542 47.6394C27.452 49.2889 28.6717 50.7473 30.1343 51.9346C31.6243 53.1571 33.3432 54.07 35.1904 54.6198C37.0377 55.1696 38.976 55.3452 40.892 55.1365C42.8388 54.9388 44.7252 54.3476 46.4367 53.3989C48.0862 52.4889 49.5446 51.2691 50.732 49.8065C51.9544 48.3166 52.8673 46.5976 53.4171 44.7504C53.9669 42.9032 54.1426 40.9649 53.9339 39.0489C53.895 38.6424 54.0193 38.2372 54.2792 37.9223C54.5392 37.6074 54.9136 37.4087 55.32 37.3699C55.7265 37.331 56.1318 37.4553 56.4467 37.7152C56.7615 37.9752 56.9603 38.3496 56.9991 38.7561C57.3546 42.1902 56.6906 45.653 55.0899 48.7121C53.4892 51.7711 51.0227 54.2908 47.9986 55.9565C45.9261 57.1532 43.624 57.8983 41.2434 58.1432H39.4277Z" fill="#EF6C33"/>
</svg>
