<svg width="70" height="70" viewBox="0 0 70 70" fill="none" xmlns="http://www.w3.org/2000/svg">
<rect width="70" height="70" rx="12.8947" fill="#FDF0ED"/>
<g clip-path="url(#clip0_18968_523)">
<path d="M24.9516 42.2579H21.9677V39.8708H20.7742V42.2579H17.7903C16.8033 42.2579 16 43.0612 16 44.0483V48.8225C16 49.8095 16.8033 50.6128 17.7903 50.6128H18.9839V51.8063H17.7903V52.9999H24.9516V51.8063H23.7581V50.6128H24.9516C25.9387 50.6128 26.7419 49.8095 26.7419 48.8225V44.0483C26.7419 43.0612 25.9387 42.2579 24.9516 42.2579ZM17.7903 43.4515H24.9516C25.2804 43.4515 25.5484 43.7194 25.5484 44.0483V47.0321H17.1935V44.0483C17.1935 43.7194 17.4615 43.4515 17.7903 43.4515ZM22.5645 51.8063H20.1774V50.6128H22.5645V51.8063ZM24.9516 49.4192H17.7903C17.4615 49.4192 17.1935 49.1513 17.1935 48.8225V48.2257H25.5484V48.8225C25.5484 49.1513 25.2804 49.4192 24.9516 49.4192Z" fill="#EF6C33"/>
<path d="M38.0805 42.2574H35.0966V36.8865H33.9031V42.2574H30.9192C29.9322 42.2574 29.1289 43.0607 29.1289 44.0478V48.822C29.1289 49.809 29.9322 50.6123 30.9192 50.6123H32.1128V51.8058H30.9192V52.9994H38.0805V51.8058H36.887V50.6123H38.0805C39.0676 50.6123 39.8708 49.809 39.8708 48.822V44.0478C39.8708 43.0607 39.0676 42.2574 38.0805 42.2574ZM30.9192 43.451H38.0805C38.4093 43.451 38.6773 43.7189 38.6773 44.0478V47.0316H30.3225V44.0478C30.3225 43.7189 30.5904 43.451 30.9192 43.451ZM35.6934 51.8058H33.3063V50.6123H35.6934V51.8058ZM38.0805 49.4187H30.9192C30.5904 49.4187 30.3225 49.1508 30.3225 48.822V48.2252H38.6773V48.822C38.6773 49.1508 38.4093 49.4187 38.0805 49.4187Z" fill="#EF6C33"/>
<path d="M51.2094 42.2582H48.2256V39.8711H47.032V42.2582H44.0481C43.0611 42.2582 42.2578 43.0614 42.2578 44.0485V48.8227C42.2578 49.8098 43.0611 50.613 44.0481 50.613H45.2417V51.8066H44.0481V53.0001H51.2094V51.8066H50.0159V50.613H51.2094C52.1965 50.613 52.9997 49.8098 52.9997 48.8227V44.0485C52.9997 43.0614 52.1965 42.2582 51.2094 42.2582ZM44.0481 43.4517H51.2094C51.5382 43.4517 51.8062 43.7197 51.8062 44.0485V47.0324H43.4514V44.0485C43.4514 43.7197 43.7193 43.4517 44.0481 43.4517ZM48.8223 51.8066H46.4352V50.613H48.8223V51.8066ZM51.2094 49.4195H44.0481C43.7193 49.4195 43.4514 49.1515 43.4514 48.8227V48.2259H51.8062V48.8227C51.8062 49.1515 51.5382 49.4195 51.2094 49.4195Z" fill="#EF6C33"/>
<path d="M27.9357 32.5997V35.0966H29.1293V32.5997C29.8221 32.3527 30.3228 31.6962 30.3228 30.9192C30.3228 29.9322 29.5196 29.1289 28.5325 29.1289C27.5454 29.1289 26.7422 29.9322 26.7422 30.9192C26.7422 31.6962 27.2429 32.3527 27.9357 32.5997ZM28.5325 30.3225C28.8613 30.3225 29.1293 30.5904 29.1293 30.9192C29.1293 31.2481 28.8613 31.516 28.5325 31.516C28.2037 31.516 27.9357 31.2481 27.9357 30.9192C27.9357 30.5904 28.2037 30.3225 28.5325 30.3225Z" fill="#EF6C33"/>
<path d="M35.0961 30.8092C35.7889 30.5622 36.2896 29.9057 36.2896 29.1287C36.2896 28.1416 35.4864 27.3384 34.4993 27.3384C33.5122 27.3384 32.709 28.1416 32.709 29.1287C32.709 29.9057 33.2097 30.5622 33.9025 30.8092V33.3061H35.0961V30.8092ZM34.4993 28.5319C34.8281 28.5319 35.0961 28.7999 35.0961 29.1287C35.0961 29.4575 34.8281 29.7255 34.4993 29.7255C34.1705 29.7255 33.9025 29.4575 33.9025 29.1287C33.9025 28.7999 34.1705 28.5319 34.4993 28.5319Z" fill="#EF6C33"/>
<path d="M33.9043 34.5H35.0978V35.6935H33.9043V34.5Z" fill="#EF6C33"/>
<path d="M41.0648 32.5997C41.7577 32.3527 42.2584 31.6962 42.2584 30.9192C42.2584 29.9322 41.4551 29.1289 40.4681 29.1289C39.481 29.1289 38.6777 29.9322 38.6777 30.9192C38.6777 31.6962 39.1784 32.3527 39.8713 32.5997V35.0966H41.0648V32.5997ZM40.4681 30.3225C40.7969 30.3225 41.0648 30.5904 41.0648 30.9192C41.0648 31.2481 40.7969 31.516 40.4681 31.516C40.1392 31.516 39.8713 31.2481 39.8713 30.9192C39.8713 30.5904 40.1392 30.3225 40.4681 30.3225Z" fill="#EF6C33"/>
<path d="M39.8711 36.2903H41.0646V37.4838H39.8711V36.2903Z" fill="#EF6C33"/>
<path d="M48.2256 38.6774V36.2903H42.2578V37.4838H47.032V38.6774H48.2256Z" fill="#EF6C33"/>
<path d="M27.9355 36.2903H29.1291V37.4838H27.9355V36.2903Z" fill="#EF6C33"/>
<path d="M26.7412 36.2903H20.7734V38.6774H21.967V37.4838H26.7412V36.2903Z" fill="#EF6C33"/>
<path d="M20.7742 35.0968H26.7419V33.9032H20.7742C18.7995 33.9032 17.1935 32.2973 17.1935 30.3226C17.1935 28.349 18.7983 26.7431 20.7903 26.7431H20.7927L21.3841 26.7598L21.4694 26.249C22.0006 23.0765 24.7195 20.7742 27.9355 20.7742C29.0747 20.7742 30.2026 21.0762 31.1975 21.6479L31.7172 21.9463L32.0138 21.4253C33.4992 18.815 36.2814 17.1935 39.2742 17.1935C43.8813 17.1935 47.629 20.9413 47.629 25.5484V25.5896C45.2777 25.885 43.4516 27.8925 43.4516 30.3226H44.6452C44.6452 28.3479 46.2511 26.7419 48.2258 26.7419C50.2005 26.7419 51.8065 28.3479 51.8065 30.3226C51.8065 32.2973 50.2005 33.9032 48.2258 33.9032H42.2581V35.0968H48.2258C50.8582 35.0968 53 32.955 53 30.3226C53 27.8925 51.1739 25.885 48.8226 25.5896V25.5484C48.8226 20.2836 44.5389 16 39.2742 16C36.0462 16 33.0331 17.6501 31.2768 20.3421C30.2343 19.8426 29.0902 19.5806 27.9355 19.5806C24.3011 19.5806 21.2033 22.068 20.3899 25.5639C17.9365 25.7596 16 27.8197 16 30.3226C16 32.955 18.1418 35.0968 20.7742 35.0968Z" fill="#EF6C33"/>
<path d="M45.8394 41.0651V38.678H37.4846V32.1135H36.291V39.8716H44.6459V41.0651H45.8394Z" fill="#EF6C33"/>
<path d="M24.3557 39.8716H32.7105V32.1135H31.5169V38.678H23.1621V41.0651H24.3557V39.8716Z" fill="#EF6C33"/>
<path d="M37.6466 19.8046L37.322 18.6558C35.4135 19.1952 33.7998 20.5207 32.8945 22.2919L33.9574 22.835C34.7117 21.3591 36.0568 20.2545 37.6466 19.8046Z" fill="#EF6C33"/>
<path d="M45.1448 24.4622L46.3186 24.2468C45.695 20.8506 42.7326 18.3865 39.2755 18.3865C39.0565 18.3865 38.8392 18.3966 38.625 18.4157L38.733 19.6045C38.9115 19.5884 39.0923 19.58 39.2755 19.58C42.1567 19.58 44.625 21.6329 45.1448 24.4622Z" fill="#EF6C33"/>
<path d="M27.9366 21.9673C25.2326 21.9673 22.9416 23.988 22.6074 26.6675L23.7914 26.8149C24.0516 24.7321 25.8336 23.1608 27.9366 23.1608V21.9673Z" fill="#EF6C33"/>
</g>
<defs>
<clipPath id="clip0_18968_523">
<rect width="37" height="37" fill="white" transform="translate(16 16)"/>
</clipPath>
</defs>
</svg>
