<?xml version="1.0" encoding="utf-8"?>
<svg width="40" height="40" viewBox="0 0 40 40" fill="none" xmlns="http://www.w3.org/2000/svg">
  <g clip-path="url(#clip0_18807_10867)">
    <path d="M9.67742 28.387H6.45161V25.8064H5.16129V28.387H1.93548C0.868387 28.387 0 29.2554 0 30.3225V35.4838C0 36.5509 0.868387 37.4193 1.93548 37.4193H3.22581V38.7096H1.93548V39.9999H9.67742V38.7096H8.3871V37.4193H9.67742C10.7445 37.4193 11.6129 36.5509 11.6129 35.4838V30.3225C11.6129 29.2554 10.7445 28.387 9.67742 28.387ZM1.93548 29.6774H9.67742C10.0329 29.6774 10.3226 29.967 10.3226 30.3225V33.5483H1.29032V30.3225C1.29032 29.967 1.58 29.6774 1.93548 29.6774ZM7.09677 38.7096H4.51613V37.4193H7.09677V38.7096ZM9.67742 36.129H1.93548C1.58 36.129 1.29032 35.8393 1.29032 35.4838V34.8387H10.3226V35.4838C10.3226 35.8393 10.0329 36.129 9.67742 36.129Z" style="fill: rgb(239, 108, 51);"/>
    <path d="M23.8708 28.3865H20.645V22.5801H19.3546V28.3865H16.1288C15.0617 28.3865 14.1934 29.2549 14.1934 30.322V35.4833C14.1934 36.5504 15.0617 37.4188 16.1288 37.4188H17.4192V38.7091H16.1288V39.9994H23.8708V38.7091H22.5805V37.4188H23.8708C24.9379 37.4188 25.8063 36.5504 25.8063 35.4833V30.322C25.8063 29.2549 24.9379 28.3865 23.8708 28.3865ZM16.1288 29.6769H23.8708C24.2263 29.6769 24.5159 29.9665 24.5159 30.322V33.5478H15.4837V30.322C15.4837 29.9665 15.7734 29.6769 16.1288 29.6769ZM21.2901 38.7091H18.7095V37.4188H21.2901V38.7091ZM23.8708 36.1285H16.1288C15.7734 36.1285 15.4837 35.8388 15.4837 35.4833V34.8381H24.5159V35.4833C24.5159 35.8388 24.2263 36.1285 23.8708 36.1285Z" style="fill: rgb(239, 108, 51);"/>
    <path d="M38.0641 28.3873H34.8383V25.8066H33.548V28.3873H30.3222C29.2551 28.3873 28.3867 29.2557 28.3867 30.3228V35.4841C28.3867 36.5512 29.2551 37.4195 30.3222 37.4195H31.6125V38.7099H30.3222V40.0002H38.0641V38.7099H36.7738V37.4195H38.0641C39.1312 37.4195 39.9996 36.5512 39.9996 35.4841V30.3228C39.9996 29.2557 39.1312 28.3873 38.0641 28.3873ZM30.3222 29.6776H38.0641C38.4196 29.6776 38.7093 29.9673 38.7093 30.3228V33.5486H29.677V30.3228C29.677 29.9673 29.9667 29.6776 30.3222 29.6776ZM35.4835 38.7099H32.9028V37.4195H35.4835V38.7099ZM38.0641 36.1292H30.3222C29.9667 36.1292 29.677 35.8395 29.677 35.4841V34.8389H38.7093V35.4841C38.7093 35.8395 38.4196 36.1292 38.0641 36.1292Z" style="fill: rgb(239, 108, 51);"/>
    <path d="M12.9036 17.9456V20.645H14.1939V17.9456C14.943 17.6785 15.4842 16.9688 15.4842 16.1288C15.4842 15.0617 14.6159 14.1934 13.5488 14.1934C12.4817 14.1934 11.6133 15.0617 11.6133 16.1288C11.6133 16.9688 12.1546 17.6785 12.9036 17.9456ZM13.5488 15.4837C13.9042 15.4837 14.1939 15.7734 14.1939 16.1288C14.1939 16.4843 13.9042 16.774 13.5488 16.774C13.1933 16.774 12.9036 16.4843 12.9036 16.1288C12.9036 15.7734 13.1933 15.4837 13.5488 15.4837Z" style="fill: rgb(239, 108, 51);"/>
    <path d="M20.6451 16.0101C21.3941 15.743 21.9354 15.0333 21.9354 14.1933C21.9354 13.1262 21.067 12.2578 19.9999 12.2578C18.9328 12.2578 18.0645 13.1262 18.0645 14.1933C18.0645 15.0333 18.6057 15.743 19.3548 16.0101V18.7094H20.6451V16.0101ZM19.9999 13.5481C20.3554 13.5481 20.6451 13.8378 20.6451 14.1933C20.6451 14.5488 20.3554 14.8385 19.9999 14.8385C19.6445 14.8385 19.3548 14.5488 19.3548 14.1933C19.3548 13.8378 19.6445 13.5481 19.9999 13.5481Z" style="fill: rgb(239, 108, 51);"/>
    <path d="M19.3555 20H20.6458V21.2903H19.3555V20Z" style="fill: rgb(239, 108, 51);"/>
    <path d="M27.0963 17.9456C27.8453 17.6785 28.3866 16.9688 28.3866 16.1288C28.3866 15.0617 27.5182 14.1934 26.4511 14.1934C25.384 14.1934 24.5156 15.0617 24.5156 16.1288C24.5156 16.9688 25.0569 17.6785 25.8059 17.9456V20.645H27.0963V17.9456ZM26.4511 15.4837C26.8066 15.4837 27.0963 15.7734 27.0963 16.1288C27.0963 16.4843 26.8066 16.774 26.4511 16.774C26.0956 16.774 25.8059 16.4843 25.8059 16.1288C25.8059 15.7734 26.0956 15.4837 26.4511 15.4837Z" style="fill: rgb(239, 108, 51);"/>
    <path d="M25.8066 21.9355H27.097V23.2259H25.8066V21.9355Z" style="fill: rgb(239, 108, 51);"/>
    <path d="M34.8383 24.5162V21.9355H28.3867V23.2259H33.548V24.5162H34.8383Z" style="fill: rgb(239, 108, 51);"/>
    <path d="M12.9023 21.9355H14.1927V23.2259H12.9023V21.9355Z" style="fill: rgb(239, 108, 51);"/>
    <path d="M11.6137 21.9355H5.16211V24.5162H6.45243V23.2259H11.6137V21.9355Z" style="fill: rgb(239, 108, 51);"/>
    <path d="M5.16129 20.6452H11.6129V19.3548H5.16129C3.02645 19.3548 1.29032 17.6187 1.29032 15.4839C1.29032 13.3503 3.02516 11.6142 5.17871 11.6142H5.18129L5.82065 11.6323L5.9129 11.08C6.4871 7.65032 9.42645 5.16129 12.9032 5.16129C14.1348 5.16129 15.3542 5.48774 16.4297 6.10581L16.9916 6.42839L17.3123 5.86516C18.9181 3.04323 21.9258 1.29032 25.1613 1.29032C30.1419 1.29032 34.1935 5.34194 34.1935 10.3226V10.3671C31.6516 10.6865 29.6774 12.8568 29.6774 15.4839H30.9677C30.9677 13.349 32.7039 11.6129 34.8387 11.6129C36.9735 11.6129 38.7097 13.349 38.7097 15.4839C38.7097 17.6187 36.9735 19.3548 34.8387 19.3548H28.3871V20.6452H34.8387C37.6845 20.6452 40 18.3297 40 15.4839C40 12.8568 38.0258 10.6865 35.4839 10.3671V10.3226C35.4839 4.63097 30.8529 0 25.1613 0C21.6716 0 18.4142 1.78387 16.5155 4.69419C15.3884 4.15419 14.1516 3.87097 12.9032 3.87097C8.97419 3.87097 5.62516 6.56 4.74581 10.3394C2.09355 10.551 0 12.7781 0 15.4839C0 18.3297 2.31548 20.6452 5.16129 20.6452Z" style="fill: rgb(239, 108, 51);"/>
    <path d="M32.2581 27.0973V24.5167H23.2259V17.4199H21.9355V25.807H30.9678V27.0973H32.2581Z" style="fill: rgb(239, 108, 51);"/>
    <path d="M9.03251 25.807H18.0648V17.4199H16.7744V24.5167H7.74219V27.0973H9.03251V25.807Z" style="fill: rgb(239, 108, 51);"/>
    <path d="M23.4011 4.11303L23.0501 2.87109C20.9869 3.45432 19.2424 4.88722 18.2637 6.80206L19.4127 7.38916C20.2282 5.79367 21.6824 4.59948 23.4011 4.11303Z" style="fill: rgb(239, 108, 51);"/>
    <path d="M31.5074 9.14846L32.7764 8.91556C32.1022 5.24395 28.8996 2.58008 25.1622 2.58008C24.9254 2.58008 24.6906 2.59105 24.459 2.61169L24.5758 3.89685C24.7687 3.87943 24.9641 3.8704 25.1622 3.8704C28.277 3.8704 30.9454 6.08976 31.5074 9.14846Z" style="fill: rgb(239, 108, 51);"/>
    <path d="M12.9039 6.45117C9.98064 6.45117 7.50387 8.63569 7.14258 11.5325L8.42258 11.6918C8.70387 9.4402 10.6303 7.74149 12.9039 7.74149V6.45117Z" style="fill: rgb(239, 108, 51);"/>
  </g>
  <defs>
    <clipPath id="clip0_18807_10867">
      <rect width="40" height="40" fill="white"/>
    </clipPath>
  </defs>
</svg>