<svg width="80" height="80" viewBox="0 0 80 80" fill="none" xmlns="http://www.w3.org/2000/svg">
<rect width="80" height="80" rx="14.7368" fill="#FDF0ED"/>
<path d="M14.6461 60.6985C14.4694 60.9717 14.4774 61.3253 14.6703 61.5905C14.8229 61.8074 15.072 61.936 15.3292 61.936C15.3854 61.936 15.4417 61.936 15.506 61.9199L22.8908 60.2806C25.0203 61.3655 27.4069 61.936 29.8015 61.936C38.1345 61.936 44.9247 55.2181 45.0533 46.9092C48.6694 47.8896 52.631 47.5199 55.9899 45.8164L63.3747 47.4476C63.431 47.4637 63.4872 47.4637 63.5515 47.4637C63.8086 47.4637 64.0578 47.3351 64.2104 47.1181C64.3953 46.853 64.4033 46.4994 64.2345 46.2262L61.2211 41.461C63.2461 38.8172 64.3551 35.5467 64.3551 32.1878C64.3551 23.7664 57.5086 16.9199 49.0872 16.9199C40.6658 16.9199 33.964 23.6378 33.8354 31.9387C32.5497 31.5851 31.1997 31.3842 29.8015 31.3842C21.364 31.3922 14.5176 38.2387 14.5176 46.6601C14.5176 50.011 15.6265 53.2815 17.6595 55.9333L14.6461 60.6985ZM49.0711 18.5351C56.6006 18.5351 62.7319 24.6664 62.7319 32.1958C62.7319 35.3699 61.6229 38.4637 59.5979 40.8985C59.3729 41.1637 59.3488 41.5494 59.5336 41.8387L61.8238 45.4547L56.0381 44.1771C55.8533 44.1369 55.6524 44.161 55.4836 44.2494C52.2774 45.953 48.4122 46.2824 44.9729 45.2056C44.4265 39.4119 40.6176 34.5503 35.4104 32.4771C35.4104 32.3806 35.4024 32.2842 35.4024 32.1878C35.4024 24.6583 41.5336 18.5271 49.0631 18.5271L49.0711 18.5351ZM16.1247 46.6601C16.1247 39.1306 22.256 32.9994 29.7854 32.9994C37.3149 32.9994 43.4461 39.1306 43.4461 46.6601C43.4461 54.1896 37.3149 60.3208 29.7854 60.3208C27.5515 60.3208 25.3336 59.7663 23.3649 58.7137C23.2444 58.6494 23.1158 58.6172 22.9872 58.6172C22.931 58.6172 22.8667 58.6172 22.8104 58.6333L17.0328 59.911L19.3229 56.2949C19.5078 55.9976 19.4836 55.6199 19.2667 55.3547C17.2417 52.9119 16.1328 49.8181 16.1328 46.644L16.1247 46.6601Z" fill="#EF6C33"/>
<path d="M29.7854 53.8931C30.4511 53.8931 30.9908 53.3535 30.9908 52.6878C30.9908 52.0221 30.4511 51.4824 29.7854 51.4824C29.1197 51.4824 28.5801 52.0221 28.5801 52.6878C28.5801 53.3535 29.1197 53.8931 29.7854 53.8931Z" fill="#EF6C33"/>
<path d="M29.7854 40.2321C31.1113 40.2321 32.1961 41.317 32.1961 42.6429C32.1961 43.9688 31.1113 45.0536 29.7854 45.0536C29.3435 45.0536 28.9819 45.4152 28.9819 45.8571V49.875H30.589V46.5804C32.4211 46.2107 33.8033 44.5875 33.8033 42.6429C33.8033 40.425 32.0033 38.625 29.7854 38.625C27.5676 38.625 25.7676 40.425 25.7676 42.6429H27.3747C27.3747 41.317 28.4595 40.2321 29.7854 40.2321Z" fill="#EF6C33"/>
<path d="M42.6426 26.5723H55.4997V28.1794H42.6426V26.5723Z" fill="#EF6C33"/>
<path d="M42.6426 31.3926H55.4997V32.9997H42.6426V31.3926Z" fill="#EF6C33"/>
<path d="M45.8574 36.2148H55.5003V37.822H45.8574V36.2148Z" fill="#EF6C33"/>
</svg>
