<svg width="80" height="80" viewBox="0 0 80 80" fill="none" xmlns="http://www.w3.org/2000/svg">
<rect width="80" height="80" rx="14.7368" fill="#EF6C33"/>
<g clip-path="url(#clip0_18981_48)">
<path d="M48.0047 39.1797C48.0015 39.1797 47.9985 39.1797 47.9953 39.1797H44.1669V35.246C44.1721 34.4526 43.5488 33.8051 42.7748 33.7998C42.7716 33.7998 42.7685 33.7998 42.7654 33.7998H37.2346C36.4605 33.7998 35.833 34.443 35.833 35.2364V39.1701H32.0047C31.2307 39.1648 30.5989 39.8035 30.5938 40.5969C30.5938 40.6034 30.5938 40.6098 30.5938 40.6163V46.2758C30.5938 47.0691 31.2213 47.7123 31.9953 47.7123H35.833V51.6364C35.8278 52.4297 36.4511 53.0773 37.2251 53.0826C37.2283 53.0826 37.2315 53.0826 37.2346 53.0826H42.756C43.53 53.0826 44.1575 52.4394 44.1575 51.646V47.7123H47.9953C48.7693 47.7176 49.401 47.0788 49.4062 46.2854C49.4062 46.2821 49.4062 46.2789 49.4062 46.2758V40.6163C49.4062 39.8229 48.7788 39.1797 48.0047 39.1797ZM47.525 45.7841H43.2263C42.7069 45.7841 42.2857 46.2157 42.2857 46.7482V51.1543H37.7143V46.7482C37.7143 46.2157 37.2931 45.7841 36.7736 45.7841H32.475V41.108H36.7736C37.2931 41.108 37.7143 40.6763 37.7143 40.1438V35.7281H42.2763V40.1342C42.2763 40.6666 42.6975 41.0983 43.2169 41.0983H47.525V45.7841Z" fill="white"/>
<path d="M56.3666 26.5879H48.6158V23.1941C48.6646 21.6455 47.4793 20.3494 45.9684 20.2994C45.8914 20.2969 45.8144 20.2976 45.7375 20.3017H34.2619C32.7522 20.2211 31.4646 21.4101 31.3858 22.9574C31.3819 23.0363 31.381 23.1152 31.3836 23.1941V26.5686H23.6329C20.6417 26.5686 17.1426 28.3137 17.1426 33.2212V54.1912C17.1426 59.0987 20.6417 60.8438 23.6329 60.8438H56.3666C59.3577 60.8438 62.8569 59.0987 62.8569 54.1912V33.2405C62.8569 28.333 59.3672 26.5879 56.3666 26.5879ZM33.2649 23.1941C33.2649 22.9145 33.2649 22.1625 34.2713 22.1625H45.7375C46.744 22.1625 46.744 22.9049 46.744 23.1941V26.5686H33.2649V23.1941ZM60.9756 54.1912C60.9756 58.4527 57.7587 58.9155 56.3666 58.9155H23.6329C22.2502 58.9155 19.0238 58.4527 19.0238 54.1912V33.2405C19.0238 28.979 22.2408 28.5162 23.6329 28.5162H56.3666C57.7493 28.5162 60.9756 28.979 60.9756 33.2405V54.1912Z" fill="white"/>
</g>
<defs>
<clipPath id="clip0_18981_48">
<rect width="45.7143" height="46.8571" fill="white" transform="translate(17.1426 17.1426)"/>
</clipPath>
</defs>
</svg>
