<svg width="80" height="80" viewBox="0 0 80 80" fill="none" xmlns="http://www.w3.org/2000/svg">
<rect width="80" height="80" rx="14.7368" fill="#FDF0ED"/>
<path fill-rule="evenodd" clip-rule="evenodd" d="M47.6483 26.8015C47.986 26.8015 48.2612 27.0766 48.2612 27.4148C48.2612 27.7522 47.9861 28.0274 47.6483 28.0274C47.3105 28.0274 47.036 27.7522 47.036 27.4148C47.036 27.0766 47.3106 26.8015 47.6483 26.8015ZM47.6483 29.4476C48.7698 29.4476 49.6812 28.535 49.6812 27.4148C49.6812 26.2936 48.7698 25.3811 47.6483 25.3811C46.5274 25.3811 45.616 26.2936 45.616 27.4148C45.616 28.535 46.5274 29.4476 47.6483 29.4476ZM41.458 26.8015C41.7962 26.8015 42.0703 27.0766 42.0703 27.4148C42.0703 27.7522 41.7962 28.0274 41.458 28.0274C41.1198 28.0274 40.8452 27.7522 40.8452 27.4148C40.8452 27.0766 41.1198 26.8015 41.458 26.8015ZM41.458 29.4476C42.5789 29.4476 43.4908 28.535 43.4908 27.4148C43.4908 26.2936 42.5789 25.3811 41.458 25.3811C40.337 25.3811 39.4251 26.2936 39.4251 27.4148C39.4251 28.535 40.3371 29.4476 41.458 29.4476ZM35.2672 26.8015C35.6054 26.8015 35.88 27.0766 35.88 27.4148C35.88 27.7522 35.6054 28.0274 35.2672 28.0274C34.9299 28.0274 34.6549 27.7522 34.6549 27.4148C34.6549 27.0766 34.9299 26.8015 35.2672 26.8015ZM35.2672 29.4476C36.3887 29.4476 37.3001 28.535 37.3001 27.4148C37.3001 26.2936 36.3887 25.3811 35.2672 25.3811C34.1463 25.3811 33.2343 26.2936 33.2343 27.4148C33.2343 28.535 34.1463 29.4476 35.2672 29.4476ZM29.7043 22.4996V32.329C29.7043 34.2959 31.3037 35.939 33.2699 35.9913C33.6552 36.0011 33.962 36.3162 33.962 36.7006V41.068L38.8294 36.1999C38.9627 36.0668 39.144 35.9922 39.3319 35.9922H49.5484C51.5682 35.9922 53.2118 34.349 53.2118 32.3289V22.4996C53.2118 20.4793 51.5682 18.8364 49.5484 18.8364H33.3676C31.3473 18.8364 29.7043 20.4793 29.7043 22.4996ZM32.5414 37.3443V42.7832C32.5414 43.4146 33.3086 43.731 33.754 43.2854L39.6256 37.4126H49.5484C52.3514 37.4126 54.6318 35.1323 54.6318 32.329V22.4996C54.6318 19.6966 52.3514 17.416 49.5484 17.416H33.3676C30.5646 17.416 28.2842 19.6966 28.2842 22.4996V32.329C28.2842 34.8243 30.1382 36.943 32.5414 37.3443ZM58.2651 49.6608C58.2365 49.6847 58.2135 49.7005 58.1824 49.7219L42.9342 59.6603C42.7061 59.8094 42.4672 59.8458 42.2046 59.7723L32.7829 57.1367C32.368 57.0204 31.9651 57.0194 31.5508 57.1323L28.0638 58.0831V48.1251L33.1052 46.7298L42.1426 49.1511C43.2655 49.4522 43.935 50.6106 43.6338 51.7343C43.3332 52.8572 42.1742 53.5257 41.0508 53.2248L31.827 50.7536C31.4476 50.6523 31.0593 50.8769 30.9571 51.256C30.8559 51.6342 31.0803 52.0238 31.4591 52.1251L40.6829 54.5971C42.4204 55.0619 44.2538 54.1402 44.897 52.4366L57.5357 46.7555C57.7266 46.6693 57.8944 46.6525 58.0974 46.6977C59.5656 47.0261 59.5351 48.6083 58.2651 49.6608ZM26.6437 59.2042C26.6437 59.6559 26.2764 60.0243 25.8234 60.0243H20.4674C20.0144 60.0243 19.6471 59.6559 19.6471 59.2042V47.4788C19.6471 47.027 20.0144 46.6587 20.4674 46.6587H25.8234C26.2764 46.6587 26.6437 47.0271 26.6437 47.4788V59.2042ZM60.5526 47.3075C60.3106 46.3044 59.5089 45.5589 58.408 45.312C57.902 45.1985 57.4264 45.2472 56.9534 45.4594L45.1029 50.7872C44.9411 49.3899 43.9479 48.1649 42.5099 47.7788L33.2861 45.3075C33.1638 45.2748 33.035 45.2755 32.9123 45.3092L27.9211 46.6905C27.6019 45.8427 26.7821 45.2384 25.8236 45.2384H20.4674C19.2318 45.2384 18.2266 46.2431 18.2266 47.4787V59.2041C18.2266 60.4388 19.2317 61.4444 20.4674 61.4444H25.8234C26.9368 61.4444 27.8622 60.6278 28.0356 59.5627L31.9245 58.5028C32.0928 58.4566 32.2316 58.4566 32.4 58.5036L41.8217 61.14C42.4731 61.3223 43.1296 61.2274 43.7092 60.8499L58.9575 50.9113C59.0346 50.8608 59.1002 50.8128 59.1714 50.7533C60.3076 49.8108 60.8367 48.4907 60.5526 47.3075Z" fill="#EF6C33"/>
</svg>
