<svg width="80" height="80" viewBox="0 0 80 80" fill="none" xmlns="http://www.w3.org/2000/svg">
<rect width="80" height="80" rx="14.7368" fill="#FDF0ED"/>
<path d="M59.148 27.877L48.9915 17.7205C48.9223 17.6514 48.8403 17.5964 48.75 17.5585C48.6584 17.5199 48.56 17.5 48.4605 17.5H26.4473C26.2484 17.5 26.0576 17.579 25.917 17.7197C25.7763 17.8603 25.6973 18.0511 25.6973 18.25V21.9798H21.3008C21.1019 21.9798 20.9111 22.0588 20.7705 22.1994C20.6298 22.3401 20.5508 22.5308 20.5508 22.7297V61.75C20.5508 61.9489 20.6298 62.1397 20.7705 62.2803C20.9111 62.421 21.1019 62.5 21.3008 62.5H53.5508C53.7497 62.5 53.9405 62.421 54.0811 62.2803C54.2218 62.1397 54.3008 61.9489 54.3008 61.75V58.0202H58.6973C58.8962 58.0202 59.087 57.9412 59.2276 57.8006C59.3683 57.6599 59.4473 57.4692 59.4473 57.2702V28.4897C59.4473 28.4852 59.4473 28.4815 59.4473 28.4762C59.4473 28.471 59.4473 28.468 59.4473 28.4635C59.4463 28.3492 59.4187 28.2368 59.3668 28.135C59.3148 28.0332 59.24 27.9449 59.148 27.877ZM49.2105 20.0605L56.8605 27.7105H49.2105V20.0605ZM52.8038 61H22.0538V23.4797H25.7003V57.2702C25.7003 57.4692 25.7793 57.6599 25.92 57.8006C26.0606 57.9412 26.2514 58.0202 26.4503 58.0202H52.8038V61ZM27.1973 56.5202V22.75C27.1973 22.744 27.1973 22.7387 27.1973 22.732C27.1973 22.7252 27.1973 22.7207 27.1973 22.714V19H47.7105V28.4635C47.7105 28.6624 47.7896 28.8532 47.9302 28.9938C48.0709 29.1345 48.2616 29.2135 48.4605 29.2135H57.9503V56.5202H27.1973Z" fill="#EF6C33"/>
<path d="M35.7434 27.6958L32.3587 31.0805L30.9262 29.651C30.857 29.5794 30.7742 29.5222 30.6827 29.4829C30.5912 29.4436 30.4928 29.4229 30.3932 29.4221C30.2937 29.4212 30.1949 29.4402 30.1027 29.4779C30.0105 29.5156 29.9268 29.5713 29.8564 29.6417C29.786 29.7121 29.7303 29.7959 29.6926 29.888C29.6549 29.9802 29.6359 30.079 29.6367 30.1786C29.6376 30.2781 29.6583 30.3766 29.6976 30.4681C29.7369 30.5596 29.7941 30.6423 29.8657 30.7115L31.8262 32.6713C31.9668 32.8119 32.1576 32.8909 32.3564 32.8909C32.5553 32.8909 32.746 32.8119 32.8867 32.6713L36.8017 28.7563C36.8733 28.6871 36.9305 28.6043 36.9698 28.5128C37.0091 28.4213 37.0298 28.3229 37.0306 28.2233C37.0315 28.1237 37.0125 28.025 36.9748 27.9328C36.9371 27.8406 36.8814 27.7569 36.811 27.6865C36.7406 27.616 36.6568 27.5604 36.5647 27.5226C36.4725 27.4849 36.3737 27.466 36.2741 27.4668C36.1746 27.4677 36.0761 27.4884 35.9846 27.5277C35.8931 27.567 35.8104 27.6241 35.7412 27.6958H35.7434Z" fill="#EF6C33"/>
<path d="M35.7422 36.2203L32.3574 39.605L30.9249 38.1725C30.8553 38.1029 30.7725 38.0477 30.6815 38.01C30.5905 37.9724 30.4929 37.953 30.3944 37.953C30.2959 37.9531 30.1984 37.9725 30.1074 38.0102C30.0164 38.048 29.9337 38.1032 29.8641 38.1729C29.7944 38.2426 29.7392 38.3253 29.7015 38.4163C29.6639 38.5074 29.6445 38.6049 29.6445 38.7034C29.6446 38.802 29.664 38.8995 29.7017 38.9905C29.7395 39.0815 29.7948 39.1642 29.8644 39.2338L31.8249 41.1958C31.9656 41.3364 32.1563 41.4154 32.3552 41.4154C32.5541 41.4154 32.7448 41.3364 32.8854 41.1958L36.8004 37.2808C36.9371 37.1393 37.0126 36.9499 37.0109 36.7532C37.0092 36.5566 36.9304 36.3685 36.7913 36.2294C36.6522 36.0904 36.4641 36.0115 36.2675 36.0098C36.0708 36.0081 35.8814 36.0837 35.7399 36.2203H35.7422Z" fill="#EF6C33"/>
<path d="M35.7434 44.7446L32.3587 48.1293L30.9262 46.6976C30.857 46.626 30.7742 46.5688 30.6827 46.5295C30.5912 46.4902 30.4928 46.4695 30.3932 46.4687C30.2937 46.4678 30.1949 46.4868 30.1027 46.5245C30.0105 46.5622 29.9268 46.6179 29.8564 46.6883C29.786 46.7587 29.7303 46.8425 29.6926 46.9346C29.6549 47.0268 29.6359 47.1256 29.6367 47.2251C29.6376 47.3247 29.6583 47.4231 29.6976 47.5146C29.7369 47.6061 29.7941 47.6889 29.8657 47.7581L31.8262 49.7201C31.9668 49.8607 32.1576 49.9397 32.3564 49.9397C32.5553 49.9397 32.746 49.8607 32.8867 49.7201L36.8017 45.8051C36.8733 45.7359 36.9305 45.6531 36.9698 45.5616C37.0091 45.4701 37.0298 45.3717 37.0306 45.2721C37.0315 45.1726 37.0125 45.0738 36.9748 44.9816C36.9371 44.8895 36.8814 44.8057 36.811 44.7353C36.7406 44.6649 36.6568 44.6092 36.5647 44.5715C36.4725 44.5338 36.3737 44.5148 36.2741 44.5157C36.1746 44.5165 36.0761 44.5372 35.9846 44.5765C35.8931 44.6158 35.8104 44.673 35.7412 44.7446H35.7434Z" fill="#EF6C33"/>
<path d="M39.4688 30.9336H46.1438C46.3427 30.9336 46.5334 30.8546 46.6741 30.7139C46.8147 30.5733 46.8938 30.3825 46.8938 30.1836C46.8938 29.9847 46.8147 29.7939 46.6741 29.6533C46.5334 29.5126 46.3427 29.4336 46.1438 29.4336H39.4688C39.2698 29.4336 39.0791 29.5126 38.9384 29.6533C38.7978 29.7939 38.7188 29.9847 38.7188 30.1836C38.7188 30.3825 38.7978 30.5733 38.9384 30.7139C39.0791 30.8546 39.2698 30.9336 39.4688 30.9336Z" fill="#EF6C33"/>
<path d="M52.242 38.5H39.4688C39.2698 38.5 39.0791 38.579 38.9384 38.7197C38.7978 38.8603 38.7188 39.0511 38.7188 39.25C38.7188 39.4489 38.7978 39.6397 38.9384 39.7803C39.0791 39.921 39.2698 40 39.4688 40H52.242C52.4409 40 52.6317 39.921 52.7723 39.7803C52.913 39.6397 52.992 39.4489 52.992 39.25C52.992 39.0511 52.913 38.8603 52.7723 38.7197C52.6317 38.579 52.4409 38.5 52.242 38.5Z" fill="#EF6C33"/>
<path d="M48.759 47.4238H39.4688C39.2698 47.4238 39.0791 47.5028 38.9384 47.6435C38.7978 47.7841 38.7188 47.9749 38.7188 48.1738C38.7188 48.3727 38.7978 48.5635 38.9384 48.7042C39.0791 48.8448 39.2698 48.9238 39.4688 48.9238H48.759C48.9579 48.9238 49.1487 48.8448 49.2893 48.7042C49.43 48.5635 49.509 48.3727 49.509 48.1738C49.509 47.9749 49.43 47.7841 49.2893 47.6435C49.1487 47.5028 48.9579 47.4238 48.759 47.4238Z" fill="#EF6C33"/>
</svg>
