<svg width="81" height="80" viewBox="0 0 81 80" fill="none" xmlns="http://www.w3.org/2000/svg">
<rect x="0.945312" width="80" height="80" rx="14.7368" fill="#FDF0ED"/>
<g clip-path="url(#clip0_18807_10243)">
<path d="M57.5696 32.9524C57.3309 31.5982 56.4649 30.5206 55.1937 29.9958L54.5455 29.7283C53.3975 29.2544 52.736 28.1086 52.8995 26.8774L52.992 26.1821C53.1731 24.819 52.6728 23.5303 51.6194 22.6463C50.5658 21.7623 49.2096 21.4936 47.899 21.9086L47.2304 22.1202C46.0463 22.4954 44.803 22.0429 44.1368 20.9942L43.7609 20.4026C43.0234 19.2419 41.8118 18.5762 40.4366 18.5762C39.0615 18.5762 37.8498 19.2419 37.1123 20.4026L36.7363 20.9944C36.0702 22.0429 34.8269 22.4954 33.6427 22.1203L32.9741 21.9086C31.6632 21.4937 30.3072 21.7625 29.2537 22.6463C28.2003 23.5303 27.7001 24.819 27.8813 26.1821L27.9737 26.8773C28.1373 28.1086 27.4758 29.2543 26.3275 29.7283L25.6793 29.996C24.4082 30.5206 23.5423 31.5983 23.3033 32.9526C23.0647 34.3067 23.5098 35.6155 24.5248 36.5434L25.0425 37.0165C25.9594 37.8546 26.1891 39.1575 25.6142 40.2587L25.2896 40.8801C24.6531 42.0993 24.6824 43.4814 25.37 44.6722C26.0576 45.8633 27.24 46.5797 28.6138 46.6379L29.3143 46.6676C29.3172 46.6677 29.32 46.6682 29.3229 46.6683L25.4312 55.8367C25.336 56.0609 25.381 56.32 25.5461 56.4989C25.7112 56.6778 25.9659 56.7436 26.1969 56.6665L31.4827 54.9082L33.8897 59.9319C33.9929 60.1472 34.2103 60.2838 34.4483 60.2838C34.453 60.2838 34.4577 60.2837 34.4624 60.2836C34.7058 60.2781 34.9234 60.1305 35.0185 59.9064L38.6048 51.4574L38.7906 51.3146C39.7751 50.5572 41.098 50.5572 42.0826 51.3146L42.2681 51.4573L45.8546 59.9063C45.9497 60.1305 46.1674 60.2781 46.4107 60.2835C46.4155 60.2836 46.4202 60.2837 46.4249 60.2837C46.6627 60.2837 46.8803 60.1472 46.9834 59.9318L49.3904 54.9081L54.6762 56.6664C54.907 56.7435 55.1618 56.6777 55.3269 56.4988C55.4921 56.3199 55.537 56.0608 55.4419 55.8367L51.5499 46.6681C51.5529 46.6679 51.5558 46.6675 51.5587 46.6673L52.2591 46.6377C53.633 46.5795 54.8154 45.863 55.5029 44.6721C56.1906 43.4811 56.22 42.099 55.5834 40.8801L55.2589 40.2584C54.684 39.1573 54.9137 37.8544 55.8305 37.0164L56.3481 36.5432C57.3632 35.6155 57.8083 34.3067 57.5696 32.9524ZM34.4142 58.1595L32.364 53.8804C32.2293 53.5988 31.9058 53.4615 31.6099 53.5602L27.1076 55.058L30.5251 47.0069C31.1795 47.3708 31.6638 48.0008 31.8364 48.7834L31.9874 49.4683C32.2834 50.8113 33.1942 51.8512 34.4863 52.3215C34.9386 52.4861 35.3997 52.5672 35.8551 52.5672C36.1899 52.5672 36.5213 52.5226 36.8438 52.4358L34.4142 58.1595ZM53.7654 55.058L49.2631 53.5603C48.9672 53.4618 48.6439 53.599 48.509 53.8804L46.4588 58.1596L44.0288 52.4348C44.7898 52.6399 45.6018 52.6072 46.3867 52.3216C47.6789 51.8512 48.5899 50.8113 48.8859 49.4684L49.0368 48.7835C49.2093 48.0008 49.6934 47.3707 50.3479 47.0069L53.7654 55.058ZM55.5123 35.6288L54.9947 36.1019C53.6572 37.3245 53.3221 39.2252 54.1608 40.8317L54.4853 41.4534C54.928 42.3013 54.9084 43.2243 54.4302 44.0527C53.9519 44.8809 53.1623 45.3595 52.2067 45.3999L51.5063 45.4296C49.6957 45.5063 48.2171 46.747 47.8272 48.5169L47.6762 49.2017C47.4703 50.1357 46.8619 50.8303 45.9631 51.1574C45.0644 51.4845 44.1518 51.3435 43.3938 50.7603L42.838 50.3327C41.4016 49.2275 39.4715 49.2277 38.0352 50.3327L37.4795 50.7603C36.7213 51.3435 35.8088 51.4846 34.9102 51.1574C34.0115 50.8303 33.4032 50.1358 33.1973 49.2017L33.0463 48.5168C32.6561 46.747 31.1776 45.5065 29.3671 45.4297L28.6667 45.4C27.7111 45.3595 26.9215 44.881 26.4432 44.0527C25.965 43.2244 25.9454 42.3013 26.3881 41.4534L26.7127 40.8319C27.5515 39.2255 27.2163 37.3246 25.8787 36.1019L25.361 35.6288C24.6551 34.9835 24.3578 34.1094 24.5238 33.1676C24.6899 32.2256 25.2683 31.5059 26.1524 31.1409L26.8006 30.8732C28.4757 30.1818 29.4408 28.5103 29.202 26.7139L29.1096 26.0188C28.9836 25.0707 29.3177 24.21 30.0503 23.5952C30.5546 23.172 31.1409 22.9551 31.7547 22.9551C32.0326 22.9551 32.3163 22.9997 32.6005 23.0896L33.269 23.3012C34.9965 23.8486 36.8103 23.1883 37.7821 21.6586L38.1582 21.0668C38.671 20.2597 39.4802 19.815 40.4366 19.815C41.393 19.815 42.2022 20.2597 42.7151 21.067L43.0911 21.6587C44.0629 23.1883 45.8767 23.8483 47.6042 23.3014L48.2729 23.0897C49.1845 22.8009 50.0903 22.9805 50.823 23.5953C51.5557 24.2102 51.8898 25.0708 51.7639 26.0189L51.6714 26.7142C51.4328 28.5105 52.3977 30.182 54.0728 30.8734L54.7209 31.1409C55.6051 31.5059 56.1835 32.2256 56.3495 33.1675C56.5156 34.1095 56.2183 34.9835 55.5123 35.6288ZM40.4366 25.1442C34.6863 25.1442 30.0081 29.8224 30.0081 35.5726C30.0081 41.3229 34.6863 46.001 40.4366 46.001C46.1868 46.001 50.865 41.3228 50.865 35.5726C50.865 29.8223 46.1868 25.1442 40.4366 25.1442ZM40.4366 44.7622C35.3694 44.7622 31.2469 40.6397 31.2469 35.5726C31.2469 30.5054 35.3694 26.3829 40.4366 26.3829C45.5037 26.3829 49.6262 30.5054 49.6262 35.5726C49.6262 40.6397 45.5037 44.7622 40.4366 44.7622ZM46.0693 30.8047C45.6511 30.4468 45.119 30.2735 44.5696 30.3159C44.0208 30.3586 43.5214 30.6125 43.1638 31.0303L39.2052 35.6486L37.6768 33.9465C36.9159 33.1012 35.6092 33.0324 34.7638 33.7932C34.3544 34.1617 34.1129 34.6677 34.0839 35.2178C34.0549 35.7678 34.2418 36.2961 34.6101 36.7055L37.707 40.1544C38.0993 40.5902 38.6535 40.836 39.2379 40.836C39.2635 40.836 39.2894 40.8356 39.3152 40.8346C39.9239 40.812 40.4867 40.526 40.862 40.0492L46.2954 33.7104C47.0342 32.847 46.9328 31.5435 46.0693 30.8047ZM45.3544 32.9047L39.9122 39.2537C39.9055 39.2615 39.899 39.2695 39.8927 39.2777C39.7429 39.4713 39.5156 39.5875 39.2693 39.5966C39.0222 39.6051 38.7934 39.5096 38.6284 39.3263L35.5319 35.878C35.5318 35.8778 35.5316 35.8776 35.5314 35.8774C35.3842 35.7139 35.3095 35.5028 35.3211 35.2831C35.3327 35.0633 35.4292 34.8613 35.5927 34.714C35.75 34.5726 35.9471 34.5029 36.1435 34.5029C36.3689 34.5029 36.5934 34.5946 36.7556 34.7747L38.7552 37.0017C38.8743 37.1343 39.0442 37.208 39.2232 37.2072C39.4016 37.2052 39.5704 37.1264 39.6864 36.9909L44.1049 31.8361C44.3996 31.4917 44.9196 31.4513 45.264 31.746C45.4308 31.8888 45.5321 32.0879 45.5491 32.3069C45.5661 32.5258 45.4968 32.7383 45.3544 32.9047Z" fill="#EF6C33"/>
</g>
<defs>
<clipPath id="clip0_18807_10243">
<rect width="42.2857" height="42.2857" fill="white" transform="translate(19.293 18.2852)"/>
</clipPath>
</defs>
</svg>
