<svg width="80" height="80" viewBox="0 0 80 80" fill="none" xmlns="http://www.w3.org/2000/svg">
<rect width="80" height="80" rx="14.7368" fill="white"/>
<path d="M56.5233 30.8715H49.7587C49.6799 30.7159 49.599 30.5614 49.5128 30.4091L50.178 29.1007C50.4681 28.5416 50.363 27.8649 49.9163 27.4182L49.7871 27.289L51.9246 25.1493C52.0822 24.9917 52.1705 24.7773 52.1705 24.5545V20.5034C53.4137 20.1387 54.3238 18.9901 54.3238 17.6323C54.3238 15.9803 52.9797 14.6373 51.3287 14.6373C49.6788 14.6373 48.3368 15.9814 48.3368 17.6323C48.3368 18.9901 49.2459 20.1387 50.488 20.5034V24.2067L48.5975 26.0994L48.4693 25.9711C48.0268 25.5287 47.3543 25.4205 46.7878 25.7042L45.4784 26.3736C44.7186 25.9417 43.9052 25.6054 43.0561 25.37L42.6 23.965C42.4046 23.3691 41.8518 22.9698 41.2255 22.9698H41.0426V18.4415C42.2858 18.0768 43.1959 16.9272 43.1959 15.5673C43.1959 13.9153 41.8518 12.5723 40.2008 12.5723C38.5499 12.5723 37.2058 13.9164 37.2058 15.5673C37.2058 16.9272 38.1169 18.0768 39.3591 18.4415V22.9687H39.1762C38.5499 22.9687 37.9982 23.3691 37.8006 23.9671L37.3456 25.369C36.4985 25.6033 35.6852 25.9407 34.9233 26.3726L33.6075 25.699C33.0474 25.4184 32.3748 25.5277 31.9324 25.9701L31.8042 26.0983L29.9137 24.2056V20.5034C31.1548 20.1387 32.0648 18.9901 32.0648 17.6323C32.0648 15.9803 30.7228 14.6373 29.0729 14.6373C27.4209 14.6373 26.0779 15.9814 26.0779 17.6323C26.0779 18.9901 26.989 20.1397 28.2312 20.5034V24.5556C28.2312 24.7784 28.3194 24.9928 28.4771 25.1504L30.6146 27.29L30.4853 27.4193C30.0377 27.8659 29.9326 28.5427 30.2195 29.0955L30.8878 30.4091C30.8017 30.5614 30.7207 30.7159 30.6419 30.8715H23.8773C22.0551 30.8715 20.5723 32.3532 20.5723 34.1734V57.7995C20.5723 59.6207 22.0551 61.1014 23.8773 61.1014H35.8228L34.5334 64.6976H31.9713C31.5068 64.6976 31.1295 65.0738 31.1295 65.5394C31.1295 66.0049 31.5058 66.3811 31.9713 66.3811H35.1261H45.2693H48.4272C48.8917 66.3811 49.269 66.0049 49.269 65.5394C49.269 65.0738 48.8928 64.6976 48.4272 64.6976H45.863L44.5789 61.1025H56.5244C58.3466 61.1025 59.8294 59.6207 59.8294 57.8006V34.1734C59.8284 32.3532 58.3455 30.8715 56.5233 30.8715ZM50.0183 17.6323C50.0183 16.9093 50.6057 16.3197 51.3277 16.3197C52.0507 16.3197 52.6403 16.9082 52.6403 17.6323C52.6403 18.3543 52.0518 18.9417 51.3277 18.9417C50.6057 18.9407 50.0183 18.3543 50.0183 17.6323ZM38.8862 15.5673C38.8862 14.8432 39.4747 14.2547 40.1987 14.2547C40.9228 14.2547 41.5113 14.8432 41.5113 15.5673C41.5113 16.2903 40.9228 16.8799 40.1987 16.8799C39.4747 16.8799 38.8862 16.2914 38.8862 15.5673ZM27.7572 17.6323C27.7572 16.9093 28.3457 16.3197 29.0698 16.3197C29.7917 16.3197 30.3792 16.9082 30.3792 17.6323C30.3792 18.3543 29.7917 18.9417 29.0698 18.9417C28.3457 18.9407 27.7572 18.3543 27.7572 17.6323ZM33.0001 27.2806L34.2738 27.9321C34.7152 28.157 35.2343 28.1402 35.6578 27.8901C36.3567 27.4823 37.1102 27.1692 37.8973 26.9621C38.3828 26.835 38.7506 26.4871 38.9051 26.009L39.3465 24.6512H41.0521L41.4924 26.0079C41.6479 26.4882 42.0147 26.836 42.4991 26.9621C43.2884 27.1702 44.0419 27.4823 44.7375 27.889C45.1642 28.1412 45.6823 28.157 46.1268 27.9311L47.3984 27.2806L48.6027 28.4849L47.9543 29.7617C47.7294 30.2031 47.7462 30.7222 47.9953 31.1447C48.1613 31.4305 48.3116 31.7258 48.4451 32.0264C48.4493 32.038 48.4545 32.0485 48.4598 32.06C48.649 32.4898 48.8045 32.9333 48.9243 33.3873C49.0504 33.8623 49.4046 34.2385 49.8743 34.393L51.2352 34.8354V36.5358L49.8712 36.9782C49.4025 37.1327 49.0483 37.5099 48.9243 37.986C48.7183 38.7658 48.4062 39.5214 47.9974 40.2244C47.7452 40.6511 47.7294 41.1692 47.9543 41.6116L48.6038 42.8863L47.4005 44.0906L46.1247 43.4412C45.6833 43.2163 45.1642 43.2331 44.7438 43.4811C44.0355 43.892 43.28 44.2052 42.5002 44.4112C42.0178 44.5383 41.6511 44.883 41.4945 45.3612L41.0531 46.7189H39.3475L38.9061 45.3591C38.7496 44.883 38.3828 44.5373 37.9015 44.4112C37.1217 44.2052 36.3661 43.892 35.6631 43.4843C35.2364 43.2321 34.7183 43.2163 34.2749 43.4412L33.0001 44.0906L31.7968 42.8874L32.4474 41.6116C32.6712 41.1702 32.6554 40.6511 32.4074 40.2307C31.9955 39.5214 31.6834 38.7668 31.4784 37.9892C31.3534 37.511 30.9992 37.1327 30.5284 36.9782L29.1675 36.5358V34.8354L30.5305 34.393C30.9982 34.2396 31.3523 33.8644 31.4774 33.3883C31.5972 32.9354 31.7527 32.493 31.9408 32.0642C31.9471 32.0516 31.9524 32.039 31.9576 32.0253C32.0911 31.7258 32.2393 31.4326 32.4043 31.1489C32.6554 30.7222 32.6722 30.2041 32.4474 29.7617L31.799 28.4849L33.0001 27.2806ZM53.9623 36.272V55.7009H26.4352V36.272H27.4808V36.7113C27.4808 37.3418 27.8854 37.8935 28.4823 38.0837L29.88 38.5377C30.1123 39.3774 30.4496 40.1918 30.8857 40.9642L30.2184 42.2736C29.9336 42.8296 30.0377 43.5042 30.4822 43.9551L31.9303 45.4032C32.3759 45.8488 33.0516 45.9549 33.6107 45.668L34.9212 45.0007C35.6894 45.4347 36.5027 45.7721 37.3445 46.0054L37.7995 47.4073C37.9961 48.0031 38.5478 48.4025 39.1741 48.4025H41.2234C41.8497 48.4025 42.4014 48.0021 42.599 47.4041L43.053 46.0054C43.8916 45.7731 44.705 45.4368 45.4763 45.0007L46.7857 45.668C47.3469 45.9549 48.0226 45.8488 48.4672 45.4043L49.9195 43.9519C50.3598 43.5053 50.4639 42.8306 50.1801 42.2768L49.5128 40.9663C49.9468 40.1971 50.2852 39.3826 50.5185 38.5398L51.9109 38.0879C52.5131 37.8967 52.9177 37.3439 52.9177 36.7144V36.2751H53.9623V36.272ZM44.0744 64.6976H36.3209L37.6072 61.1025H42.7902L44.0744 64.6976ZM58.1448 57.7995C58.1448 58.6928 57.4176 59.419 56.5233 59.419H23.8742C22.9799 59.419 22.2526 58.6928 22.2526 57.7995V34.1734C22.2526 33.2801 22.9799 32.5539 23.8742 32.5539H29.962C29.9336 32.6464 29.9063 32.7389 29.88 32.8324L28.4781 33.2875C27.9043 33.4766 27.5124 33.9937 27.4829 34.5885H25.5934C25.1289 34.5885 24.7517 34.9647 24.7517 35.4302V56.5427C24.7517 57.0072 25.1279 57.3844 25.5934 57.3844H54.804C55.2685 57.3844 55.6458 57.0082 55.6458 56.5427V35.4313C55.6458 34.9668 55.2696 34.5895 54.804 34.5895H52.9145C52.8851 33.9947 52.4931 33.4777 51.9162 33.2875L50.5175 32.8335C50.4912 32.7399 50.4639 32.6475 50.4355 32.555H56.5233C57.4176 32.555 58.1448 33.2812 58.1448 34.1744V57.7995ZM40.1987 42.7129C44.0744 42.7129 47.2271 39.5613 47.2271 35.6877C47.2271 31.812 44.0744 28.6593 40.1987 28.6593C36.323 28.6593 33.1704 31.812 33.1704 35.6877C33.1704 39.5613 36.323 42.7129 40.1987 42.7129ZM40.1987 30.3418C43.1465 30.3418 45.5446 32.7399 45.5446 35.6877C45.5446 38.6334 43.1465 41.0304 40.1987 41.0304C37.251 41.0304 34.8528 38.6334 34.8528 35.6877C34.8528 32.7399 37.251 30.3418 40.1987 30.3418ZM36.7434 35.9662C36.4155 35.6373 36.4155 35.1045 36.7445 34.7766C37.0734 34.4476 37.6062 34.4487 37.9341 34.7776L39.4537 36.2993L42.4624 33.2906C42.7913 32.9617 43.3241 32.9617 43.652 33.2906C43.9809 33.6195 43.9809 34.1523 43.652 34.4802L40.0474 38.0848C39.8898 38.2424 39.6754 38.3317 39.4526 38.3317C39.2298 38.3317 39.0154 38.2424 38.8578 38.0848L36.7434 35.9662ZM52.2619 50.7071C52.2619 51.1716 51.8857 51.5488 51.4202 51.5488H28.9773C28.5128 51.5488 28.1355 51.1726 28.1355 50.7071C28.1355 50.2415 28.5118 49.8653 28.9773 49.8653H51.4202C51.8847 49.8653 52.2619 50.2415 52.2619 50.7071ZM52.2619 53.4236C52.2619 53.8881 51.8857 54.2654 51.4202 54.2654H28.9773C28.5128 54.2654 28.1355 53.8892 28.1355 53.4236C28.1355 52.9581 28.5118 52.5819 28.9773 52.5819H51.4202C51.8847 52.5819 52.2619 52.9591 52.2619 53.4236Z" fill="#EF6C33"/>
</svg>
