<svg width="70" height="70" viewBox="0 0 70 70" fill="none" xmlns="http://www.w3.org/2000/svg">
<path d="M37.5781 45.8523C37.4072 45.8523 37.2432 45.9202 37.1224 46.0411C37.0015 46.162 36.9336 46.3259 36.9336 46.4969V49.3336C36.9332 49.3903 36.9104 49.4445 36.8701 49.4845C36.8299 49.5245 36.7755 49.5469 36.7188 49.5469H33.2812C33.2243 49.5469 33.1696 49.5242 33.1293 49.4839C33.089 49.4437 33.0664 49.389 33.0664 49.332V46.5C33.0665 46.3512 33.0151 46.207 32.921 46.0918C32.8269 45.9766 32.6958 45.8975 32.55 45.868C31.0156 45.556 29.5563 44.9492 28.2531 44.0813C28.129 43.9995 27.9805 43.963 27.8327 43.9779C27.6848 43.9929 27.5466 44.0583 27.4414 44.1633L25.4297 46.1703C25.3893 46.2107 25.3345 46.2333 25.2773 46.2333C25.2202 46.2333 25.1654 46.2107 25.125 46.1703L22.6945 43.7398C22.6544 43.6993 22.6318 43.6446 22.6318 43.5875C22.6318 43.5304 22.6544 43.4757 22.6945 43.4352L24.7047 41.4258C24.8093 41.3202 24.8742 41.1818 24.8884 41.0338C24.9027 40.8859 24.8654 40.7376 24.7828 40.6141C23.9148 39.3109 23.3081 37.8516 22.9961 36.3172C22.9674 36.1713 22.8893 36.0399 22.7748 35.945C22.6603 35.8502 22.5166 35.7979 22.368 35.7969H19.5312C19.4743 35.7969 19.4196 35.7742 19.3793 35.7339C19.339 35.6937 19.3164 35.639 19.3164 35.582V32.1445C19.317 32.0879 19.3399 32.0338 19.3801 31.9938C19.4203 31.9539 19.4746 31.9315 19.5312 31.9313H22.3766C22.5251 31.9313 22.6691 31.88 22.7842 31.7861C22.8992 31.6921 22.9782 31.5612 23.0078 31.4156C23.3182 29.8822 23.9219 28.4231 24.7859 27.1187C24.8686 26.9952 24.906 26.8469 24.8918 26.6989C24.8776 26.551 24.8125 26.4125 24.7078 26.307L22.6945 24.2945C22.6544 24.254 22.6318 24.1993 22.6318 24.1422C22.6318 24.0851 22.6544 24.0304 22.6945 23.9898L25.125 21.5594C25.1654 21.519 25.2202 21.4963 25.2773 21.4963C25.3345 21.4963 25.3893 21.519 25.4297 21.5594L27.4391 23.5695C27.5443 23.6745 27.6825 23.7399 27.8303 23.7549C27.9782 23.7698 28.1267 23.7333 28.2508 23.6516C29.5542 22.7839 31.0134 22.1772 32.5477 21.8648C32.6934 21.8353 32.8245 21.7562 32.9186 21.641C33.0128 21.5258 33.0641 21.3816 33.0641 21.2328V18.3961C33.0642 18.3677 33.0699 18.3396 33.0808 18.3135C33.0918 18.2873 33.1079 18.2635 33.128 18.2436C33.1482 18.2236 33.1721 18.2078 33.1984 18.1971C33.2247 18.1864 33.2529 18.181 33.2812 18.1813H36.7188C36.7757 18.1815 36.8302 18.2042 36.8704 18.2444C36.9107 18.2847 36.9334 18.3392 36.9336 18.3961V21.2328C36.9336 21.4038 37.0015 21.5677 37.1224 21.6886C37.2432 21.8094 37.4072 21.8773 37.5781 21.8773C37.7491 21.8773 37.913 21.8094 38.0339 21.6886C38.1547 21.5677 38.2227 21.4038 38.2227 21.2328V18.3961C38.2224 17.9972 38.064 17.6146 37.782 17.3323C37.5001 17.0501 37.1177 16.8912 36.7188 16.8906H33.2812C32.8826 16.8912 32.5004 17.0499 32.2185 17.3318C31.9366 17.6137 31.778 17.9959 31.7773 18.3945V20.7188C30.4399 21.0455 29.161 21.577 27.9859 22.2945L26.3406 20.6484C26.0542 20.375 25.6734 20.2224 25.2773 20.2224C24.8813 20.2224 24.5005 20.375 24.2141 20.6484L21.7836 23.0789C21.5018 23.361 21.3436 23.7435 21.3436 24.1422C21.3436 24.5409 21.5018 24.9233 21.7836 25.2055L23.4242 26.8508C22.712 28.0266 22.1845 29.3047 21.8602 30.6406H19.5312C19.1326 30.6412 18.7504 30.7999 18.4685 31.0818C18.1866 31.3637 18.028 31.7459 18.0273 32.1445V35.582C18.0276 35.981 18.186 36.3635 18.468 36.6458C18.7499 36.928 19.1323 37.0869 19.5312 37.0875H21.8523C22.1791 38.4249 22.7106 39.7039 23.4281 40.8789L21.7875 42.5242C21.5057 42.8063 21.3475 43.1888 21.3475 43.5875C21.3475 43.9862 21.5057 44.3687 21.7875 44.6508L24.218 47.0813C24.5041 47.3552 24.8851 47.5082 25.2813 47.5082C25.6774 47.5082 26.0584 47.3552 26.3445 47.0813L27.9898 45.4406C29.1651 46.1576 30.4439 46.6888 31.7813 47.0156V49.3367C31.7827 49.7342 31.9412 50.1149 32.2221 50.3961C32.5031 50.6772 32.8838 50.8359 33.2812 50.8375H36.7188C37.1174 50.8369 37.4996 50.6782 37.7815 50.3963C38.0634 50.1144 38.222 49.7323 38.2227 49.3336V46.5C38.2231 46.4151 38.2067 46.3309 38.1745 46.2524C38.1423 46.1738 38.0949 46.1024 38.035 46.0422C37.9751 45.982 37.9039 45.9343 37.8255 45.9017C37.7471 45.8691 37.663 45.8523 37.5781 45.8523Z" fill="#9D9D9D"/>
<path d="M40.8004 28.7086C40.8 27.8539 40.4604 27.0343 39.8561 26.4297C39.2519 25.8252 38.4325 25.4852 37.5777 25.4844H29.8434C29.1658 25.4825 28.505 25.6949 27.9553 26.0912C27.4057 26.4874 26.9954 27.0473 26.7831 27.6908C26.5708 28.3342 26.5673 29.0283 26.7732 29.6739C26.979 30.3195 27.3837 30.8834 27.9293 31.2852C27.5238 31.5817 27.1939 31.9697 26.9665 32.4177C26.7391 32.8656 26.6206 33.3609 26.6206 33.8633C26.6206 34.3657 26.7391 34.861 26.9665 35.3089C27.1939 35.7569 27.5238 36.1449 27.9293 36.4414C27.383 36.843 26.9777 37.407 26.7715 38.0529C26.5652 38.6987 26.5685 39.3933 26.7809 40.0371C26.9933 40.681 27.4039 41.2412 27.954 41.6375C28.504 42.0339 29.1654 42.2461 29.8434 42.2438H37.5777C38.2553 42.2456 38.9162 42.0332 39.4658 41.637C40.0154 41.2407 40.4257 40.6808 40.638 40.0374C40.8503 39.3939 40.8538 38.6998 40.648 38.0543C40.4421 37.4087 40.0374 36.8447 39.4918 36.443C39.8974 36.1465 40.2272 35.7585 40.4546 35.3105C40.682 34.8625 40.8005 34.3672 40.8005 33.8649C40.8005 33.3625 40.682 32.8672 40.4546 32.4192C40.2272 31.9712 39.8974 31.5832 39.4918 31.2867C39.8963 30.9892 40.2254 30.601 40.4526 30.1532C40.6799 29.7055 40.799 29.2107 40.8004 28.7086ZM39.5113 39.0211C39.5105 39.5335 39.3065 40.0247 38.944 40.3869C38.5815 40.7491 38.0902 40.9527 37.5777 40.9531H29.8434C29.3306 40.9531 28.8387 40.7494 28.4761 40.3868C28.1135 40.0242 27.9098 39.5324 27.9098 39.0195C27.9098 38.5067 28.1135 38.0149 28.4761 37.6523C28.8387 37.2897 29.3306 37.0859 29.8434 37.0859H37.5777C38.0907 37.0864 38.5825 37.2904 38.9451 37.6533C39.3077 38.0162 39.5113 38.5081 39.5113 39.0211ZM39.5113 33.8649C39.5105 34.3773 39.3065 34.8685 38.944 35.2306C38.5815 35.5928 38.0902 35.7965 37.5777 35.7969H29.8434C29.3306 35.7969 28.8387 35.5932 28.4761 35.2305C28.1135 34.8679 27.9098 34.3761 27.9098 33.8633C27.9098 33.3505 28.1135 32.8587 28.4761 32.496C28.8387 32.1334 29.3306 31.9297 29.8434 31.9297H37.5777C38.0907 31.9301 38.5825 32.1342 38.9451 32.497C39.3077 32.8599 39.5113 33.3519 39.5113 33.8649ZM37.5777 30.6406H29.8434C29.3306 30.6406 28.8387 30.4369 28.4761 30.0743C28.1135 29.7117 27.9098 29.2199 27.9098 28.707C27.9098 28.1942 28.1135 27.7024 28.4761 27.3398C28.8387 26.9772 29.3306 26.7734 29.8434 26.7734H37.5777C38.0906 26.7734 38.5824 26.9772 38.945 27.3398C39.3076 27.7024 39.5113 28.1942 39.5113 28.707C39.5113 29.2199 39.3076 29.7117 38.945 30.0743C38.5824 30.4369 38.0906 30.6406 37.5777 30.6406Z" fill="#9D9D9D"/>
<path d="M36.7188 28.0625H33.2812C33.1103 28.0625 32.9464 28.1304 32.8255 28.2513C32.7046 28.3722 32.6367 28.5361 32.6367 28.707C32.6367 28.878 32.7046 29.0419 32.8255 29.1628C32.9464 29.2837 33.1103 29.3516 33.2812 29.3516H36.7188C36.8897 29.3516 37.0536 29.2837 37.1745 29.1628C37.2954 29.0419 37.3633 28.878 37.3633 28.707C37.3633 28.5361 37.2954 28.3722 37.1745 28.2513C37.0536 28.1304 36.8897 28.0625 36.7188 28.0625Z" fill="#9D9D9D"/>
<path d="M30.7031 29.5684C31.1777 29.5684 31.5625 29.1836 31.5625 28.709C31.5625 28.2344 31.1777 27.8496 30.7031 27.8496C30.2285 27.8496 29.8438 28.2344 29.8438 28.709C29.8438 29.1836 30.2285 29.5684 30.7031 29.5684Z" fill="#9D9D9D"/>
<path d="M33.2812 34.5098H36.7188C36.8897 34.5098 37.0536 34.4419 37.1745 34.321C37.2954 34.2001 37.3633 34.0362 37.3633 33.8652C37.3633 33.6943 37.2954 33.5304 37.1745 33.4095C37.0536 33.2886 36.8897 33.2207 36.7188 33.2207H33.2812C33.1103 33.2207 32.9464 33.2886 32.8255 33.4095C32.7046 33.5304 32.6367 33.6943 32.6367 33.8652C32.6367 34.0362 32.7046 34.2001 32.8255 34.321C32.9464 34.4419 33.1103 34.5098 33.2812 34.5098Z" fill="#9D9D9D"/>
<path d="M30.7031 34.7246C31.1777 34.7246 31.5625 34.3399 31.5625 33.8652C31.5625 33.3906 31.1777 33.0059 30.7031 33.0059C30.2285 33.0059 29.8438 33.3906 29.8438 33.8652C29.8438 34.3399 30.2285 34.7246 30.7031 34.7246Z" fill="#9D9D9D"/>
<path d="M33.2812 39.666H36.7188C36.8897 39.666 37.0536 39.5981 37.1745 39.4772C37.2954 39.3564 37.3633 39.1924 37.3633 39.0215C37.3633 38.8505 37.2954 38.6866 37.1745 38.5657C37.0536 38.4449 36.8897 38.377 36.7188 38.377H33.2812C33.1103 38.377 32.9464 38.4449 32.8255 38.5657C32.7046 38.6866 32.6367 38.8505 32.6367 39.0215C32.6367 39.1924 32.7046 39.3564 32.8255 39.4772C32.9464 39.5981 33.1103 39.666 33.2812 39.666Z" fill="#9D9D9D"/>
<path d="M30.7031 39.8809C31.1777 39.8809 31.5625 39.4961 31.5625 39.0215C31.5625 38.5469 31.1777 38.1621 30.7031 38.1621C30.2285 38.1621 29.8438 38.5469 29.8438 39.0215C29.8438 39.4961 30.2285 39.8809 30.7031 39.8809Z" fill="#9D9D9D"/>
<path d="M40.1562 24.1961C40.2565 24.1963 40.3553 24.1731 40.445 24.1283C40.5346 24.0836 40.6126 24.0185 40.6727 23.9383L43.057 20.7586H47.3437C47.4995 21.3073 47.8484 21.7811 48.3261 22.0927C48.8038 22.4043 49.3781 22.5326 49.943 22.454C50.5079 22.3754 51.0253 22.0951 51.3998 21.6649C51.7742 21.2347 51.9805 20.6836 51.9805 20.1133C51.9805 19.5429 51.7742 18.9918 51.3998 18.5616C51.0253 18.1314 50.5079 17.8512 49.943 17.7726C49.3781 17.6939 48.8038 17.8223 48.3261 18.1339C47.8484 18.4455 47.4995 18.9193 47.3437 19.468H42.7344C42.6343 19.4682 42.5357 19.4915 42.4463 19.5363C42.3568 19.581 42.2789 19.6459 42.2187 19.7258L39.6406 23.1633C39.5688 23.259 39.5251 23.3728 39.5143 23.4919C39.5036 23.6111 39.5262 23.7309 39.5796 23.8379C39.633 23.9449 39.7152 24.035 39.8169 24.098C39.9186 24.161 40.0358 24.1944 40.1555 24.1945L40.1562 24.1961ZM49.6094 19.0398C49.8218 19.0398 50.0295 19.1029 50.2062 19.2209C50.3828 19.3389 50.5205 19.5067 50.6018 19.703C50.6831 19.8993 50.7044 20.1153 50.663 20.3236C50.6215 20.532 50.5192 20.7234 50.369 20.8737C50.2187 21.0239 50.0273 21.1262 49.8189 21.1676C49.6106 21.2091 49.3946 21.1878 49.1983 21.1065C49.002 21.0252 48.8342 20.8875 48.7162 20.7109C48.5982 20.5342 48.5352 20.3265 48.5352 20.1141C48.5356 19.8293 48.6489 19.5563 48.8502 19.3549C49.0516 19.1536 49.3246 19.0403 49.6094 19.0398Z" fill="#9D9D9D"/>
<path d="M49.6095 36.6563C49.0962 36.6572 48.5974 36.8256 48.1885 37.1358C47.7796 37.446 47.4831 37.881 47.3438 38.375H44.6095L43.0266 37.5836C42.9509 37.5457 42.8685 37.5232 42.7841 37.5172C42.6996 37.5112 42.6148 37.5219 42.5345 37.5486C42.4542 37.5754 42.38 37.6177 42.316 37.6732C42.2521 37.7287 42.1997 37.7962 42.1618 37.8719C42.1239 37.9476 42.1014 38.03 42.0954 38.1145C42.0894 38.1989 42.1001 38.2837 42.1268 38.364C42.1536 38.4443 42.1959 38.5186 42.2514 38.5825C42.3069 38.6465 42.3744 38.6989 42.4501 38.7367L44.1688 39.5961C44.2584 39.6408 44.3571 39.664 44.4571 39.6641H47.3477C47.4685 40.0859 47.7045 40.4656 48.0293 40.7607C48.3541 41.0557 48.7547 41.2543 49.1861 41.3341C49.6176 41.4139 50.0627 41.3718 50.4715 41.2125C50.8804 41.0532 51.2366 40.783 51.5003 40.4323C51.764 40.0817 51.9247 39.6644 51.9642 39.2274C52.0038 38.7904 51.9206 38.3511 51.7242 37.9588C51.5277 37.5665 51.2257 37.2367 50.8522 37.0066C50.4786 36.7765 50.0482 36.6552 49.6095 36.6563ZM49.6095 40.0938C49.397 40.0938 49.1893 40.0308 49.0127 39.9127C48.836 39.7947 48.6983 39.6269 48.617 39.4306C48.5357 39.2343 48.5144 39.0183 48.5559 38.81C48.5973 38.6016 48.6996 38.4102 48.8499 38.26C49.0001 38.1097 49.1915 38.0074 49.3999 37.966C49.6083 37.9245 49.8243 37.9458 50.0205 38.0271C50.2168 38.1084 50.3846 38.2461 50.5026 38.4227C50.6207 38.5994 50.6837 38.8071 50.6837 39.0195C50.6835 39.3044 50.5702 39.5775 50.3688 39.7789C50.1674 39.9803 49.8943 40.0936 49.6095 40.0938Z" fill="#9D9D9D"/>
<path d="M49.609 26.3438C49.0958 26.3447 48.5969 26.5131 48.188 26.8233C47.7791 27.1334 47.4826 27.5685 47.3433 28.0625H44.4527C44.3681 28.0624 44.2843 28.0791 44.2061 28.1116C44.128 28.144 44.057 28.1916 43.9973 28.2516L43.1379 29.1109C43.0171 29.2317 42.9492 29.3956 42.9492 29.5664C42.9492 29.7372 43.0171 29.9011 43.1379 30.0219C43.2587 30.1427 43.4225 30.2105 43.5933 30.2105C43.7642 30.2105 43.928 30.1427 44.0488 30.0219L44.7199 29.3516H47.3433C47.4641 29.7732 47.7 30.1528 48.0246 30.4478C48.3491 30.7428 48.7495 30.9414 49.1808 31.0214C49.612 31.1014 50.057 31.0595 50.4658 30.9005C50.8745 30.7415 51.2309 30.4717 51.4948 30.1214C51.7587 29.7711 51.9196 29.3541 51.9596 28.9174C51.9996 28.4806 51.917 28.0413 51.7211 27.6489C51.5252 27.2565 51.2238 26.9265 50.8507 26.6959C50.4776 26.4654 50.0476 26.3434 49.609 26.3438ZM49.609 29.7813C49.3965 29.7813 49.1888 29.7182 49.0122 29.6002C48.8355 29.4822 48.6978 29.3144 48.6165 29.1181C48.5352 28.9218 48.5139 28.7058 48.5554 28.4975C48.5968 28.2891 48.6992 28.0977 48.8494 27.9474C48.9996 27.7972 49.191 27.6949 49.3994 27.6535C49.6078 27.612 49.8238 27.6333 50.0201 27.7146C50.2163 27.7959 50.3841 27.9336 50.5022 28.1102C50.6202 28.2869 50.6832 28.4946 50.6832 28.707C50.683 28.9919 50.5697 29.265 50.3683 29.4664C50.1669 29.6678 49.8938 29.781 49.609 29.7813Z" fill="#9D9D9D"/>
<path d="M49.6094 45.25C49.0962 45.251 48.5973 45.4193 48.1884 45.7295C47.7795 46.0397 47.483 46.4748 47.3438 46.9688H43.0562L40.6719 43.7891C40.6211 43.7213 40.5575 43.6643 40.4846 43.6212C40.4118 43.5781 40.3312 43.5497 40.2474 43.5377C40.1636 43.5258 40.0783 43.5304 39.9963 43.5514C39.9143 43.5724 39.8372 43.6094 39.7695 43.6602C39.7018 43.7109 39.6448 43.7746 39.6016 43.8474C39.5585 43.9202 39.5302 44.0008 39.5182 44.0846C39.5062 44.1684 39.5109 44.2537 39.5319 44.3357C39.5529 44.4177 39.5898 44.4948 39.6406 44.5625L42.2187 48C42.2788 48.08 42.3566 48.145 42.4461 48.1898C42.5356 48.2345 42.6343 48.2578 42.7344 48.2578H47.3438C47.4645 48.6795 47.7004 49.0591 48.025 49.3541C48.3495 49.649 48.7499 49.8477 49.1812 49.9276C49.6124 50.0076 50.0574 49.9658 50.4662 49.8068C50.8749 49.6478 51.2313 49.378 51.4952 49.0277C51.7591 48.6773 51.92 48.2604 51.96 47.8236C52 47.3868 51.9174 46.9476 51.7215 46.5552C51.5256 46.1627 51.2242 45.8327 50.8511 45.6022C50.478 45.3716 50.048 45.2497 49.6094 45.25ZM49.6094 48.6875C49.3969 48.6875 49.1892 48.6245 49.0126 48.5065C48.8359 48.3884 48.6982 48.2207 48.6169 48.0244C48.5356 47.8281 48.5143 47.6121 48.5558 47.4037C48.5972 47.1953 48.6996 47.0039 48.8498 46.8537C49 46.7035 49.1914 46.6012 49.3998 46.5597C49.6082 46.5183 49.8242 46.5395 50.0205 46.6208C50.2167 46.7021 50.3845 46.8398 50.5026 47.0165C50.6206 47.1931 50.6836 47.4008 50.6836 47.6133C50.6834 47.8981 50.5701 48.1712 50.3687 48.3726C50.1673 48.574 49.8942 48.6873 49.6094 48.6875Z" fill="#9D9D9D"/>
</svg>
