<svg width="40" height="40" viewBox="0 0 40 40" fill="none" xmlns="http://www.w3.org/2000/svg">
<path d="M22.5781 31.8523C22.4072 31.8523 22.2432 31.9202 22.1224 32.0411C22.0015 32.162 21.9336 32.3259 21.9336 32.4969V35.3336C21.9332 35.3903 21.9104 35.4445 21.8701 35.4845C21.8299 35.5245 21.7755 35.5469 21.7188 35.5469H18.2812C18.2243 35.5469 18.1696 35.5242 18.1293 35.4839C18.089 35.4437 18.0664 35.389 18.0664 35.332V32.5C18.0665 32.3512 18.0151 32.207 17.921 32.0918C17.8269 31.9766 17.6958 31.8975 17.55 31.868C16.0156 31.556 14.5563 30.9492 13.2531 30.0813C13.129 29.9995 12.9805 29.963 12.8327 29.9779C12.6848 29.9929 12.5466 30.0583 12.4414 30.1633L10.4297 32.1703C10.3893 32.2107 10.3345 32.2333 10.2773 32.2333C10.2202 32.2333 10.1654 32.2107 10.125 32.1703L7.69453 29.7398C7.65436 29.6993 7.63182 29.6446 7.63182 29.5875C7.63182 29.5304 7.65436 29.4757 7.69453 29.4352L9.70469 27.4258C9.80929 27.3202 9.8742 27.1818 9.88844 27.0338C9.90268 26.8859 9.86536 26.7376 9.78281 26.6141C8.91485 25.3109 8.30806 23.8516 7.99609 22.3172C7.96745 22.1713 7.88927 22.0399 7.7748 21.945C7.66033 21.8502 7.51661 21.7979 7.36797 21.7969H4.53125C4.47427 21.7969 4.41962 21.7742 4.37933 21.7339C4.33904 21.6937 4.31641 21.639 4.31641 21.582V18.1445C4.31702 18.0879 4.3399 18.0338 4.38011 17.9938C4.42031 17.9539 4.4746 17.9315 4.53125 17.9313H7.37656C7.52512 17.9313 7.66913 17.88 7.78418 17.7861C7.89924 17.6921 7.97825 17.5612 8.00781 17.4156C8.31815 15.8822 8.92193 14.4231 9.78594 13.1187C9.86863 12.9952 9.90603 12.8469 9.89179 12.6989C9.87755 12.551 9.81255 12.4125 9.70781 12.307L7.69453 10.2945C7.65436 10.254 7.63182 10.1993 7.63182 10.1422C7.63182 10.0851 7.65436 10.0304 7.69453 9.98984L10.125 7.55938C10.1654 7.51901 10.2202 7.49635 10.2773 7.49635C10.3345 7.49635 10.3893 7.51901 10.4297 7.55938L12.4391 9.56953C12.5443 9.67447 12.6825 9.73993 12.8303 9.75487C12.9782 9.76982 13.1267 9.73333 13.2508 9.65156C14.5542 8.78392 16.0134 8.17715 17.5477 7.86484C17.6934 7.83527 17.8245 7.75618 17.9186 7.64098C18.0128 7.52578 18.0641 7.38157 18.0641 7.23281V4.39609C18.0642 4.36771 18.0699 4.33963 18.0808 4.31346C18.0918 4.28728 18.1079 4.26353 18.128 4.24357C18.1482 4.22361 18.1721 4.20783 18.1984 4.19714C18.2247 4.18644 18.2529 4.18104 18.2812 4.18125H21.7188C21.7757 4.18146 21.8302 4.20416 21.8704 4.2444C21.9107 4.28465 21.9334 4.33918 21.9336 4.39609V7.23281C21.9336 7.40375 22.0015 7.56769 22.1224 7.68856C22.2432 7.80944 22.4072 7.87734 22.5781 7.87734C22.7491 7.87734 22.913 7.80944 23.0339 7.68856C23.1547 7.56769 23.2227 7.40375 23.2227 7.23281V4.39609C23.2225 3.99715 23.064 3.61459 22.782 3.33235C22.5001 3.05011 22.1177 2.89125 21.7188 2.89062H18.2812C17.8826 2.89124 17.5004 3.04989 17.2185 3.33179C16.9366 3.6137 16.778 3.99586 16.7773 4.39453V6.71875C15.4399 7.04551 14.161 7.57704 12.9859 8.29453L11.3406 6.64844C11.0542 6.37498 10.6734 6.22239 10.2773 6.22239C9.88132 6.22239 9.50052 6.37498 9.21406 6.64844L6.78359 9.07891C6.50183 9.36103 6.34357 9.74346 6.34357 10.1422C6.34357 10.5409 6.50183 10.9233 6.78359 11.2055L8.42422 12.8508C7.71197 14.0266 7.18447 15.3047 6.86016 16.6406H4.53125C4.13258 16.6412 3.75042 16.7999 3.46851 17.0818C3.18661 17.3637 3.02796 17.7459 3.02734 18.1445V21.582C3.02755 21.981 3.18601 22.3635 3.46796 22.6458C3.74991 22.928 4.13231 23.0869 4.53125 23.0875H6.85234C7.1791 24.4249 7.71064 25.7039 8.42812 26.8789L6.7875 28.5242C6.50574 28.8063 6.34748 29.1888 6.34748 29.5875C6.34748 29.9862 6.50574 30.3687 6.7875 30.6508L9.21797 33.0812C9.50415 33.3552 9.88505 33.5082 10.2813 33.5082C10.6774 33.5082 11.0584 33.3552 11.3445 33.0812L12.9898 31.4406C14.1651 32.1576 15.4439 32.6888 16.7812 33.0156V35.3367C16.7827 35.7342 16.9412 36.1149 17.2221 36.3961C17.5031 36.6772 17.8838 36.8359 18.2812 36.8375H21.7188C22.1174 36.8369 22.4996 36.6782 22.7815 36.3963C23.0634 36.1144 23.222 35.7323 23.2227 35.3336V32.5C23.2231 32.4151 23.2067 32.3309 23.1745 32.2524C23.1423 32.1738 23.0949 32.1024 23.035 32.0422C22.9751 31.982 22.9039 31.9343 22.8255 31.9017C22.7471 31.8691 22.663 31.8523 22.5781 31.8523Z" fill="#EF6C33"/>
<path d="M25.8004 14.7086C25.8 13.8539 25.4604 13.0343 24.8561 12.4297C24.2519 11.8252 23.4325 11.4852 22.5777 11.4844H14.8434C14.1658 11.4825 13.505 11.6949 12.9553 12.0912C12.4057 12.4874 11.9954 13.0473 11.7831 13.6908C11.5708 14.3342 11.5673 15.0283 11.7732 15.6739C11.979 16.3195 12.3837 16.8834 12.9293 17.2852C12.5238 17.5817 12.1939 17.9697 11.9665 18.4177C11.7391 18.8656 11.6206 19.3609 11.6206 19.8633C11.6206 20.3657 11.7391 20.861 11.9665 21.3089C12.1939 21.7569 12.5238 22.1449 12.9293 22.4414C12.383 22.843 11.9777 23.407 11.7715 24.0529C11.5652 24.6987 11.5685 25.3933 11.7809 26.0371C11.9933 26.681 12.4039 27.2412 12.954 27.6375C13.504 28.0339 14.1654 28.2461 14.8434 28.2438H22.5777C23.2553 28.2456 23.9162 28.0332 24.4658 27.637C25.0154 27.2407 25.4257 26.6808 25.638 26.0374C25.8503 25.3939 25.8538 24.6998 25.648 24.0543C25.4421 23.4087 25.0374 22.8447 24.4918 22.443C24.8974 22.1465 25.2272 21.7585 25.4546 21.3105C25.682 20.8625 25.8005 20.3672 25.8005 19.8649C25.8005 19.3625 25.682 18.8672 25.4546 18.4192C25.2272 17.9712 24.8974 17.5832 24.4918 17.2867C24.8963 16.9892 25.2254 16.601 25.4526 16.1532C25.6799 15.7055 25.799 15.2107 25.8004 14.7086ZM24.5113 25.0211C24.5105 25.5335 24.3065 26.0247 23.944 26.3869C23.5815 26.7491 23.0902 26.9527 22.5777 26.9531H14.8434C14.3306 26.9531 13.8387 26.7494 13.4761 26.3868C13.1135 26.0242 12.9098 25.5324 12.9098 25.0195C12.9098 24.5067 13.1135 24.0149 13.4761 23.6523C13.8387 23.2897 14.3306 23.0859 14.8434 23.0859H22.5777C23.0907 23.0864 23.5825 23.2904 23.9451 23.6533C24.3077 24.0162 24.5113 24.5081 24.5113 25.0211ZM24.5113 19.8649C24.5105 20.3773 24.3065 20.8685 23.944 21.2306C23.5815 21.5928 23.0902 21.7965 22.5777 21.7969H14.8434C14.3306 21.7969 13.8387 21.5932 13.4761 21.2305C13.1135 20.8679 12.9098 20.3761 12.9098 19.8633C12.9098 19.3505 13.1135 18.8587 13.4761 18.496C13.8387 18.1334 14.3306 17.9297 14.8434 17.9297H22.5777C23.0907 17.9301 23.5825 18.1342 23.9451 18.497C24.3077 18.8599 24.5113 19.3519 24.5113 19.8649ZM22.5777 16.6406H14.8434C14.3306 16.6406 13.8387 16.4369 13.4761 16.0743C13.1135 15.7117 12.9098 15.2199 12.9098 14.707C12.9098 14.1942 13.1135 13.7024 13.4761 13.3398C13.8387 12.9772 14.3306 12.7734 14.8434 12.7734H22.5777C23.0906 12.7734 23.5824 12.9772 23.945 13.3398C24.3076 13.7024 24.5113 14.1942 24.5113 14.707C24.5113 15.2199 24.3076 15.7117 23.945 16.0743C23.5824 16.4369 23.0906 16.6406 22.5777 16.6406Z" fill="#EF6C33"/>
<path d="M21.7188 14.0625H18.2812C18.1103 14.0625 17.9464 14.1304 17.8255 14.2513C17.7046 14.3722 17.6367 14.5361 17.6367 14.707C17.6367 14.878 17.7046 15.0419 17.8255 15.1628C17.9464 15.2837 18.1103 15.3516 18.2812 15.3516H21.7188C21.8897 15.3516 22.0536 15.2837 22.1745 15.1628C22.2954 15.0419 22.3633 14.878 22.3633 14.707C22.3633 14.5361 22.2954 14.3722 22.1745 14.2513C22.0536 14.1304 21.8897 14.0625 21.7188 14.0625Z" fill="#EF6C33"/>
<path d="M15.7031 15.5684C16.1777 15.5684 16.5625 15.1836 16.5625 14.709C16.5625 14.2344 16.1777 13.8496 15.7031 13.8496C15.2285 13.8496 14.8438 14.2344 14.8438 14.709C14.8438 15.1836 15.2285 15.5684 15.7031 15.5684Z" fill="#EF6C33"/>
<path d="M18.2812 20.5098H21.7188C21.8897 20.5098 22.0536 20.4419 22.1745 20.321C22.2954 20.2001 22.3633 20.0362 22.3633 19.8652C22.3633 19.6943 22.2954 19.5304 22.1745 19.4095C22.0536 19.2886 21.8897 19.2207 21.7188 19.2207H18.2812C18.1103 19.2207 17.9464 19.2886 17.8255 19.4095C17.7046 19.5304 17.6367 19.6943 17.6367 19.8652C17.6367 20.0362 17.7046 20.2001 17.8255 20.321C17.9464 20.4419 18.1103 20.5098 18.2812 20.5098Z" fill="#EF6C33"/>
<path d="M15.7031 20.7246C16.1777 20.7246 16.5625 20.3399 16.5625 19.8652C16.5625 19.3906 16.1777 19.0059 15.7031 19.0059C15.2285 19.0059 14.8438 19.3906 14.8438 19.8652C14.8438 20.3399 15.2285 20.7246 15.7031 20.7246Z" fill="#EF6C33"/>
<path d="M18.2812 25.666H21.7188C21.8897 25.666 22.0536 25.5981 22.1745 25.4772C22.2954 25.3564 22.3633 25.1924 22.3633 25.0215C22.3633 24.8505 22.2954 24.6866 22.1745 24.5657C22.0536 24.4449 21.8897 24.377 21.7188 24.377H18.2812C18.1103 24.377 17.9464 24.4449 17.8255 24.5657C17.7046 24.6866 17.6367 24.8505 17.6367 25.0215C17.6367 25.1924 17.7046 25.3564 17.8255 25.4772C17.9464 25.5981 18.1103 25.666 18.2812 25.666Z" fill="#EF6C33"/>
<path d="M15.7031 25.8809C16.1777 25.8809 16.5625 25.4961 16.5625 25.0215C16.5625 24.5469 16.1777 24.1621 15.7031 24.1621C15.2285 24.1621 14.8438 24.5469 14.8438 25.0215C14.8438 25.4961 15.2285 25.8809 15.7031 25.8809Z" fill="#EF6C33"/>
<path d="M25.1562 10.1961C25.2565 10.1963 25.3553 10.1731 25.445 10.1283C25.5346 10.0836 25.6126 10.0185 25.6727 9.93829L28.057 6.7586H32.3437C32.4995 7.30727 32.8484 7.78111 33.3261 8.09271C33.8038 8.4043 34.3781 8.53263 34.943 8.45401C35.5079 8.37539 36.0253 8.09513 36.3998 7.66494C36.7742 7.23474 36.9805 6.68363 36.9805 6.11329C36.9805 5.54294 36.7742 4.99183 36.3998 4.56164C36.0253 4.13144 35.5079 3.85119 34.943 3.77257C34.3781 3.69395 33.8038 3.82227 33.3261 4.13387C32.8484 4.44546 32.4995 4.9193 32.3437 5.46797H27.7344C27.6343 5.46816 27.5357 5.49153 27.4463 5.53627C27.3568 5.581 27.2789 5.64587 27.2187 5.72579L24.6406 9.16329C24.5688 9.25899 24.5251 9.37278 24.5143 9.49193C24.5036 9.61107 24.5262 9.73087 24.5796 9.8379C24.633 9.94493 24.7152 10.035 24.8169 10.098C24.9186 10.161 25.0358 10.1944 25.1555 10.1945L25.1562 10.1961ZM34.6094 5.03985C34.8218 5.03985 35.0295 5.10285 35.2062 5.22089C35.3828 5.33892 35.5205 5.50669 35.6018 5.70298C35.6831 5.89927 35.7044 6.11526 35.663 6.32364C35.6215 6.53202 35.5192 6.72342 35.369 6.87366C35.2187 7.02389 35.0273 7.1262 34.8189 7.16765C34.6106 7.2091 34.3946 7.18782 34.1983 7.10652C34.002 7.02521 33.8342 6.88753 33.7162 6.71087C33.5982 6.53422 33.5352 6.32653 33.5352 6.11407C33.5356 5.82929 33.6489 5.5563 33.8502 5.35494C34.0516 5.15357 34.3246 5.04026 34.6094 5.03985Z" fill="#EF6C33"/>
<path d="M34.6095 22.6563C34.0962 22.6572 33.5974 22.8256 33.1885 23.1358C32.7796 23.446 32.4831 23.881 32.3438 24.375H29.6095L28.0266 23.5836C27.9509 23.5457 27.8685 23.5232 27.7841 23.5172C27.6996 23.5112 27.6148 23.5219 27.5345 23.5486C27.4542 23.5754 27.38 23.6177 27.316 23.6732C27.2521 23.7287 27.1997 23.7962 27.1618 23.8719C27.1239 23.9476 27.1014 24.03 27.0954 24.1145C27.0894 24.1989 27.1001 24.2837 27.1268 24.364C27.1536 24.4443 27.1959 24.5186 27.2514 24.5825C27.3069 24.6465 27.3744 24.6989 27.4501 24.7367L29.1688 25.5961C29.2584 25.6408 29.3571 25.664 29.4571 25.6641H32.3477C32.4685 26.0859 32.7045 26.4656 33.0293 26.7607C33.3541 27.0557 33.7547 27.2543 34.1861 27.3341C34.6176 27.4139 35.0627 27.3718 35.4715 27.2125C35.8804 27.0532 36.2366 26.783 36.5003 26.4323C36.764 26.0817 36.9247 25.6644 36.9642 25.2274C37.0038 24.7904 36.9206 24.3511 36.7242 23.9588C36.5277 23.5665 36.2257 23.2367 35.8522 23.0066C35.4786 22.7765 35.0482 22.6552 34.6095 22.6563ZM34.6095 26.0938C34.397 26.0938 34.1893 26.0308 34.0127 25.9127C33.836 25.7947 33.6983 25.6269 33.617 25.4306C33.5357 25.2343 33.5144 25.0183 33.5559 24.81C33.5973 24.6016 33.6996 24.4102 33.8499 24.26C34.0001 24.1097 34.1915 24.0074 34.3999 23.966C34.6083 23.9245 34.8243 23.9458 35.0205 24.0271C35.2168 24.1084 35.3846 24.2461 35.5026 24.4227C35.6207 24.5994 35.6837 24.8071 35.6837 25.0195C35.6835 25.3044 35.5702 25.5775 35.3688 25.7789C35.1674 25.9803 34.8943 26.0936 34.6095 26.0938Z" fill="#EF6C33"/>
<path d="M34.609 12.3438C34.0958 12.3447 33.5969 12.5131 33.188 12.8233C32.7791 13.1334 32.4826 13.5685 32.3433 14.0625H29.4527C29.3681 14.0624 29.2843 14.0791 29.2061 14.1116C29.128 14.144 29.057 14.1916 28.9973 14.2516L28.1379 15.1109C28.0171 15.2317 27.9492 15.3956 27.9492 15.5664C27.9492 15.7372 28.0171 15.9011 28.1379 16.0219C28.2587 16.1427 28.4225 16.2105 28.5933 16.2105C28.7642 16.2105 28.928 16.1427 29.0488 16.0219L29.7199 15.3516H32.3433C32.4641 15.7732 32.7 16.1528 33.0246 16.4478C33.3491 16.7428 33.7495 16.9414 34.1808 17.0214C34.612 17.1014 35.057 17.0595 35.4658 16.9005C35.8745 16.7415 36.2309 16.4717 36.4948 16.1214C36.7587 15.7711 36.9196 15.3541 36.9596 14.9174C36.9996 14.4806 36.917 14.0413 36.7211 13.6489C36.5252 13.2565 36.2238 12.9265 35.8507 12.6959C35.4776 12.4654 35.0476 12.3434 34.609 12.3438ZM34.609 15.7813C34.3965 15.7813 34.1888 15.7182 34.0122 15.6002C33.8355 15.4822 33.6978 15.3144 33.6165 15.1181C33.5352 14.9218 33.5139 14.7058 33.5554 14.4975C33.5968 14.2891 33.6992 14.0977 33.8494 13.9474C33.9996 13.7972 34.191 13.6949 34.3994 13.6535C34.6078 13.612 34.8238 13.6333 35.0201 13.7146C35.2163 13.7959 35.3841 13.9336 35.5022 14.1102C35.6202 14.2869 35.6832 14.4946 35.6832 14.707C35.683 14.9919 35.5697 15.265 35.3683 15.4664C35.1669 15.6678 34.8938 15.781 34.609 15.7813Z" fill="#EF6C33"/>
<path d="M34.6094 31.25C34.0962 31.251 33.5973 31.4193 33.1884 31.7295C32.7795 32.0397 32.483 32.4748 32.3438 32.9688H28.0562L25.6719 29.7891C25.6211 29.7213 25.5575 29.6643 25.4846 29.6212C25.4118 29.5781 25.3312 29.5497 25.2474 29.5377C25.1636 29.5258 25.0783 29.5304 24.9963 29.5514C24.9143 29.5724 24.8372 29.6094 24.7695 29.6602C24.7018 29.7109 24.6448 29.7746 24.6016 29.8474C24.5585 29.9202 24.5302 30.0008 24.5182 30.0846C24.5062 30.1684 24.5109 30.2537 24.5319 30.3357C24.5529 30.4177 24.5898 30.4948 24.6406 30.5625L27.2187 34C27.2788 34.08 27.3566 34.145 27.4461 34.1898C27.5356 34.2345 27.6343 34.2578 27.7344 34.2578H32.3438C32.4645 34.6795 32.7004 35.0591 33.025 35.3541C33.3495 35.649 33.7499 35.8477 34.1812 35.9276C34.6124 36.0076 35.0574 35.9658 35.4662 35.8068C35.8749 35.6478 36.2313 35.378 36.4952 35.0277C36.7591 34.6773 36.92 34.2604 36.96 33.8236C37 33.3868 36.9174 32.9476 36.7215 32.5552C36.5256 32.1627 36.2242 31.8327 35.8511 31.6022C35.478 31.3716 35.048 31.2497 34.6094 31.25ZM34.6094 34.6875C34.3969 34.6875 34.1892 34.6245 34.0126 34.5065C33.8359 34.3884 33.6982 34.2207 33.6169 34.0244C33.5356 33.8281 33.5143 33.6121 33.5558 33.4037C33.5972 33.1953 33.6996 33.0039 33.8498 32.8537C34 32.7035 34.1914 32.6012 34.3998 32.5597C34.6082 32.5183 34.8242 32.5395 35.0205 32.6208C35.2167 32.7021 35.3845 32.8398 35.5026 33.0165C35.6206 33.1931 35.6836 33.4008 35.6836 33.6133C35.6834 33.8981 35.5701 34.1712 35.3687 34.3726C35.1673 34.574 34.8942 34.6873 34.6094 34.6875Z" fill="#EF6C33"/>
</svg>
