<svg width="80" height="80" viewBox="0 0 80 80" fill="none" xmlns="http://www.w3.org/2000/svg">
<rect width="80" height="80" rx="14.7368" fill="#FDF0ED"/>
<path fill-rule="evenodd" clip-rule="evenodd" d="M40.0615 26.3289C39.1743 26.3289 38.4535 25.607 38.4535 24.7207C38.4535 23.8334 39.1744 23.1115 40.0615 23.1115C40.9488 23.1115 41.6696 23.8334 41.6696 24.7207C41.6695 25.6068 40.9488 26.3289 40.0615 26.3289ZM40.0615 21.7252C38.4097 21.7252 37.0669 23.069 37.0669 24.7207C37.0669 26.3712 38.4098 27.7151 40.0615 27.7151C41.7134 27.7151 43.0562 26.3712 43.0562 24.7207C43.0562 23.069 41.7134 21.7252 40.0615 21.7252ZM43.9283 45.0728C44.1859 45.3573 44.1625 45.7956 43.8787 46.0525L39.6048 49.9067C39.3318 50.153 38.9114 50.143 38.6509 49.8826L36.2181 47.4501C35.9477 47.179 35.9477 46.7412 36.2181 46.4703C36.4891 46.1995 36.9284 46.1995 37.1989 46.4703L39.1649 48.4362L42.95 45.0229C43.2343 44.7668 43.6724 44.789 43.9283 45.0728ZM40.0615 53.8133C43.7689 53.8133 46.7851 50.7977 46.7851 47.0904C46.7851 43.3832 43.7688 40.3664 40.0615 40.3664C36.3543 40.3664 33.3386 43.3832 33.3386 47.0904C33.3386 50.7977 36.3543 53.8133 40.0615 53.8133ZM40.0615 38.98C35.5902 38.98 31.9519 42.6188 31.9519 47.0904C31.9519 51.5621 35.5902 55.1999 40.0615 55.1999C44.5334 55.1999 48.1717 51.5621 48.1717 47.0904C48.1717 42.6188 44.5334 38.98 40.0615 38.98ZM59.9636 56.9521C59.9636 56.9688 59.9466 56.9845 59.9309 56.9845H49.2891C49.8002 56.3126 50.2558 55.5934 50.656 54.8244H59.9309C59.9467 54.8244 59.9636 54.8402 59.9636 54.8569V56.9521ZM40.0615 61.4542C50.938 58.0714 51.8441 49.2762 51.6571 39.6935C47.4849 39.0983 43.2338 37.1287 40.0633 34.3209C36.9576 37.0863 32.6177 39.0973 28.4659 39.6935C28.2791 49.2763 29.185 58.0715 40.0615 61.4542ZM20.1916 56.9845C20.1765 56.9845 20.1595 56.9688 20.1595 56.9521V54.8569C20.1595 54.8402 20.1765 54.8244 20.1916 54.8244H29.4665C29.8672 55.5933 30.3228 56.3126 30.8339 56.9845H20.1916ZM23.108 51.2439H28.0823C28.293 52.011 28.526 52.7113 28.8247 53.4382H23.108V51.2439ZM27.7486 49.8575H25.0494V31.2958H28.7118V38.2509C28.376 38.3073 28.0418 38.3551 27.7089 38.3923C27.3637 38.4301 27.1009 38.7174 27.0926 39.0652C27.0109 42.4986 27.0075 46.3149 27.7486 49.8575ZM50.0257 31.2958V37.9689C46.5263 37.1225 43.104 35.3035 40.5381 32.8754C40.2694 32.6222 39.85 32.623 39.5825 32.8782C37.0873 35.2648 33.6054 37.1085 30.0979 37.9653V31.2959H50.0257V31.2958ZM22.9801 29.9094H57.1424C57.3527 29.9094 57.4677 29.791 57.4677 29.7522V28.2568C57.4677 27.8372 57.164 27.583 56.9099 27.4435L41.1579 18.7878C40.4824 18.4169 39.6404 18.4168 38.9651 18.7878L23.2131 27.4435C22.959 27.583 22.6552 27.8372 22.6552 28.2568V29.7522C22.6553 29.791 22.7703 29.9094 22.9801 29.9094ZM53.0308 39.0652C53.0221 38.7175 52.7586 38.4301 52.414 38.3923C52.0805 38.3551 51.7458 38.308 51.4123 38.2517V31.2956H55.073V49.8575H52.3744C53.1155 46.3149 53.112 42.4986 53.0308 39.0652ZM57.015 51.2439V53.4382H51.2985C51.5958 52.7144 51.831 52.0075 52.0409 51.2439H57.015ZM59.9309 53.4382H58.4011V51.1736C58.4011 50.448 57.8112 49.8575 57.0846 49.8575H56.4595V31.2958H57.1424C58.0863 31.2958 58.8544 30.6035 58.8544 29.7522V28.2568C58.8544 27.4131 58.3889 26.6736 57.577 26.2282L41.8248 17.5735C40.7372 16.9755 39.3857 16.9755 38.2981 17.5735L22.5461 26.2282C21.7342 26.6735 21.2687 27.413 21.2687 28.2568V29.7522C21.2687 30.6035 22.0368 31.2958 22.9801 31.2958H23.6635V49.8577H23.0386C22.3125 49.8577 21.7215 50.4481 21.7215 51.1737V53.4383H20.1916C19.4101 53.4383 18.7734 54.0751 18.7734 54.857V56.9522C18.7734 57.7342 19.4101 58.3709 20.1916 58.3709H32.0325C34.0051 60.3793 36.6001 61.8591 39.8612 62.8434C39.9928 62.8828 40.1299 62.8829 40.2619 62.8434C43.5229 61.8592 46.1181 60.3793 48.0906 58.3709H59.9309C60.713 58.3709 61.3497 57.7342 61.3497 56.9522V54.857C61.3497 54.075 60.713 53.4382 59.9309 53.4382Z" fill="#EF6C33"/>
</svg>
