<svg width="95" height="189" viewBox="0 0 95 189" fill="none" xmlns="http://www.w3.org/2000/svg">
<g opacity="0.1">
<mask id="path-1-inside-1_18807_10811" fill="white">
<path d="M133.68 68.0156H108.535C108.242 67.4375 107.941 66.8633 107.621 66.2969L110.094 61.4336C111.172 59.3555 110.781 56.8398 109.121 55.1797L108.641 54.6992L116.586 46.7461C117.172 46.1602 117.5 45.3633 117.5 44.5352V29.4766C122.121 28.1211 125.504 23.8516 125.504 18.8047C125.504 12.6641 120.508 7.67188 114.371 7.67188C108.238 7.67188 103.25 12.668 103.25 18.8047C103.25 23.8516 106.629 28.1211 111.246 29.4766V43.2422L104.219 50.2773L103.742 49.8008C102.098 48.1562 99.5977 47.7539 97.4922 48.8086L92.625 51.2969C89.8008 49.6914 86.7774 48.4414 83.6211 47.5664L81.9258 42.3438C81.1992 40.1289 79.1445 38.6445 76.8164 38.6445H76.1367V21.8125C80.7578 20.457 84.1406 16.1836 84.1406 11.1289C84.1406 4.98828 79.1445 -0.00390625 73.0078 -0.00390625C66.8711 -0.00390625 61.875 4.99219 61.875 11.1289C61.875 16.1836 65.2617 20.457 69.8789 21.8125V38.6406H69.1992C66.8711 38.6406 64.8203 40.1289 64.0859 42.3516L62.3945 47.5625C59.2461 48.4336 56.2227 49.6875 53.3906 51.293L48.5 48.7891C46.418 47.7461 43.918 48.1523 42.2734 49.7969L41.7969 50.2734L34.7695 43.2383V29.4766C39.3828 28.1211 42.7656 23.8516 42.7656 18.8047C42.7656 12.6641 37.7773 7.67188 31.6445 7.67188C25.5039 7.67188 20.5117 12.668 20.5117 18.8047C20.5117 23.8516 23.8984 28.125 28.5156 29.4766V44.5391C28.5156 45.3672 28.8438 46.1641 29.4297 46.75L37.375 54.7031L36.8945 55.1836C35.2305 56.8438 34.8398 59.3594 35.9062 61.4141L38.3906 66.2969C38.0703 66.8633 37.7695 67.4375 37.4766 68.0156H12.332C5.5586 68.0156 0.046875 73.5234 0.046875 80.2891V168.109C0.046875 174.879 5.5586 180.383 12.332 180.383H56.7344L51.9414 193.75H42.418C40.6914 193.75 39.2891 195.148 39.2891 196.879C39.2891 198.609 40.6875 200.008 42.418 200.008H54.1445H91.8477H103.586C105.312 200.008 106.715 198.609 106.715 196.879C106.715 195.148 105.316 193.75 103.586 193.75H94.0547L89.2812 180.387H133.684C140.457 180.387 145.969 174.879 145.969 168.113V80.2891C145.965 73.5234 140.453 68.0156 133.68 68.0156ZM109.5 18.8047C109.5 16.1172 111.684 13.9258 114.367 13.9258C117.055 13.9258 119.246 16.1133 119.246 18.8047C119.246 21.4883 117.059 23.6719 114.367 23.6719C111.684 23.668 109.5 21.4883 109.5 18.8047ZM68.1211 11.1289C68.1211 8.4375 70.3086 6.25 73 6.25C75.6914 6.25 77.8789 8.4375 77.8789 11.1289C77.8789 13.8164 75.6914 16.0078 73 16.0078C70.3086 16.0078 68.1211 13.8203 68.1211 11.1289ZM26.7539 18.8047C26.7539 16.1172 28.9414 13.9258 31.6328 13.9258C34.3164 13.9258 36.5 16.1133 36.5 18.8047C36.5 21.4883 34.3164 23.6719 31.6328 23.6719C28.9414 23.668 26.7539 21.4883 26.7539 18.8047ZM46.2422 54.668L50.9766 57.0898C52.6172 57.9258 54.5469 57.8633 56.1211 56.9336C58.7187 55.418 61.5195 54.2539 64.4453 53.4844C66.25 53.0117 67.6172 51.7188 68.1914 49.9414L69.832 44.8945H76.1719L77.8086 49.9375C78.3867 51.7227 79.75 53.0156 81.5508 53.4844C84.4844 54.2578 87.2852 55.418 89.8711 56.9297C91.457 57.8672 93.3828 57.9258 95.0352 57.0859L99.7617 54.668L104.238 59.1445L101.828 63.8906C100.992 65.5312 101.055 67.4609 101.98 69.0312C102.598 70.0938 103.156 71.1914 103.652 72.3086C103.668 72.3516 103.688 72.3906 103.707 72.4336C104.41 74.0312 104.988 75.6797 105.434 77.3672C105.902 79.1328 107.219 80.5312 108.965 81.1055L114.023 82.75V89.0703L108.953 90.7148C107.211 91.2891 105.895 92.6914 105.434 94.4609C104.668 97.3594 103.508 100.168 101.988 102.781C101.051 104.367 100.992 106.293 101.828 107.938L104.242 112.676L99.7695 117.152L95.0274 114.738C93.3867 113.902 91.457 113.965 89.8945 114.887C87.2617 116.414 84.4531 117.578 81.5547 118.344C79.7617 118.816 78.3984 120.098 77.8164 121.875L76.1758 126.922H69.8359L68.1953 121.867C67.6133 120.098 66.25 118.813 64.4609 118.344C61.5625 117.578 58.7539 116.414 56.1406 114.898C54.5547 113.961 52.6289 113.902 50.9805 114.738L46.2422 117.152L41.7695 112.68L44.1875 107.938C45.0195 106.297 44.9609 104.367 44.0391 102.805C42.5078 100.168 41.3477 97.3633 40.5859 94.4727C40.1211 92.6953 38.8047 91.2891 37.0547 90.7148L31.9961 89.0703V82.75L37.0625 81.1055C38.8008 80.5352 40.1172 79.1406 40.582 77.3711C41.0273 75.6875 41.6055 74.043 42.3047 72.4492C42.3281 72.4023 42.3477 72.3555 42.3672 72.3047C42.8633 71.1914 43.4141 70.1016 44.0273 69.0469C44.9609 67.4609 45.0234 65.5352 44.1875 63.8906L41.7773 59.1445L46.2422 54.668ZM124.16 88.0898V160.309H21.8398V88.0898H25.7266V89.7227C25.7266 92.0664 27.2305 94.1172 29.4492 94.8242L34.6445 96.5117C35.5078 99.6328 36.7617 102.66 38.3828 105.531L35.9023 110.398C34.8438 112.465 35.2305 114.973 36.8828 116.648L42.2656 122.031C43.9219 123.687 46.4336 124.082 48.5117 123.016L53.3828 120.535C56.2383 122.148 59.2617 123.402 62.3906 124.27L64.082 129.48C64.8125 131.695 66.8633 133.18 69.1914 133.18H76.8086C79.1367 133.18 81.1875 131.691 81.9219 129.469L83.6094 124.27C86.7266 123.406 89.75 122.156 92.6172 120.535L97.4844 123.016C99.5703 124.082 102.082 123.688 103.734 122.035L109.133 116.637C110.77 114.977 111.156 112.469 110.102 110.41L107.621 105.539C109.234 102.68 110.492 99.6523 111.359 96.5195L116.535 94.8398C118.773 94.1289 120.277 92.0742 120.277 89.7344V88.1016H124.16V88.0898ZM87.4063 193.75H58.5859L63.3672 180.387H82.6328L87.4063 193.75ZM139.707 168.109C139.707 171.43 137.004 174.129 133.68 174.129H12.3203C8.9961 174.129 6.29297 171.43 6.29297 168.109V80.2891C6.29297 76.9687 8.9961 74.2695 12.3203 74.2695H34.9492C34.8437 74.6133 34.7422 74.957 34.6445 75.3047L29.4336 76.9961C27.3008 77.6992 25.8438 79.6211 25.7344 81.832H18.7109C16.9844 81.832 15.582 83.2305 15.582 84.9609V163.438C15.582 165.164 16.9805 166.566 18.7109 166.566H127.289C129.016 166.566 130.418 165.168 130.418 163.438V84.9648C130.418 83.2383 129.02 81.8359 127.289 81.8359H120.266C120.156 79.625 118.699 77.7031 116.555 76.9961L111.355 75.3086C111.258 74.9609 111.156 74.6172 111.051 74.2734H133.68C137.004 74.2734 139.707 76.9727 139.707 80.293V168.109ZM73 112.031C87.4062 112.031 99.125 100.316 99.125 85.918C99.125 71.5117 87.4062 59.793 73 59.793C58.5938 59.793 46.875 71.5117 46.875 85.918C46.875 100.316 58.5938 112.031 73 112.031ZM73 66.0469C83.957 66.0469 92.8711 74.9609 92.8711 85.918C92.8711 96.8672 83.957 105.777 73 105.777C62.043 105.777 53.1289 96.8672 53.1289 85.918C53.1289 74.9609 62.043 66.0469 73 66.0469ZM60.1562 86.9531C58.9375 85.7305 58.9375 83.75 60.1602 82.5312C61.3828 81.3086 63.3633 81.3125 64.582 82.5351L70.2305 88.1914L81.4141 77.0078C82.6367 75.7852 84.6172 75.7852 85.8359 77.0078C87.0586 78.2305 87.0586 80.2109 85.8359 81.4297L72.4375 94.8281C71.8516 95.4141 71.0547 95.7461 70.2266 95.7461C69.3984 95.7461 68.6016 95.4141 68.0156 94.8281L60.1562 86.9531ZM117.84 141.746C117.84 143.473 116.441 144.875 114.711 144.875H31.2891C29.5625 144.875 28.1602 143.477 28.1602 141.746C28.1602 140.016 29.5586 138.617 31.2891 138.617H114.711C116.438 138.617 117.84 140.016 117.84 141.746ZM117.84 151.844C117.84 153.57 116.441 154.973 114.711 154.973H31.2891C29.5625 154.973 28.1602 153.574 28.1602 151.844C28.1602 150.113 29.5586 148.715 31.2891 148.715H114.711C116.438 148.715 117.84 150.117 117.84 151.844Z"/>
</mask>
<path d="M133.68 68.0156H108.535C108.242 67.4375 107.941 66.8633 107.621 66.2969L110.094 61.4336C111.172 59.3555 110.781 56.8398 109.121 55.1797L108.641 54.6992L116.586 46.7461C117.172 46.1602 117.5 45.3633 117.5 44.5352V29.4766C122.121 28.1211 125.504 23.8516 125.504 18.8047C125.504 12.6641 120.508 7.67188 114.371 7.67188C108.238 7.67188 103.25 12.668 103.25 18.8047C103.25 23.8516 106.629 28.1211 111.246 29.4766V43.2422L104.219 50.2773L103.742 49.8008C102.098 48.1562 99.5977 47.7539 97.4922 48.8086L92.625 51.2969C89.8008 49.6914 86.7774 48.4414 83.6211 47.5664L81.9258 42.3438C81.1992 40.1289 79.1445 38.6445 76.8164 38.6445H76.1367V21.8125C80.7578 20.457 84.1406 16.1836 84.1406 11.1289C84.1406 4.98828 79.1445 -0.00390625 73.0078 -0.00390625C66.8711 -0.00390625 61.875 4.99219 61.875 11.1289C61.875 16.1836 65.2617 20.457 69.8789 21.8125V38.6406H69.1992C66.8711 38.6406 64.8203 40.1289 64.0859 42.3516L62.3945 47.5625C59.2461 48.4336 56.2227 49.6875 53.3906 51.293L48.5 48.7891C46.418 47.7461 43.918 48.1523 42.2734 49.7969L41.7969 50.2734L34.7695 43.2383V29.4766C39.3828 28.1211 42.7656 23.8516 42.7656 18.8047C42.7656 12.6641 37.7773 7.67188 31.6445 7.67188C25.5039 7.67188 20.5117 12.668 20.5117 18.8047C20.5117 23.8516 23.8984 28.125 28.5156 29.4766V44.5391C28.5156 45.3672 28.8438 46.1641 29.4297 46.75L37.375 54.7031L36.8945 55.1836C35.2305 56.8438 34.8398 59.3594 35.9062 61.4141L38.3906 66.2969C38.0703 66.8633 37.7695 67.4375 37.4766 68.0156H12.332C5.5586 68.0156 0.046875 73.5234 0.046875 80.2891V168.109C0.046875 174.879 5.5586 180.383 12.332 180.383H56.7344L51.9414 193.75H42.418C40.6914 193.75 39.2891 195.148 39.2891 196.879C39.2891 198.609 40.6875 200.008 42.418 200.008H54.1445H91.8477H103.586C105.312 200.008 106.715 198.609 106.715 196.879C106.715 195.148 105.316 193.75 103.586 193.75H94.0547L89.2812 180.387H133.684C140.457 180.387 145.969 174.879 145.969 168.113V80.2891C145.965 73.5234 140.453 68.0156 133.68 68.0156ZM109.5 18.8047C109.5 16.1172 111.684 13.9258 114.367 13.9258C117.055 13.9258 119.246 16.1133 119.246 18.8047C119.246 21.4883 117.059 23.6719 114.367 23.6719C111.684 23.668 109.5 21.4883 109.5 18.8047ZM68.1211 11.1289C68.1211 8.4375 70.3086 6.25 73 6.25C75.6914 6.25 77.8789 8.4375 77.8789 11.1289C77.8789 13.8164 75.6914 16.0078 73 16.0078C70.3086 16.0078 68.1211 13.8203 68.1211 11.1289ZM26.7539 18.8047C26.7539 16.1172 28.9414 13.9258 31.6328 13.9258C34.3164 13.9258 36.5 16.1133 36.5 18.8047C36.5 21.4883 34.3164 23.6719 31.6328 23.6719C28.9414 23.668 26.7539 21.4883 26.7539 18.8047ZM46.2422 54.668L50.9766 57.0898C52.6172 57.9258 54.5469 57.8633 56.1211 56.9336C58.7187 55.418 61.5195 54.2539 64.4453 53.4844C66.25 53.0117 67.6172 51.7188 68.1914 49.9414L69.832 44.8945H76.1719L77.8086 49.9375C78.3867 51.7227 79.75 53.0156 81.5508 53.4844C84.4844 54.2578 87.2852 55.418 89.8711 56.9297C91.457 57.8672 93.3828 57.9258 95.0352 57.0859L99.7617 54.668L104.238 59.1445L101.828 63.8906C100.992 65.5312 101.055 67.4609 101.98 69.0312C102.598 70.0938 103.156 71.1914 103.652 72.3086C103.668 72.3516 103.688 72.3906 103.707 72.4336C104.41 74.0312 104.988 75.6797 105.434 77.3672C105.902 79.1328 107.219 80.5312 108.965 81.1055L114.023 82.75V89.0703L108.953 90.7148C107.211 91.2891 105.895 92.6914 105.434 94.4609C104.668 97.3594 103.508 100.168 101.988 102.781C101.051 104.367 100.992 106.293 101.828 107.938L104.242 112.676L99.7695 117.152L95.0274 114.738C93.3867 113.902 91.457 113.965 89.8945 114.887C87.2617 116.414 84.4531 117.578 81.5547 118.344C79.7617 118.816 78.3984 120.098 77.8164 121.875L76.1758 126.922H69.8359L68.1953 121.867C67.6133 120.098 66.25 118.813 64.4609 118.344C61.5625 117.578 58.7539 116.414 56.1406 114.898C54.5547 113.961 52.6289 113.902 50.9805 114.738L46.2422 117.152L41.7695 112.68L44.1875 107.938C45.0195 106.297 44.9609 104.367 44.0391 102.805C42.5078 100.168 41.3477 97.3633 40.5859 94.4727C40.1211 92.6953 38.8047 91.2891 37.0547 90.7148L31.9961 89.0703V82.75L37.0625 81.1055C38.8008 80.5352 40.1172 79.1406 40.582 77.3711C41.0273 75.6875 41.6055 74.043 42.3047 72.4492C42.3281 72.4023 42.3477 72.3555 42.3672 72.3047C42.8633 71.1914 43.4141 70.1016 44.0273 69.0469C44.9609 67.4609 45.0234 65.5352 44.1875 63.8906L41.7773 59.1445L46.2422 54.668ZM124.16 88.0898V160.309H21.8398V88.0898H25.7266V89.7227C25.7266 92.0664 27.2305 94.1172 29.4492 94.8242L34.6445 96.5117C35.5078 99.6328 36.7617 102.66 38.3828 105.531L35.9023 110.398C34.8438 112.465 35.2305 114.973 36.8828 116.648L42.2656 122.031C43.9219 123.687 46.4336 124.082 48.5117 123.016L53.3828 120.535C56.2383 122.148 59.2617 123.402 62.3906 124.27L64.082 129.48C64.8125 131.695 66.8633 133.18 69.1914 133.18H76.8086C79.1367 133.18 81.1875 131.691 81.9219 129.469L83.6094 124.27C86.7266 123.406 89.75 122.156 92.6172 120.535L97.4844 123.016C99.5703 124.082 102.082 123.688 103.734 122.035L109.133 116.637C110.77 114.977 111.156 112.469 110.102 110.41L107.621 105.539C109.234 102.68 110.492 99.6523 111.359 96.5195L116.535 94.8398C118.773 94.1289 120.277 92.0742 120.277 89.7344V88.1016H124.16V88.0898ZM87.4063 193.75H58.5859L63.3672 180.387H82.6328L87.4063 193.75ZM139.707 168.109C139.707 171.43 137.004 174.129 133.68 174.129H12.3203C8.9961 174.129 6.29297 171.43 6.29297 168.109V80.2891C6.29297 76.9687 8.9961 74.2695 12.3203 74.2695H34.9492C34.8437 74.6133 34.7422 74.957 34.6445 75.3047L29.4336 76.9961C27.3008 77.6992 25.8438 79.6211 25.7344 81.832H18.7109C16.9844 81.832 15.582 83.2305 15.582 84.9609V163.438C15.582 165.164 16.9805 166.566 18.7109 166.566H127.289C129.016 166.566 130.418 165.168 130.418 163.438V84.9648C130.418 83.2383 129.02 81.8359 127.289 81.8359H120.266C120.156 79.625 118.699 77.7031 116.555 76.9961L111.355 75.3086C111.258 74.9609 111.156 74.6172 111.051 74.2734H133.68C137.004 74.2734 139.707 76.9727 139.707 80.293V168.109ZM73 112.031C87.4062 112.031 99.125 100.316 99.125 85.918C99.125 71.5117 87.4062 59.793 73 59.793C58.5938 59.793 46.875 71.5117 46.875 85.918C46.875 100.316 58.5938 112.031 73 112.031ZM73 66.0469C83.957 66.0469 92.8711 74.9609 92.8711 85.918C92.8711 96.8672 83.957 105.777 73 105.777C62.043 105.777 53.1289 96.8672 53.1289 85.918C53.1289 74.9609 62.043 66.0469 73 66.0469ZM60.1562 86.9531C58.9375 85.7305 58.9375 83.75 60.1602 82.5312C61.3828 81.3086 63.3633 81.3125 64.582 82.5351L70.2305 88.1914L81.4141 77.0078C82.6367 75.7852 84.6172 75.7852 85.8359 77.0078C87.0586 78.2305 87.0586 80.2109 85.8359 81.4297L72.4375 94.8281C71.8516 95.4141 71.0547 95.7461 70.2266 95.7461C69.3984 95.7461 68.6016 95.4141 68.0156 94.8281L60.1562 86.9531ZM117.84 141.746C117.84 143.473 116.441 144.875 114.711 144.875H31.2891C29.5625 144.875 28.1602 143.477 28.1602 141.746C28.1602 140.016 29.5586 138.617 31.2891 138.617H114.711C116.438 138.617 117.84 140.016 117.84 141.746ZM117.84 151.844C117.84 153.57 116.441 154.973 114.711 154.973H31.2891C29.5625 154.973 28.1602 153.574 28.1602 151.844C28.1602 150.113 29.5586 148.715 31.2891 148.715H114.711C116.438 148.715 117.84 150.117 117.84 151.844Z" fill="#EF6C33" stroke="#EBF8FC" stroke-width="2.4" mask="url(#path-1-inside-1_18807_10811)"/>
</g>
</svg>
