<svg width="80" height="80" viewBox="0 0 80 80" fill="none" xmlns="http://www.w3.org/2000/svg">
<rect width="80" height="80" rx="14.7368" fill="#FDF0ED"/>
<g clip-path="url(#clip0_18807_9729)">
<path d="M48.0047 39.1799C48.0015 39.1799 47.9985 39.1799 47.9953 39.1799H44.1669V35.2463C44.1721 34.4529 43.5488 33.8054 42.7748 33.8C42.7716 33.8 42.7685 33.8 42.7654 33.8H37.2346C36.4605 33.8 35.833 34.4432 35.833 35.2366V39.1703H32.0047C31.2307 39.165 30.5989 39.8037 30.5938 40.5971C30.5938 40.6036 30.5938 40.61 30.5938 40.6165V46.276C30.5938 47.0694 31.2213 47.7126 31.9953 47.7126H35.833V51.6366C35.8278 52.43 36.4511 53.0775 37.2251 53.0828C37.2283 53.0828 37.2315 53.0828 37.2346 53.0828H42.756C43.53 53.0828 44.1575 52.4396 44.1575 51.6463V47.7126H47.9953C48.7693 47.7179 49.401 47.079 49.4062 46.2856C49.4062 46.2824 49.4062 46.2791 49.4062 46.276V40.6165C49.4062 39.8231 48.7788 39.1799 48.0047 39.1799ZM47.525 45.7843H43.2263C42.7069 45.7843 42.2857 46.216 42.2857 46.7484V51.1545H37.7143V46.7484C37.7143 46.216 37.2931 45.7843 36.7736 45.7843H32.475V41.1082H36.7736C37.2931 41.1082 37.7143 40.6765 37.7143 40.1441V35.7283H42.2763V40.1344C42.2763 40.6669 42.6975 41.0986 43.2169 41.0986H47.525V45.7843Z" fill="#EF6C33"/>
<path d="M56.3666 26.5879H48.6158V23.1941C48.6646 21.6455 47.4793 20.3494 45.9684 20.2994C45.8914 20.2969 45.8144 20.2976 45.7375 20.3017H34.2619C32.7522 20.2211 31.4646 21.4101 31.3858 22.9574C31.3819 23.0363 31.381 23.1152 31.3836 23.1941V26.5686H23.6329C20.6417 26.5686 17.1426 28.3137 17.1426 33.2212V54.1912C17.1426 59.0987 20.6417 60.8438 23.6329 60.8438H56.3666C59.3577 60.8438 62.8569 59.0987 62.8569 54.1912V33.2405C62.8569 28.333 59.3672 26.5879 56.3666 26.5879ZM33.2649 23.1941C33.2649 22.9145 33.2649 22.1625 34.2713 22.1625H45.7375C46.744 22.1625 46.744 22.9049 46.744 23.1941V26.5686H33.2649V23.1941ZM60.9756 54.1912C60.9756 58.4527 57.7587 58.9155 56.3666 58.9155H23.6329C22.2502 58.9155 19.0238 58.4527 19.0238 54.1912V33.2405C19.0238 28.979 22.2408 28.5162 23.6329 28.5162H56.3666C57.7493 28.5162 60.9756 28.979 60.9756 33.2405V54.1912Z" fill="#EF6C33"/>
</g>
<defs>
<clipPath id="clip0_18807_9729">
<rect width="45.7143" height="46.8571" fill="white" transform="translate(17.1426 17.1426)"/>
</clipPath>
</defs>
</svg>
