<svg width="41" height="41" viewBox="0 0 41 41" fill="none" xmlns="http://www.w3.org/2000/svg">
<path d="M17.9363 26.0515C17.6067 26.0263 17.3001 25.873 17.0821 25.6244L11.9571 20.4994C11.8429 20.2604 11.8057 19.9917 11.8505 19.7306C11.8953 19.4695 12.02 19.2286 12.2073 19.0413C12.3947 18.8539 12.6355 18.7293 12.8966 18.6845C13.1578 18.6397 13.4264 18.6769 13.6655 18.7911L17.885 23.0107L32.4571 8.54111C32.6962 8.42692 32.9648 8.38966 33.226 8.43447C33.4871 8.47927 33.7279 8.60393 33.9153 8.79129C34.1026 8.97864 34.2273 9.21947 34.2721 9.4806C34.3169 9.74174 34.2796 10.0104 34.1655 10.2494L18.7905 25.6244C18.5725 25.873 18.2659 26.0263 17.9363 26.0515Z" fill="#EF6C33"/>
<path d="M20.4997 35.8753C17.7518 35.8709 15.0553 35.1301 12.6908 33.73C10.3263 32.33 8.38022 30.3218 7.05511 27.9145C6.04923 26.1201 5.42679 24.1364 5.2272 22.089C4.91454 19.0859 5.49303 16.0572 6.89051 13.3808C8.28798 10.7043 10.4426 8.49852 13.0855 7.03863C14.8799 6.03275 16.8636 5.41031 18.9109 5.21071C20.951 4.99318 23.0139 5.19076 24.9755 5.79155C25.1506 5.82652 25.3164 5.89768 25.4623 6.00046C25.6082 6.10324 25.7311 6.23538 25.8229 6.38841C25.9148 6.54143 25.9737 6.71197 25.9959 6.88908C26.018 7.0662 26.0029 7.24598 25.9515 7.41691C25.9001 7.58785 25.8135 7.74615 25.6974 7.88169C25.5812 8.01722 25.4381 8.12699 25.277 8.20396C25.116 8.28093 24.9406 8.32341 24.7622 8.32866C24.5838 8.33391 24.4062 8.30183 24.2409 8.23446C22.5817 7.73459 20.8391 7.57195 19.1159 7.75613C17.4124 7.92914 15.7618 8.4464 14.2643 9.27655C12.821 10.0728 11.5449 11.1401 10.5059 12.4199C9.43629 13.7236 8.63753 15.2277 8.15646 16.844C7.67538 18.4603 7.52165 20.1563 7.70428 21.8328C7.87729 23.5363 8.39455 25.1869 9.2247 26.6845C10.021 28.1278 11.0882 29.4039 12.368 30.4428C13.6718 31.5125 15.1758 32.3112 16.7921 32.7923C18.4084 33.2734 20.1045 33.4271 21.7809 33.2445C23.4844 33.0715 25.135 32.5542 26.6326 31.724C28.0759 30.9278 29.352 29.8605 30.3909 28.5807C31.4606 27.277 32.2594 25.7729 32.7404 24.1566C33.2215 22.5403 33.3752 20.8443 33.1926 19.1678C33.1586 18.8121 33.2673 18.4575 33.4948 18.182C33.7223 17.9065 34.0499 17.7326 34.4055 17.6986C34.7612 17.6646 35.1158 17.7733 35.3913 18.0008C35.6668 18.2283 35.8407 18.5559 35.8747 18.9115C36.1858 21.9164 35.6047 24.9464 34.2041 27.6231C32.8035 30.2997 30.6454 32.5045 27.9993 33.962C26.1858 35.009 24.1715 35.661 22.0884 35.8753H20.4997Z" fill="#EF6C33"/>
</svg>
